<svg width="28" height="28" viewBox="0 0 28 28" fill="none" xmlns="http://www.w3.org/2000/svg">
<rect width="28" height="28" rx="8" fill="#E6E6FF" fill-opacity="0.3"/>
<g clip-path="url(#clip0_2712_2864)">
<path d="M20.6284 7.6001H7.71415C7.08296 7.6001 6.57129 8.11177 6.57129 8.74295V20.8572C6.57129 21.4884 7.08296 22.0001 7.71415 22.0001H20.6284C21.2596 22.0001 21.7713 21.4884 21.7713 20.8572V8.74295C21.7713 8.11177 21.2596 7.6001 20.6284 7.6001Z" fill="#E6E6FF"/>
<path d="M6.57129 8.74295C6.57129 8.11177 7.08296 7.6001 7.71415 7.6001H20.6284C21.2596 7.6001 21.7713 8.11177 21.7713 8.74295V11.2001H6.57129V8.74295Z" fill="#A1A5FD"/>
<path d="M11.4867 6H10.0582C9.90038 6 9.77246 6.12792 9.77246 6.28571V9.71429C9.77246 9.87208 9.90038 10 10.0582 10H11.4867C11.6445 10 11.7725 9.87208 11.7725 9.71429V6.28571C11.7725 6.12792 11.6445 6 11.4867 6Z" fill="#E6E6FF"/>
<path d="M17.8862 6H16.4576C16.2998 6 16.1719 6.12792 16.1719 6.28571V9.71429C16.1719 9.87208 16.2998 10 16.4576 10H17.8862C18.044 10 18.1719 9.87208 18.1719 9.71429V6.28571C18.1719 6.12792 18.044 6 17.8862 6Z" fill="#E6E6FF"/>
<path d="M10.686 13.2002H9.25739C9.0996 13.2002 8.97168 13.3281 8.97168 13.4859V14.9145C8.97168 15.0723 9.0996 15.2002 9.25739 15.2002H10.686C10.8438 15.2002 10.9717 15.0723 10.9717 14.9145V13.4859C10.9717 13.3281 10.8438 13.2002 10.686 13.2002Z" fill="#F7F7FF"/>
<path d="M14.686 13.2002H13.2574C13.0996 13.2002 12.9717 13.3281 12.9717 13.4859V14.9145C12.9717 15.0723 13.0996 15.2002 13.2574 15.2002H14.686C14.8438 15.2002 14.9717 15.0723 14.9717 14.9145V13.4859C14.9717 13.3281 14.8438 13.2002 14.686 13.2002Z" fill="#F7F7FF"/>
<path d="M18.686 13.2002H17.2574C17.0996 13.2002 16.9717 13.3281 16.9717 13.4859V14.9145C16.9717 15.0723 17.0996 15.2002 17.2574 15.2002H18.686C18.8438 15.2002 18.9717 15.0723 18.9717 14.9145V13.4859C18.9717 13.3281 18.8438 13.2002 18.686 13.2002Z" fill="#F7F7FF"/>
<path d="M10.686 17.2002H9.25739C9.0996 17.2002 8.97168 17.3281 8.97168 17.4859V18.9145C8.97168 19.0723 9.0996 19.2002 9.25739 19.2002H10.686C10.8438 19.2002 10.9717 19.0723 10.9717 18.9145V17.4859C10.9717 17.3281 10.8438 17.2002 10.686 17.2002Z" fill="#F7F7FF"/>
<path d="M14.686 17.2002H13.2574C13.0996 17.2002 12.9717 17.3281 12.9717 17.4859V18.9145C12.9717 19.0723 13.0996 19.2002 13.2574 19.2002H14.686C14.8438 19.2002 14.9717 19.0723 14.9717 18.9145V17.4859C14.9717 17.3281 14.8438 17.2002 14.686 17.2002Z" fill="#F7F7FF"/>
<path d="M18.686 17.2002H17.2574C17.0996 17.2002 16.9717 17.3281 16.9717 17.4859V18.9145C16.9717 19.0723 17.0996 19.2002 17.2574 19.2002H18.686C18.8438 19.2002 18.9717 19.0723 18.9717 18.9145V17.4859C18.9717 17.3281 18.8438 17.2002 18.686 17.2002Z" fill="#F7F7FF"/>
</g>
<defs>
<clipPath id="clip0_2712_2864">
<rect width="16" height="16" fill="white" transform="translate(6 6)"/>
</clipPath>
</defs>
</svg>
