<svg width="31" height="21" viewBox="0 0 31 21" fill="none" xmlns="http://www.w3.org/2000/svg">
<rect width="30" height="21" rx="3" fill="#006FCF"/>
<path fill-rule="evenodd" clip-rule="evenodd" d="M30.3094 4.3878H27.8263L26.5284 8.0495L25.1739 4.3878H22.6344V10.0893L20.0384 4.3878H17.9505L15.3545 10.2131H17.1603L17.6682 9.04812H20.3771L20.885 10.2131H24.271V6.16308L25.7947 10.2131H27.2055L28.7292 6.16308V10.2131H30.3094V11.1008H28.2213L26.5284 12.9316L24.7789 11.1008H17.6118V16.9261H24.7226L26.4719 15.0398L28.2213 16.9261H30.3094V17.6472H27.8263L26.4719 16.2048L25.1174 17.6472H16.7089V10.9898H14L17.386 3.5H20.6592L21.8442 6.05211V3.5H25.9076L26.5847 5.44182L27.2621 3.5H30.3094V4.3878ZM30.3094 12.3767L28.7857 13.9856L30.3094 15.5945V16.9261L27.5442 13.9856L30.3094 11.1008V12.3767ZM22.6344 16.9261V15.5391H19.2484V14.6515H22.5779V13.3199H19.2484V12.4323H22.6344V11.1008L25.4561 13.9856L22.6344 16.9261ZM18.1761 7.77198L18.9663 5.88573L19.7563 7.77198H18.1761Z" fill="white"/>
</svg>
