<svg width="25" height="25" viewBox="0 0 25 25" fill="none" xmlns="http://www.w3.org/2000/svg">
<path d="M7.04395 6.96716C9.29255 5.38844 11.7481 4.69225 14.4707 5.12732C16.3425 5.42566 17.9835 6.25888 19.4785 7.43982C21.2286 8.832 22.6266 10.5595 23.8906 12.4613C23.526 12.9833 23.1613 13.5181 22.7725 14.0277C21.4841 15.7307 20.0257 17.2727 18.1904 18.3666C14.7143 20.4425 11.2134 20.4426 7.7373 18.3793C5.59809 17.0989 3.98112 15.2588 2.54688 13.2201C2.3524 12.9839 2.18232 12.7348 2 12.4613C3.40987 10.3358 4.98996 8.40908 7.04395 6.96716ZM12.9512 8.23474C10.5446 8.22243 8.57563 10.2247 8.56348 12.6859C8.55156 15.1469 10.5083 17.1733 12.9268 17.1859C15.3334 17.1983 17.2901 15.1961 17.3145 12.7347C17.3264 10.2612 15.3698 8.24717 12.9512 8.23474ZM12.9395 9.72693C14.5439 9.72693 15.8564 11.0694 15.8564 12.7103C15.8564 14.3512 14.5438 15.6937 12.9395 15.6937C11.3351 15.6937 10.0225 14.3511 10.0225 12.7103C10.0225 11.0695 11.3351 9.727 12.9395 9.72693Z" fill="#ECE9F1"/>
<mask id="mask0_395_462" style="mask-type:luminance" maskUnits="userSpaceOnUse" x="2" y="5" width="22" height="15">
<path d="M7.04395 6.96716C9.29255 5.38844 11.7481 4.69225 14.4707 5.12732C16.3425 5.42566 17.9835 6.25888 19.4785 7.43982C21.2286 8.832 22.6266 10.5595 23.8906 12.4613C23.526 12.9833 23.1613 13.5181 22.7725 14.0277C21.4841 15.7307 20.0257 17.2727 18.1904 18.3666C14.7143 20.4425 11.2134 20.4426 7.7373 18.3793C5.59809 17.0989 3.98112 15.2588 2.54688 13.2201C2.3524 12.9839 2.18232 12.7348 2 12.4613C3.40987 10.3358 4.98996 8.40908 7.04395 6.96716ZM12.9512 8.23474C10.5446 8.22243 8.57563 10.2247 8.56348 12.6859C8.55156 15.1469 10.5083 17.1733 12.9268 17.1859C15.3334 17.1983 17.2901 15.1961 17.3145 12.7347C17.3264 10.2612 15.3698 8.24717 12.9512 8.23474ZM12.9395 9.72693C14.5439 9.72693 15.8564 11.0694 15.8564 12.7103C15.8564 14.3512 14.5438 15.6937 12.9395 15.6937C11.3351 15.6937 10.0225 14.3511 10.0225 12.7103C10.0225 11.0695 11.3351 9.727 12.9395 9.72693Z" fill="white"/>
</mask>
<g mask="url(#mask0_395_462)">
<rect x="2" y="5.00024" width="22" height="15" fill="#ECE9F1"/>
</g>
<circle cx="13" cy="12.7002" r="3" fill="#D7D4DC"/>
</svg>
