<svg width="25" height="25" viewBox="0 0 25 25" fill="none" xmlns="http://www.w3.org/2000/svg">
<path d="M5.5 4.5C5.5 3.39543 6.39543 2.5 7.5 2.5H17.5C18.6046 2.5 19.5 3.39543 19.5 4.5V20.5C19.5 21.6046 18.6046 22.5 17.5 22.5H7.5C6.39543 22.5 5.5 21.6046 5.5 20.5V4.5Z" fill="#C2BFC6"/>
<path d="M7.5 4.5H17.5V20.5H7.5V4.5Z" fill="#D7D4DC"/>
<path d="M10 18.5C10 17.9477 10.4477 17.5 11 17.5H14C14.5523 17.5 15 17.9477 15 18.5C15 19.0523 14.5523 19.5 14 19.5H11C10.4477 19.5 10 19.0523 10 18.5Z" fill="#C2BFC6"/>
<path d="M10 4H15V5C15 5.55228 14.5523 6 14 6H11C10.4477 6 10 5.55228 10 5V4Z" fill="#C2BFC6"/>
<path d="M21.3806 3.8628L3.87268 21.3324C3.38184 21.8222 3.37496 22.6231 3.8573 23.1216C4.33964 23.62 5.12854 23.6269 5.61938 23.1372L23.1273 5.66759C23.6181 5.17784 23.6251 4.37678 23.1427 3.87841C22.6604 3.38003 21.8714 3.37303 21.3806 3.8628Z" fill="#FBFCFE"/>
<path d="M20.3806 2.8628L2.87268 20.3324C2.38184 20.8222 2.37496 21.6231 2.8573 22.1216C3.33964 22.62 4.12854 22.6269 4.61938 22.1372L22.1273 4.66759C22.6181 4.17784 22.6251 3.37678 22.1427 2.87841C21.6604 2.38003 20.8714 2.37303 20.3806 2.8628Z" fill="#C2BFC6"/>
</svg>
