<svg width="25" height="25" viewBox="0 0 25 25" fill="none" xmlns="http://www.w3.org/2000/svg">
<rect x="5.5" y="2.5" width="14" height="20" rx="3" fill="#D7D4DC"/>
<rect x="7" y="4" width="11" height="17" rx="2" fill="#ECE9F1"/>
<rect x="10" y="17.5" width="5" height="1.5" rx="0.75" fill="#D7D4DC"/>
<path d="M10 3.5H15V4C15 4.55228 14.5523 5 14 5H11C10.4477 5 10 4.55228 10 4V3.5Z" fill="#D7D4DC"/>
<path d="M21.3806 3.8628L3.87268 21.3324C3.38184 21.8222 3.37496 22.6231 3.8573 23.1216C4.33964 23.62 5.12854 23.6269 5.61938 23.1372L23.1273 5.66759C23.6181 5.17784 23.6251 4.37678 23.1427 3.87841C22.6604 3.38003 21.8714 3.37303 21.3806 3.8628Z" fill="#FBFCFE"/>
<path d="M20.3806 2.8628L2.87268 20.3324C2.38184 20.8222 2.37496 21.6231 2.8573 22.1216C3.33964 22.62 4.12854 22.6269 4.61938 22.1372L22.1273 4.66759C22.6181 4.17784 22.6251 3.37678 22.1427 2.87841C21.6604 2.38003 20.8714 2.37303 20.3806 2.8628Z" fill="#D7D4DC"/>
</svg>
