<svg width="26" height="26" viewBox="0 0 26 26" fill="none" xmlns="http://www.w3.org/2000/svg">
<path d="M17.7126 14.4067H5.65714C5.01807 14.4067 4.5 13.8886 4.5 13.2495V13.2495C4.5 12.6105 5.01807 12.0924 5.65714 12.0924H17.7126C18.3516 12.0924 18.8697 12.6105 18.8697 13.2495V13.2495C18.8697 13.8886 18.3516 14.4067 17.7126 14.4067Z" fill="#7069FA"/>
<path d="M20.555 14.1733L14.7401 19.9882C14.2882 20.4401 13.5555 20.4401 13.1037 19.9882L13.1036 19.9882C12.6518 19.5363 12.6518 18.8036 13.1036 18.3517L18.9186 12.5368C19.3704 12.0849 20.1031 12.0849 20.555 12.5368L20.555 12.5368C21.0069 12.9887 21.0069 13.7214 20.555 14.1733Z" fill="#7069FA"/>
<path d="M14.7653 6.55199L20.5802 12.3669C21.0321 12.8188 21.0321 13.5515 20.5802 14.0033L20.5802 14.0033C20.1283 14.4552 19.3957 14.4552 18.9438 14.0033L13.1289 8.18844C12.677 7.73655 12.677 7.00389 13.1289 6.552L13.1289 6.55199C13.5808 6.1001 14.3134 6.1001 14.7653 6.55199Z" fill="#7069FA"/>
</svg>
