<svg width="26" height="26" viewBox="0 0 26 26" fill="none" xmlns="http://www.w3.org/2000/svg">
<mask id="mask0_68_7463" style="mask-type:luminance" maskUnits="userSpaceOnUse" x="12" y="6" width="9" height="9">
<rect width="10.5378" height="2.31429" rx="1.15714" transform="matrix(-0.707107 -0.707107 -0.707107 0.707107 21.3994 13.1851)" fill="white"/>
</mask>
<g mask="url(#mask0_68_7463)">
<rect width="12.2941" height="5" transform="matrix(-0.707107 -0.707107 -0.707107 0.707107 22.564 12.9355)" fill="#3A416F"/>
</g>
<mask id="mask1_68_7463" style="mask-type:luminance" maskUnits="userSpaceOnUse" x="12" y="12" width="9" height="9">
<rect width="10.5378" height="2.31429" rx="1.15714" transform="matrix(0.707107 -0.707107 -0.707107 -0.707107 13.9214 20.8062)" fill="white"/>
</mask>
<g mask="url(#mask1_68_7463)">
<rect width="11.6471" height="4" transform="matrix(0.707107 -0.707107 -0.707107 -0.707107 14.1709 21.9707)" fill="#3A416F"/>
</g>
<mask id="mask2_68_7463" style="mask-type:luminance" maskUnits="userSpaceOnUse" x="4" y="12" width="15" height="3">
<rect width="14.3697" height="2.31429" rx="1.15714" transform="matrix(1 0 0 -1 4.5 14.4067)" fill="white"/>
</mask>
<g mask="url(#mask2_68_7463)">
<rect width="15.8824" height="2.31" transform="matrix(1 0 0 -1 3.61768 14.4067)" fill="#3A416F"/>
</g>
</svg>
