<svg width="26" height="26" viewBox="0 0 26 26" fill="none" xmlns="http://www.w3.org/2000/svg">
<path d="M17.7126 14.4067H5.65714C5.01807 14.4067 4.5 13.8886 4.5 13.2496V13.2496C4.5 12.6105 5.01807 12.0924 5.65714 12.0924H17.7126C18.3516 12.0924 18.8697 12.6105 18.8697 13.2496V13.2496C18.8697 13.8886 18.3516 14.4067 17.7126 14.4067Z" fill="#D7D4DC"/>
<path d="M20.554 14.1733L14.7391 19.9882C14.2872 20.4401 13.5546 20.4401 13.1027 19.9882L13.1027 19.9882C12.6508 19.5363 12.6508 18.8036 13.1027 18.3517L18.9176 12.5368C19.3695 12.0849 20.1021 12.0849 20.554 12.5368L20.554 12.5368C21.0059 12.9887 21.0059 13.7214 20.554 14.1733Z" fill="#D7D4DC"/>
<path d="M14.7663 6.55196L20.5812 12.3669C21.0331 12.8188 21.0331 13.5514 20.5812 14.0033L20.5812 14.0033C20.1293 14.4552 19.3966 14.4552 18.9447 14.0033L13.1298 8.18841C12.6779 7.73652 12.6779 7.00386 13.1298 6.55197L13.1298 6.55196C13.5817 6.10007 14.3144 6.10007 14.7663 6.55196Z" fill="#D7D4DC"/>
</svg>
