<svg width="26" height="26" viewBox="0 0 26 26" fill="none" xmlns="http://www.w3.org/2000/svg">
<path d="M17.7126 14.4067H5.65714C5.01807 14.4067 4.5 13.8886 4.5 13.2495C4.5 12.6105 5.01807 12.0924 5.65714 12.0924H17.7126C18.3516 12.0924 18.8697 12.6105 18.8697 13.2495C18.8697 13.8886 18.3516 14.4067 17.7126 14.4067Z" fill="#3A416F"/>
<path d="M20.5559 14.1733L14.741 19.9882C14.2891 20.4401 13.5564 20.4401 13.1046 19.9882C12.6528 19.5363 12.6527 18.8036 13.1045 18.3517L18.9195 12.5368C19.3713 12.0849 20.104 12.0849 20.5559 12.5368C21.0078 12.9887 21.0078 13.7214 20.5559 14.1733Z" fill="#3A416F"/>
<path d="M14.7644 6.55199L20.5793 12.3669C21.0312 12.8188 21.0312 13.5515 20.5793 14.0033C20.1274 14.4552 19.3948 14.4552 18.9429 14.0033L13.128 8.18844C12.6761 7.73655 12.6761 7.00389 13.128 6.552C13.5799 6.10011 14.3125 6.1001 14.7644 6.55199Z" fill="#3A416F"/>
</svg>
