<svg width="20" height="20" viewBox="0 0 20 20" fill="none" xmlns="http://www.w3.org/2000/svg">
<path d="M8.00179 0C7.00163 -2.40036e-05 1.38511 6.72148 1.50179 11.4919C1.61848 16.2623 5.28511 20.269 10.5018 19.9859C15.7185 19.7027 19.002 15.489 18.5018 10.9922C18.0016 6.49538 15.002 3.16443 14.002 2.49823C13.002 1.83204 12.0018 3.99717 12.0018 3.99717C9.60179 0.399718 9.00195 2.40038e-05 8.00179 0Z" fill="#E6E6FF"/>
<path d="M9.99877 16.9847C6.96058 16.9847 5.95013 15.397 5.65986 14.1212C5.22583 12.2123 5.66048 10.7805 7.28853 9.3488C8.91658 7.91711 10.1273 11.2046 10.9273 12.2939C11.5457 13.1359 11.7219 12.9059 12.3468 11.929C13.64 9.90763 13.64 10.3849 14.339 11.735C15.2676 15.6346 12.0124 17.0664 9.99877 16.9847Z" fill="#A1A5FD"/>
</svg>
