<svg width="17" height="20" viewBox="0 0 17 20" fill="none" xmlns="http://www.w3.org/2000/svg">
<mask id="mask0_218_435" style="mask-type:luminance" maskUnits="userSpaceOnUse" x="0" y="0" width="17" height="20">
<path fill-rule="evenodd" clip-rule="evenodd" d="M14.7164 9.50164C16.1252 9.89176 16.472 10.3686 16.472 11.7774V17.9544C16.472 19.2764 15.8001 19.97 14.478 19.97H1.9723C0.671883 19.97 0 19.2981 0 17.9977V11.604C0 10.3686 0.455146 9.80507 1.73389 9.52331C1.73389 9.19098 1.73148 8.85865 1.72907 8.52632C1.72426 7.86167 1.71944 7.19701 1.73389 6.53235C1.77724 4.36499 2.64418 2.56608 4.42142 1.28733C6.48042 -0.186476 8.73447 -0.403212 11.0319 0.68047C13.3293 1.78582 14.543 3.67143 14.7164 6.20724C14.7598 6.94577 14.7452 7.6843 14.7307 8.41636V8.41637C14.7236 8.77999 14.7164 9.142 14.7164 9.50164ZM13.009 8.46812L13.009 8.46785V8.4678C13.0138 7.772 13.0185 7.09192 13.0041 6.40233C12.9608 4.08325 11.2703 2.19764 8.90783 1.80752C6.76214 1.43907 4.52975 2.78283 3.77118 4.90685C3.41295 5.90987 3.44313 6.94132 3.47341 7.97613V7.97613C3.48892 8.50655 3.50447 9.03786 3.46774 9.56668C6.67544 9.545 9.81812 9.545 13.0041 9.545C13.0041 9.17976 13.0066 8.82191 13.009 8.46812ZM8.88394 16.4053C8.88179 16.5723 8.8796 16.7419 8.86443 16.914C8.43095 16.914 8.04083 16.914 7.56401 16.8923V16.2638C7.58568 15.8086 7.56401 15.4185 7.19556 15.05C6.76208 14.6166 6.87045 13.858 7.3256 13.4028C7.75907 12.9694 8.43095 12.9043 8.95112 13.2511C9.47129 13.6196 9.79639 14.4215 9.36292 14.855C8.89772 15.3368 8.89101 15.8568 8.88394 16.4053Z" fill="white"/>
</mask>
<g mask="url(#mask0_218_435)">
<rect x="-4.03125" y="-3.07994" width="25.1956" height="12.5978" fill="#CEC7D4"/>
<rect x="-4.03125" y="9.51786" width="25.1956" height="11.59" fill="#F0C863"/>
</g>
</svg>
