<svg width="25" height="25" viewBox="0 0 25 25" fill="none" xmlns="http://www.w3.org/2000/svg">
<path fill-rule="evenodd" clip-rule="evenodd" d="M18.6022 12.4845C20 12.8716 20.3441 13.3447 20.3441 14.7426V20.8716C20.3441 22.1834 19.6774 22.8716 18.3656 22.8716H5.95699C4.66667 22.8716 4 22.2049 4 20.9146V14.5705C4 13.3447 4.45161 12.7856 5.72043 12.506C5.72043 12.1763 5.71804 11.8465 5.71565 11.5168C5.71087 10.8573 5.70609 10.1978 5.72043 9.53828C5.76344 7.38774 6.62366 5.6028 8.3871 4.33398C10.4301 2.87161 12.6667 2.65656 14.9462 3.73183C17.2258 4.8286 18.4301 6.69957 18.6022 9.2157C18.6453 9.94849 18.6308 10.6813 18.6164 11.4077C18.6093 11.7684 18.6022 12.1277 18.6022 12.4845ZM16.9081 11.4591C16.9128 10.7687 16.9175 10.0935 16.9032 9.40925C16.8602 7.10817 15.1828 5.2372 12.8387 4.85011C10.7097 4.48452 8.49462 5.81785 7.74194 7.92538C7.38649 8.92061 7.41644 9.94405 7.44648 10.9708C7.46187 11.4971 7.4773 12.0243 7.44086 12.549C10.6237 12.5275 13.7419 12.5275 16.9032 12.5275C16.9032 12.1652 16.9057 11.8101 16.9081 11.4591ZM12.8151 19.3346C12.8129 19.5003 12.8108 19.6687 12.7957 19.8394C12.3656 19.8394 11.9785 19.8394 11.5054 19.8179V19.1942C11.5269 18.7426 11.5054 18.3555 11.1398 17.9899C10.7097 17.5598 10.8172 16.8071 11.2688 16.3555C11.6989 15.9254 12.3656 15.8609 12.8817 16.2049C13.3979 16.5705 13.7204 17.3662 13.2903 17.7963C12.8287 18.2744 12.8221 18.7904 12.8151 19.3346Z" fill="#C2BFC6"/>
<mask id="mask0_2159_5895" style="mask-type:luminance" maskUnits="userSpaceOnUse" x="4" y="3" width="17" height="20">
<path fill-rule="evenodd" clip-rule="evenodd" d="M18.6022 12.4845C20 12.8716 20.3441 13.3447 20.3441 14.7426V20.8716C20.3441 22.1834 19.6774 22.8716 18.3656 22.8716H5.95699C4.66667 22.8716 4 22.2049 4 20.9146V14.5705C4 13.3447 4.45161 12.7856 5.72043 12.506C5.72043 12.1763 5.71804 11.8465 5.71565 11.5168C5.71087 10.8573 5.70609 10.1978 5.72043 9.53828C5.76344 7.38774 6.62366 5.6028 8.3871 4.33398C10.4301 2.87161 12.6667 2.65656 14.9462 3.73183C17.2258 4.8286 18.4301 6.69957 18.6022 9.2157C18.6453 9.94849 18.6308 10.6813 18.6164 11.4077C18.6093 11.7684 18.6022 12.1277 18.6022 12.4845ZM16.9081 11.4591C16.9128 10.7687 16.9175 10.0935 16.9032 9.40925C16.8602 7.10817 15.1828 5.2372 12.8387 4.85011C10.7097 4.48452 8.49462 5.81785 7.74194 7.92538C7.38649 8.92061 7.41644 9.94405 7.44648 10.9708C7.46187 11.4971 7.4773 12.0243 7.44086 12.549C10.6237 12.5275 13.7419 12.5275 16.9032 12.5275C16.9032 12.1652 16.9057 11.8101 16.9081 11.4591ZM12.8151 19.3346C12.8129 19.5003 12.8108 19.6687 12.7957 19.8394C12.3656 19.8394 11.9785 19.8394 11.5054 19.8179V19.1942C11.5269 18.7426 11.5054 18.3555 11.1398 17.9899C10.7097 17.5598 10.8172 16.8071 11.2688 16.3555C11.6989 15.9254 12.3656 15.8609 12.8817 16.2049C13.3979 16.5705 13.7204 17.3662 13.2903 17.7963C12.8287 18.2744 12.8221 18.7904 12.8151 19.3346Z" fill="white"/>
</mask>
<g mask="url(#mask0_2159_5895)">
<path d="M25 0H0V12.5H25V0Z" fill="#C2BFC6"/>
<path d="M25 12.5H0V24H25V12.5Z" fill="#C2BFC6"/>
</g>
</svg>
