<svg width="20" height="20" viewBox="0 0 20 20" fill="none" xmlns="http://www.w3.org/2000/svg">
<path fill-rule="evenodd" clip-rule="evenodd" d="M9.12071 5.12331C9.49895 4.42502 10.5011 4.42502 10.8793 5.12331L15.7003 14.0237C16.0613 14.69 15.5788 15.5 14.8211 15.5H5.17895C4.42118 15.5 3.93874 14.69 4.29965 14.0237L9.12071 5.12331Z" fill="#F0C863"/>
<mask id="mask0_819_784" style="mask-type:luminance" maskUnits="userSpaceOnUse" x="4" y="4" width="12" height="12">
<path fill-rule="evenodd" clip-rule="evenodd" d="M9.12071 5.12331C9.49895 4.42502 10.5011 4.42502 10.8793 5.12331L15.7003 14.0237C16.0613 14.69 15.5788 15.5 14.8211 15.5H5.17895C4.42118 15.5 3.93874 14.69 4.29965 14.0237L9.12071 5.12331Z" fill="white"/>
</mask>
<g mask="url(#mask0_819_784)">
<rect x="3" y="2.5" width="14" height="15" fill="#F0C863"/>
</g>
<rect x="9.25" y="7.5" width="1.5" height="4" fill="white"/>
<rect x="9.25" y="12.5" width="1.5" height="1.5" fill="white"/>
</svg>
