<svg width="20" height="20" viewBox="0 0 20 20" fill="none" xmlns="http://www.w3.org/2000/svg">
<path d="M10 18C14.4183 18 18 14.4183 18 10C18 5.58172 14.4183 2 10 2C5.58172 2 2 5.58172 2 10C2 14.4183 5.58172 18 10 18Z" fill="#EF4F4E"/>
<path d="M10 14C10.5523 14 11 13.5523 11 13C11 12.4477 10.5523 12 10 12C9.44772 12 9 12.4477 9 13C9 13.5523 9.44772 14 10 14Z" fill="white"/>
<path d="M9.5 10.5C9.1 10.9 9 8.33333 9 7H11C11 10.2 10.6667 10.6667 10.5 10.5C10.3333 10.3333 9.9 10.1 9.5 10.5Z" fill="white"/>
<path d="M10.75 10.25C10.75 10.6642 10.4142 11 10 11C9.58579 11 9.25 10.6642 9.25 10.25C9.25 9.83579 9.58579 9.5 10 9.5C10.4142 9.5 10.75 9.83579 10.75 10.25Z" fill="white"/>
<path d="M11 7C11 7.55228 10.5523 8 10 8C9.44772 8 9 7.55228 9 7C9 6.44772 9.44772 6 10 6C10.5523 6 11 6.44772 11 7Z" fill="white"/>
</svg>
