<svg width="15" height="15" viewBox="0 0 15 15" fill="none" xmlns="http://www.w3.org/2000/svg">
<mask id="mask0_0_5931" style="mask-type:luminance" maskUnits="userSpaceOnUse" x="0" y="0" width="15" height="15">
<path fill-rule="evenodd" clip-rule="evenodd" d="M0.0371094 7.5075C0.0445721 11.6269 3.38786 14.9627 7.50726 14.9627C11.6267 14.9627 14.9625 11.612 14.9625 7.49258C14.955 3.37317 11.6117 0.0373535 7.49233 0.0373535C3.37293 0.0448162 0.0371094 3.3881 0.0371094 7.5075ZM6.42517 10.7687L3.20875 7.55228C3.41024 7.35079 3.6136 7.1493 3.81695 6.94781C4.02031 6.74632 4.22367 6.54482 4.42517 6.34332C4.64379 6.56195 4.86325 6.78057 5.08297 6.99947C5.52328 7.43812 5.96469 7.87787 6.40278 8.32094L10.5147 4.209C10.7311 4.42914 10.9438 4.64183 11.1518 4.84985C11.3599 5.05788 11.5632 5.26123 11.761 5.46273C10.8702 6.34982 9.97556 7.23879 9.08192 8.12681C8.19386 9.0093 7.30673 9.89085 6.42517 10.7687Z" fill="white"/>
</mask>
<g mask="url(#mask0_0_5931)">
<rect width="15" height="15" fill="#00D591"/>
</g>
</svg>
