<svg width="20" height="20" viewBox="0 0 20 20" fill="none" xmlns="http://www.w3.org/2000/svg">
<rect width="13.0286" height="1.85143" rx="0.925714" transform="matrix(-0.707107 -0.707107 -0.707107 0.707107 15.2598 13.9518)" fill="#D8D8D8"/>
<mask id="mask0_301_17043" style="mask-type:luminance" maskUnits="userSpaceOnUse" x="5" y="5" width="10" height="10">
<rect width="13.0286" height="1.85143" rx="0.925714" transform="matrix(-0.707107 -0.707107 -0.707107 0.707107 15.2598 13.9518)" fill="white"/>
</mask>
<g mask="url(#mask0_301_17043)">
<rect width="15.2" height="4" transform="matrix(-0.707107 -0.707107 -0.707107 0.707107 16.3906 13.9518)" fill="#D7D4DC"/>
</g>
<rect width="13.0286" height="1.85143" rx="0.925714" transform="matrix(0.707107 -0.707107 -0.707107 -0.707107 6.04688 15.261)" fill="#D8D8D8"/>
<mask id="mask1_301_17043" style="mask-type:luminance" maskUnits="userSpaceOnUse" x="5" y="5" width="10" height="10">
<rect width="13.0286" height="1.85143" rx="0.925714" transform="matrix(0.707107 -0.707107 -0.707107 -0.707107 6.04688 15.261)" fill="white"/>
</mask>
<g mask="url(#mask1_301_17043)">
<rect width="14.4" height="3.2" transform="matrix(0.707107 -0.707107 -0.707107 -0.707107 6.04688 16.3923)" fill="#D7D4DC"/>
</g>
</svg>
