<svg width="16" height="15" viewBox="0 0 16 15" fill="none" xmlns="http://www.w3.org/2000/svg">
<rect x="0.5" y="-0.000488281" width="15" height="15" rx="3" fill="#7069FA"/>
<path fill-rule="evenodd" clip-rule="evenodd" d="M3.5 7.3428C4.58955 8.43235 5.67164 9.51444 6.71642 10.5592C8.48507 8.79802 10.2761 7.0219 12.0522 5.25324C11.6567 4.85026 11.2388 4.43981 10.806 3.99951C9.44776 5.35772 8.08955 6.71593 6.69403 8.11145C6.03731 7.44727 5.37313 6.79056 4.71642 6.13384C4.31343 6.53683 3.90299 6.93981 3.5 7.3428Z" fill="white"/>
<mask id="mask0_493_1143" style="mask-type:luminance" maskUnits="userSpaceOnUse" x="3" y="3" width="10" height="8">
<path fill-rule="evenodd" clip-rule="evenodd" d="M3.5 7.3428C4.58955 8.43235 5.67164 9.51444 6.71642 10.5592C8.48507 8.79802 10.2761 7.0219 12.0522 5.25324C11.6567 4.85026 11.2388 4.43981 10.806 3.99951C9.44776 5.35772 8.08955 6.71593 6.69403 8.11145C6.03731 7.44727 5.37313 6.79056 4.71642 6.13384C4.31343 6.53683 3.90299 6.93981 3.5 7.3428Z" fill="white"/>
</mask>
<g mask="url(#mask0_493_1143)">
</g>
</svg>
