<svg width="15" height="9" viewBox="0 0 15 9" fill="none" xmlns="http://www.w3.org/2000/svg">
<path d="M6.67484 7.71422C6.14234 7.07961 6.22511 6.13347 6.85972 5.60097L12.222 1.10146C12.8566 0.568954 13.8028 0.65173 14.3353 1.28634C14.8678 1.92095 14.785 2.86709 14.1504 3.39959L8.78809 7.8991C8.15347 8.43161 7.20734 8.34883 6.67484 7.71422Z" fill="#5D6494"/>
<path d="M1.1703 1.28648C1.70281 0.651872 2.64894 0.569096 3.28355 1.1016L8.64586 5.60111C9.28048 6.13362 9.36325 7.07975 8.83075 7.71436C8.29825 8.34897 7.35211 8.43175 6.7175 7.89925L1.35519 3.39973C0.720577 2.86723 0.637802 1.9211 1.1703 1.28648Z" fill="#5D6494"/>
</svg>
