<svg width="6" height="12" viewBox="0 0 6 12" fill="none" xmlns="http://www.w3.org/2000/svg">
<path d="M5.57098 11.464C6.07867 11.038 6.14489 10.2811 5.71889 9.77343L2.11928 5.48358C1.69328 4.97589 0.936373 4.90967 0.428683 5.33567C-0.079007 5.76167 -0.145227 6.51858 0.280775 7.02627L3.88039 11.3161C4.30639 11.8238 5.06329 11.89 5.57098 11.464Z" fill="#3A416F"/>
<path d="M0.428894 7.0605C0.936584 7.4865 1.69349 7.42028 2.11949 6.91259L5.7191 2.62274C6.14511 2.11505 6.07888 1.35814 5.5712 0.932142C5.06351 0.50614 4.3066 0.57236 3.8806 1.08005L0.280986 5.3699C-0.145016 5.87759 -0.0787958 6.63449 0.428894 7.0605Z" fill="#3A416F"/>
</svg>
