<svg width="18" height="18" viewBox="0 0 18 18" fill="none" xmlns="http://www.w3.org/2000/svg">
<path d="M11.7008 2.69995L9.00078 4.94995V5.39995L7.20078 3.14995L4.95078 2.69995L2.70078 4.04995L1.80078 5.84995L2.25078 8.54995L4.50078 11.7L7.20078 14.4L9.00078 15.3L10.3508 14.85L14.4008 10.35L15.7508 8.54995L16.2008 6.74995L15.7508 4.49995L13.9508 3.14995L11.7008 2.69995Z" fill="#EF4F4E"/>
<path d="M8.99983 5.524C9.68568 3.98042 11.7775 1.40779 14.6581 3.46589C17.5386 5.524 15.6868 8.86246 14.6581 10.1547C13.6293 11.4469 10.6459 15.3 8.99983 15.3M8.99782 5.524C8.31198 3.98042 6.22015 1.40779 3.33959 3.46589C0.45904 5.524 2.31082 8.86246 3.33959 10.1547C4.36836 11.4469 7.35179 15.3 8.99782 15.3" stroke="#EF4F4E" stroke-linecap="round"/>
</svg>
