<svg width="20" height="20" viewBox="0 0 20 20" fill="none" xmlns="http://www.w3.org/2000/svg">
<path d="M7.5 2C7.5 0.89543 8.39543 0 9.5 0H14.1716C14.702 0 15.2107 0.210714 15.5858 0.585786L16.5 1.5L17.9142 2.91421C18.2893 3.28929 18.5 3.79799 18.5 4.32843V13C18.5 14.1046 17.6046 15 16.5 15H9.5C8.39543 15 7.5 14.1046 7.5 13V2Z" fill="#E6E6FF"/>
<path d="M6 7.5H3.5V17.5H11V16.5H13.5V18L13.4893 18.2041C13.3938 19.1457 12.6457 19.8938 11.7041 19.9893L11.5 20H3C1.96435 20 1.113 19.2128 1.01074 18.2041L1 18V7C1 5.96435 1.78722 5.113 2.7959 5.01074L3 5H6V7.5Z" fill="#A1A5FD"/>
</svg>
