<svg width="23" height="23" viewBox="0 0 23 23" fill="none" xmlns="http://www.w3.org/2000/svg">
<mask id="mask0_245_7450" style="mask-type:luminance" maskUnits="userSpaceOnUse" x="4" y="4" width="15" height="15">
<path fill-rule="evenodd" clip-rule="evenodd" d="M6.1967 16.8033C9.12563 19.7322 13.8744 19.7322 16.8033 16.8033C19.7322 13.8744 19.7322 9.12563 16.8033 6.1967C13.8744 3.26777 9.12563 3.26777 6.1967 6.1967C3.26777 9.12563 3.26777 13.8744 6.1967 16.8033ZM13.091 8.84835C13.3839 8.55546 13.8588 8.55546 14.1517 8.84835C14.4445 9.14124 14.4445 9.61612 14.1517 9.90901L12.5607 11.5L14.1517 13.091C14.4445 13.3839 14.4445 13.8588 14.1517 14.1517C13.8588 14.4446 13.3839 14.4446 13.091 14.1517L11.5 12.5607L11.4161 12.6446L9.90901 14.1517C9.61612 14.4446 9.14124 14.4446 8.84835 14.1517C8.55546 13.8588 8.55546 13.3839 8.84835 13.091L10.3554 11.5839L10.4393 11.5L8.84835 9.90901C8.55546 9.61612 8.55546 9.14124 8.84835 8.84835C9.14124 8.55546 9.61612 8.55546 9.90901 8.84835L11.5 10.4394L13.091 8.84835Z" fill="white"/>
</mask>
<g mask="url(#mask0_245_7450)">
<path d="M87.8673 14.6822L13.6211 -59.564L-60.6251 14.6822L13.6211 88.9285L87.8673 14.6822Z" fill="#ACAAB0"/>
</g>
</svg>
