<svg width="23" height="23" viewBox="0 0 23 23" fill="none" xmlns="http://www.w3.org/2000/svg">
<mask id="mask0_0_31386" style="mask-type:luminance" maskUnits="userSpaceOnUse" x="4" y="4" width="15" height="15">
<path fill-rule="evenodd" clip-rule="evenodd" d="M6.1967 16.8032C9.12563 19.7321 13.8744 19.7321 16.8033 16.8032C19.7322 13.8743 19.7322 9.12554 16.8033 6.19661C13.8744 3.26768 9.12563 3.26768 6.1967 6.19661C3.26777 9.12554 3.26777 13.8743 6.1967 16.8032ZM13.091 8.84826C13.3839 8.55537 13.8588 8.55537 14.1517 8.84826C14.4445 9.14115 14.4445 9.61603 14.1517 9.90892L12.5607 11.4999L14.1517 13.0909C14.4445 13.3838 14.4445 13.8587 14.1517 14.1516C13.8588 14.4445 13.3839 14.4445 13.091 14.1516L11.5 12.5606L11.4161 12.6445L9.90901 14.1516C9.61612 14.4445 9.14124 14.4445 8.84835 14.1516C8.55546 13.8587 8.55546 13.3838 8.84835 13.0909L10.3554 11.5838L10.4393 11.4999L8.84835 9.90892C8.55546 9.61603 8.55546 9.14115 8.84835 8.84826C9.14124 8.55537 9.61612 8.55537 9.90901 8.84826L11.5 10.4393L13.091 8.84826Z" fill="white"/>
</mask>
<g mask="url(#mask0_0_31386)">
<rect x="13.6211" y="-59.5642" width="105" height="105" transform="rotate(45 13.6211 -59.5642)" fill="#D7D4DC"/>
</g>
</svg>
