<svg width="29" height="28" viewBox="0 0 29 28" fill="none" xmlns="http://www.w3.org/2000/svg">
<path d="M5.80273 26.6293C5.80273 25.2775 6.89854 24.1818 8.25029 24.1818H19.9007C21.2523 24.1818 22.3482 25.2775 22.3482 26.6293V27.9999H5.80273V26.6293Z" fill="#A1A5FD"/>
<path d="M15.9842 19.0907H12.166V24.1816H15.9842V19.0907Z" fill="#E6E6FF"/>
<path fill-rule="evenodd" clip-rule="evenodd" d="M5.89771 1.31108C5.84705 0.602632 6.40812 0 7.11837 0H21.0946C21.7824 0 22.3352 0.566751 22.318 1.25439L22.0298 12.7708C21.9371 16.471 19.3044 19.6185 15.6789 20.3635L14.0767 20.6927L12.8879 20.417C9.48823 19.6286 6.99945 16.7164 6.75051 13.2355L5.89771 1.31108Z" fill="#E6E6FF"/>
<path fill-rule="evenodd" clip-rule="evenodd" d="M1.06047 6.4482C0.826227 5.74277 1.37651 5.09082 2.11981 5.09082H26.0333C26.7766 5.09082 27.3268 5.74277 27.0926 6.44821C26.21 9.10618 23.2565 14.7404 14.0765 14.7404C4.89659 14.7404 1.94306 9.10616 1.06047 6.4482Z" stroke="#E6E6FF" stroke-width="2"/>
<path fill-rule="evenodd" clip-rule="evenodd" d="M14.0747 12.409L11.8057 13.6018C11.3568 13.8379 10.8321 13.4567 10.9179 12.9567L11.3512 10.4302L9.51553 8.6409C9.15236 8.2869 9.35277 7.67013 9.85465 7.59721L12.3914 7.22858L13.526 4.92984C13.7504 4.47505 14.3989 4.47505 14.6233 4.92984L15.7579 7.22858L18.2947 7.59721C18.7965 7.67013 18.997 8.2869 18.6338 8.6409L16.7981 10.4302L17.2314 12.9567C17.3172 13.4567 16.7926 13.8379 16.3437 13.6018L14.0747 12.409Z" fill="#A1A5FD"/>
</svg>
