<svg width="25" height="25" viewBox="0 0 25 25" fill="none" xmlns="http://www.w3.org/2000/svg">
<path d="M3.5 15.0487L5.89898 12.0231L8.54419 15.0487L11.4063 8.53235L14.5053 15.8765L17.8651 6.5L20.3 11.0146" stroke="#D7D4DC" stroke-width="2" stroke-linecap="round" stroke-linejoin="round"/>
<circle cx="19.9004" cy="15.7" r="2" fill="#ECE9F1"/>
<path d="M20.8806 3.3628L3.37268 20.8324C2.88184 21.3222 2.87496 22.1231 3.3573 22.6216C3.83964 23.12 4.62854 23.1269 5.11938 22.6372L22.6273 5.16759C23.1181 4.67784 23.1251 3.87678 22.6427 3.37841C22.1604 2.88003 21.3714 2.87303 20.8806 3.3628Z" fill="#FBFCFE"/>
<path d="M19.8806 2.3628L2.37268 19.8324C1.88184 20.3222 1.87496 21.1231 2.3573 21.6216C2.83964 22.12 3.62854 22.1269 4.11938 21.6372L21.6273 4.16759C22.1181 3.67784 22.1251 2.87678 21.6427 2.37841C21.1604 1.88003 20.3714 1.87303 19.8806 2.3628Z" fill="#D7D4DC"/>
</svg>
