<svg width="25" height="25" viewBox="0 0 25 25" fill="none" xmlns="http://www.w3.org/2000/svg">
<circle cx="12.5" cy="12.5" r="10" fill="#ECE9F1"/>
<circle cx="5.75" cy="12.75" r="1.25" fill="white"/>
<circle cx="19.25" cy="12.75" r="1.25" fill="white"/>
<circle cx="7.75" cy="8.25" r="1.25" fill="white"/>
<circle cx="12.25" cy="5.75" r="1.25" fill="white"/>
<circle cx="12.25" cy="15.75" r="2.25" fill="#D7D4DC"/>
<rect x="16.292" y="6.63184" width="2" height="10.849" rx="1" transform="rotate(29.1912 16.292 6.63184)" fill="#D7D4DC"/>
<path d="M20.8806 4.3628L3.37268 21.8324C2.88184 22.3222 2.87496 23.1231 3.3573 23.6216C3.83964 24.12 4.62854 24.1269 5.11938 23.6372L22.6273 6.16759C23.1181 5.67784 23.1251 4.87678 22.6427 4.37841C22.1604 3.88003 21.3714 3.87303 20.8806 4.3628Z" fill="#FBFCFE"/>
<path d="M19.8806 3.3628L2.37268 20.8324C1.88184 21.3222 1.87496 22.1231 2.3573 22.6216C2.83964 23.12 3.62854 23.1269 4.11938 22.6372L21.6273 5.16759C22.1181 4.67784 22.1251 3.87678 21.6427 3.37841C21.1604 2.88003 20.3714 2.87303 19.8806 3.3628Z" fill="#D7D4DC"/>
</svg>
