<svg width="30" height="30" viewBox="0 0 30 30" fill="none" xmlns="http://www.w3.org/2000/svg">
<mask id="mask0_887_875" style="mask-type:luminance" maskUnits="userSpaceOnUse" x="5" y="6" width="20" height="21">
<path d="M15.1528 6.88352C18.1739 6.88352 21.1946 6.88239 24.2149 6.88013C24.3509 6.88013 24.3802 6.90671 24.3701 7.04982C24.3099 7.88134 24.2627 8.71399 24.211 9.54664C24.1391 10.7081 24.0671 11.8696 23.9952 13.0311C23.9345 14.0142 23.8745 14.9971 23.8153 15.9799C23.7453 17.1229 23.6743 18.2657 23.6023 19.4083C23.5416 20.3818 23.4871 21.3559 23.4219 22.3288C23.3657 23.1371 23.3601 23.95 23.2505 24.7532C23.1628 25.3941 22.9459 25.9858 22.4507 26.4355C22.0303 26.8173 21.52 26.9593 20.9709 26.9932C20.854 27.0006 20.7371 26.9983 20.6196 26.9983C16.817 26.9983 13.0143 27.004 9.21049 26.9944C8.2202 26.9944 7.37098 26.4112 7.04051 25.4218C6.88763 24.9659 6.84604 24.493 6.8157 24.0184C6.71191 22.2921 6.61074 20.5657 6.5122 18.8393C6.43745 17.4845 6.37338 16.1286 6.30481 14.7733C6.22388 13.1782 6.14314 11.5828 6.06258 9.98729C6.01312 8.99399 5.96816 8.0007 5.91364 7.00797C5.90746 6.88805 5.95298 6.88409 6.04628 6.88409C9.08235 6.88484 12.1179 6.88465 15.1528 6.88352Z" fill="white"/>
</mask>
<g mask="url(#mask0_887_875)">
<rect x="0.652344" y="7.36523" width="28.6957" height="22.3108" fill="#E6E6FF"/>
</g>
<path d="M14.9843 7.64412C11.636 7.64412 8.28726 7.64412 4.93818 7.64412C4.72233 7.64412 4.50304 7.62432 4.32508 7.47442C4.16344 7.3527 4.05817 7.17214 4.03288 6.97325C3.97547 6.46415 4.01106 5.9494 4.00934 5.43748C4.00934 5.07716 4.13276 4.7734 4.50476 4.6252C4.61426 4.58201 4.73126 4.5603 4.8492 4.56128C6.74743 4.56128 8.64624 4.56128 10.5456 4.56128C10.6396 4.57243 10.7291 4.51829 10.7615 4.43061C10.9176 4.12346 11.0485 3.80443 11.2397 3.51424C11.4168 3.22691 11.7293 3.04729 12.0703 3.03683C13.5411 2.96556 15.013 3.02269 16.4843 3.00628C16.8523 3.00232 17.2208 3.00176 17.5894 3.00628C17.8971 3.01081 18.1985 3.03853 18.466 3.22632C18.6279 3.3372 18.7595 3.48587 18.8489 3.65905C18.9821 3.92095 19.1221 4.17946 19.2461 4.44532C19.2898 4.53978 19.3449 4.56184 19.4419 4.56184C21.3359 4.55958 23.2303 4.55958 25.1251 4.56184C25.4753 4.56184 25.748 4.69534 25.9127 5.00702C25.9833 5.14051 25.9902 5.29437 25.9931 5.43975C26.0017 5.88266 26.0029 6.32613 25.9931 6.76904C25.9845 7.19611 25.7939 7.49818 25.4231 7.5983C25.3001 7.63063 25.1732 7.64662 25.0459 7.64581L14.9843 7.64412Z" fill="#4E72F0"/>
<mask id="mask1_887_875" style="mask-type:luminance" maskUnits="userSpaceOnUse" x="4" y="3" width="22" height="5">
<path d="M14.9843 7.64412C11.636 7.64412 8.28726 7.64412 4.93818 7.64412C4.72233 7.64412 4.50304 7.62432 4.32508 7.47442C4.16344 7.3527 4.05817 7.17214 4.03288 6.97325C3.97547 6.46415 4.01106 5.9494 4.00934 5.43748C4.00934 5.07716 4.13276 4.7734 4.50476 4.6252C4.61426 4.58201 4.73126 4.5603 4.8492 4.56128C6.74743 4.56128 8.64624 4.56128 10.5456 4.56128C10.6396 4.57243 10.7291 4.51829 10.7615 4.43061C10.9176 4.12346 11.0485 3.80443 11.2397 3.51424C11.4168 3.22691 11.7293 3.04729 12.0703 3.03683C13.5411 2.96556 15.013 3.02269 16.4843 3.00628C16.8523 3.00232 17.2208 3.00176 17.5894 3.00628C17.8971 3.01081 18.1985 3.03853 18.466 3.22632C18.6279 3.3372 18.7595 3.48587 18.8489 3.65905C18.9821 3.92095 19.1221 4.17946 19.2461 4.44532C19.2898 4.53978 19.3449 4.56184 19.4419 4.56184C21.3359 4.55958 23.2303 4.55958 25.1251 4.56184C25.4753 4.56184 25.748 4.69534 25.9127 5.00702C25.9833 5.14051 25.9902 5.29437 25.9931 5.43975C26.0017 5.88266 26.0029 6.32613 25.9931 6.76904C25.9845 7.19611 25.7939 7.49818 25.4231 7.5983C25.3001 7.63063 25.1732 7.64662 25.0459 7.64581L14.9843 7.64412Z" fill="white"/>
</mask>
<g mask="url(#mask1_887_875)">
<rect x="3.04395" y="1.05981" width="23.913" height="8.73032" fill="#A1A5FD"/>
</g>
</svg>
