<svg width="20" height="20" viewBox="0 0 20 20" fill="none" xmlns="http://www.w3.org/2000/svg">
<g clip-path="url(#clip0_2324_2082)">
<mask id="mask0_2324_2082" style="mask-type:luminance" maskUnits="userSpaceOnUse" x="2" y="3" width="16" height="17">
<path d="M10.1282 3.20299C12.6549 3.20299 15.1813 3.20206 17.7074 3.2002C17.8212 3.2002 17.8456 3.22212 17.8371 3.34015C17.7868 4.02591 17.7474 4.7126 17.7041 5.3993C17.6439 6.35719 17.5838 7.31508 17.5236 8.27297C17.4728 9.08376 17.4227 9.89439 17.3732 10.7049C17.3146 11.6475 17.2552 12.59 17.195 13.5323C17.1443 14.3352 17.0987 15.1385 17.0442 15.9409C16.9971 16.6075 16.9924 17.2779 16.9008 17.9404C16.8275 18.4689 16.646 18.9569 16.2319 19.3277C15.8803 19.6426 15.4535 19.7597 14.9942 19.7877C14.8965 19.7938 14.7987 19.7919 14.7004 19.7919C11.52 19.7919 8.33959 19.7966 5.15822 19.7886C4.32998 19.7886 3.61972 19.3077 3.34333 18.4918C3.21547 18.1158 3.18069 17.7258 3.1553 17.3344C3.0685 15.9106 2.98389 14.4868 2.90147 13.063C2.83895 11.9458 2.78537 10.8276 2.72802 9.70981C2.66033 8.39426 2.5928 7.07856 2.52542 5.76271C2.48406 4.94352 2.44644 4.12434 2.40085 3.30563C2.39568 3.20673 2.43376 3.20346 2.51179 3.20346C5.05105 3.20408 7.58983 3.20393 10.1282 3.20299Z" fill="white"/>
</mask>
<g mask="url(#mask0_2324_2082)">
<path d="M22 3.6001H-2V22.0001H22V3.6001Z" fill="#ECE9F1"/>
</g>
<path d="M9.98666 3.83006C7.18625 3.83006 4.38552 3.83006 1.58446 3.83006C1.40393 3.83006 1.22052 3.81373 1.07169 3.6901C0.936503 3.58972 0.848457 3.44081 0.827302 3.27678C0.779289 2.85693 0.809057 2.43241 0.807617 2.01022C0.807617 1.71306 0.910844 1.46254 1.22197 1.34032C1.31355 1.30471 1.4114 1.2868 1.51004 1.2876C3.09766 1.2876 4.68575 1.2876 6.27433 1.2876C6.35297 1.2968 6.42776 1.25215 6.45486 1.17984C6.58545 0.92653 6.69492 0.663421 6.8548 0.424104C7.00294 0.187139 7.26433 0.0390016 7.54955 0.0303736C8.77963 -0.028406 10.0107 0.018711 11.2412 0.00518231C11.549 0.00191678 11.8572 0.00145027 12.1655 0.00518231C12.4228 0.00891435 12.6749 0.0317731 12.8986 0.186653C13.0341 0.278093 13.1441 0.400702 13.2189 0.543529C13.3303 0.759521 13.4474 0.972714 13.5511 1.19197C13.5876 1.26988 13.6337 1.28807 13.7148 1.28807C15.2989 1.2862 16.8834 1.2862 18.4681 1.28807C18.761 1.28807 18.989 1.39817 19.1268 1.65521C19.1859 1.76531 19.1916 1.89219 19.194 2.01209C19.2012 2.37736 19.2022 2.7431 19.194 3.10837C19.1868 3.46058 19.0274 3.7097 18.7173 3.79227C18.6144 3.81894 18.5083 3.83212 18.4018 3.83146L9.98666 3.83006Z" fill="#4E72F0"/>
<mask id="mask1_2324_2082" style="mask-type:luminance" maskUnits="userSpaceOnUse" x="0" y="0" width="20" height="4">
<path d="M9.98666 3.83006C7.18625 3.83006 4.38552 3.83006 1.58446 3.83006C1.40393 3.83006 1.22052 3.81373 1.07169 3.6901C0.936503 3.58972 0.848457 3.44081 0.827302 3.27678C0.779289 2.85693 0.809057 2.43241 0.807617 2.01022C0.807617 1.71306 0.910844 1.46254 1.22197 1.34032C1.31355 1.30471 1.4114 1.2868 1.51004 1.2876C3.09766 1.2876 4.68575 1.2876 6.27433 1.2876C6.35297 1.2968 6.42776 1.25215 6.45486 1.17984C6.58545 0.92653 6.69492 0.663421 6.8548 0.424104C7.00294 0.187139 7.26433 0.0390016 7.54955 0.0303736C8.77963 -0.028406 10.0107 0.018711 11.2412 0.00518231C11.549 0.00191678 11.8572 0.00145027 12.1655 0.00518231C12.4228 0.00891435 12.6749 0.0317731 12.8986 0.186653C13.0341 0.278093 13.1441 0.400702 13.2189 0.543529C13.3303 0.759521 13.4474 0.972714 13.5511 1.19197C13.5876 1.26988 13.6337 1.28807 13.7148 1.28807C15.2989 1.2862 16.8834 1.2862 18.4681 1.28807C18.761 1.28807 18.989 1.39817 19.1268 1.65521C19.1859 1.76531 19.1916 1.89219 19.194 2.01209C19.2012 2.37736 19.2022 2.7431 19.194 3.10837C19.1868 3.46058 19.0274 3.7097 18.7173 3.79227C18.6144 3.81894 18.5083 3.83212 18.4018 3.83146L9.98666 3.83006Z" fill="white"/>
</mask>
<g mask="url(#mask1_2324_2082)">
<path d="M20 -1.6001H0V5.5999H20V-1.6001Z" fill="#D7D4DC"/>
</g>
</g>
<defs>
<clipPath id="clip0_2324_2082">
<rect width="20" height="20" fill="white"/>
</clipPath>
</defs>
</svg>
