<svg width="42" height="35" viewBox="0 0 42 35" fill="none" xmlns="http://www.w3.org/2000/svg">
<path d="M11.354 11.332H0.758099C0.538037 11.332 0.422243 11.0668 0.569885 10.9011L9.46821 0.906934C9.61247 0.744893 9.87727 0.827177 9.90768 1.0435L11.354 11.332Z" fill="#E1E4F7" stroke="#5D6494"/>
<path d="M30.6444 11.332H41.2404C41.4605 11.332 41.5763 11.0668 41.4286 10.9011L32.5304 0.906934C32.3861 0.744893 32.1212 0.827177 32.0909 1.0435L30.6444 11.332Z" fill="#E1E4F7" stroke="#5D6494"/>
<path d="M11.3543 11.3333H0.753701C0.534381 11.3333 0.418303 11.5968 0.564443 11.7631L20.4818 34.412C20.673 34.6296 21.017 34.4077 20.9045 34.1391L11.3543 11.3333Z" fill="#C2C2FF" stroke="#5D6494"/>
<path d="M30.6443 11.3333H41.2451C41.4644 11.3333 41.5804 11.5968 41.4343 11.7631L21.517 34.412C21.3257 34.6296 20.9818 34.4077 21.0942 34.1391L30.6443 11.3333Z" fill="#C2C2FF" stroke="#5D6494"/>
<path d="M30.6439 11.3333H11.3539L20.7659 33.482C20.8541 33.6896 21.1438 33.6896 21.232 33.482L30.6439 11.3333Z" fill="#D6D6FF" stroke="#5D6494"/>
<path d="M31.8743 0.5H10.1239C9.9694 0.5 9.85075 0.639017 9.87259 0.794398L11.3541 11.3327H30.6441L32.1256 0.794397C32.1475 0.639017 32.0288 0.5 31.8743 0.5Z" fill="#D6D6FF" stroke="#5D6494"/>
<path d="M31.1521 11.3346H10.8468L20.8157 0.697964C20.9157 0.591238 21.0833 0.591238 21.1833 0.697964L31.1521 11.3346Z" fill="#E1E4F7" stroke="#5D6494"/>
</svg>
