<svg width="25" height="25" viewBox="0 0 25 25" fill="none" xmlns="http://www.w3.org/2000/svg">
<path d="M6.5 15C7.60457 15 8.5 14.1046 8.5 13C8.5 11.8954 7.60457 11 6.5 11C5.39543 11 4.5 11.8954 4.5 13C4.5 14.1046 5.39543 15 6.5 15Z" fill="#D7D4DC"/>
<path d="M12.5 15C13.6046 15 14.5 14.1046 14.5 13C14.5 11.8954 13.6046 11 12.5 11C11.3954 11 10.5 11.8954 10.5 13C10.5 14.1046 11.3954 15 12.5 15Z" fill="#D7D4DC"/>
<path d="M18.5 15C19.6046 15 20.5 14.1046 20.5 13C20.5 11.8954 19.6046 11 18.5 11C17.3954 11 16.5 11.8954 16.5 13C16.5 14.1046 17.3954 15 18.5 15Z" fill="#D7D4DC"/>
</svg>
