<svg width="25" height="25" viewBox="0 0 25 25" fill="none" xmlns="http://www.w3.org/2000/svg">
<path d="M10 4C11.9392 4 13.662 4.92128 14.7588 6.34863C15.2943 6.12375 15.8828 6 16.5 6C18.9853 6 21 8.01472 21 10.5C21 10.701 20.9845 10.8987 20.959 11.0928C23.2615 11.5401 25 13.5666 25 16C25 18.5926 23.0266 20.7237 20.5 20.9746V21H5V20.9756C2.19683 20.7229 0 18.369 0 15.5C0 12.9807 1.69393 10.8574 4.00488 10.2061C4.00257 10.1376 4 10.069 4 10C4 6.68629 6.68629 4 10 4ZM12 9C11.4477 9 11 9.44772 11 10V14.2979L9.75879 12.8496C9.39937 12.4303 8.76894 12.3818 8.34961 12.7412C7.93028 13.1006 7.88179 13.7311 8.24121 14.1504L11.2412 17.6504L11.3164 17.7295C11.5007 17.9022 11.7447 18 12 18C12.2919 18 12.5688 17.872 12.7588 17.6504L15.7588 14.1504L15.8223 14.0693C16.1112 13.6532 16.0434 13.078 15.6504 12.7412C15.2573 12.4042 14.6786 12.4258 14.3115 12.7754L14.2412 12.8496L13 14.2979V10C13 9.44772 12.5523 9 12 9Z" fill="white"/>
</svg>
