<svg width="25" height="25" viewBox="0 0 25 25" fill="none" xmlns="http://www.w3.org/2000/svg">
<path d="M11 17C11 15.8954 10.1046 15 9 15C7.89543 15 7 15.8954 7 17C7 18.1046 7.89543 19 9 19C10.1046 19 11 18.1046 11 17Z" fill="#C2BFC6"/>
<path d="M11 11C11 9.89543 10.1046 9 9 9C7.89543 9 7 9.89543 7 11C7 12.1046 7.89543 13 9 13C10.1046 13 11 12.1046 11 11Z" fill="#C2BFC6"/>
<path d="M11 5C11 3.89543 10.1046 3 9 3C7.89543 3 7 3.89543 7 5C7 6.10457 7.89543 7 9 7C10.1046 7 11 6.10457 11 5Z" fill="#C2BFC6"/>
<path d="M17 20C17 18.8954 16.1046 18 15 18C13.8954 18 13 18.8954 13 20C13 21.1046 13.8954 22 15 22C16.1046 22 17 21.1046 17 20Z" fill="#C2BFC6"/>
<path d="M17 14C17 12.8954 16.1046 12 15 12C13.8954 12 13 12.8954 13 14C13 15.1046 13.8954 16 15 16C16.1046 16 17 15.1046 17 14Z" fill="#C2BFC6"/>
<path d="M17 8C17 6.89543 16.1046 6 15 6C13.8954 6 13 6.89543 13 8C13 9.10457 13.8954 10 15 10C16.1046 10 17 9.10457 17 8Z" fill="#C2BFC6"/>
</svg>
