<svg width="20" height="20" viewBox="0 0 20 20" fill="none" xmlns="http://www.w3.org/2000/svg">
<path d="M16.9224 7.98547L11.9727 3.03572L14.094 0.9144C14.875 0.133351 16.1414 0.133351 16.9224 0.9144L19.0437 3.03572C19.8248 3.81677 19.8248 5.0831 19.0437 5.86415L16.9224 7.98547Z" fill="#5D6494"/>
<path fill-rule="evenodd" clip-rule="evenodd" d="M6.3157 18.5919L1.25616 19.924C0.515558 20.1188 -0.160969 19.4423 0.0339152 18.7017L1.2969 13.9032C1.34199 13.7321 1.43212 13.576 1.55723 13.4509L11.2654 3.74268L16.2152 8.69242L6.3157 18.5919ZM4.86834 15.6281C4.53548 15.6947 4.23459 15.4177 4.27379 15.0806L4.41535 13.8631L3.35745 14.178C3.00247 14.2837 2.73485 14.5765 2.66209 14.9397L2.07306 17.8848L4.95466 17.3082C5.35052 17.229 5.65993 16.9196 5.73911 16.5238L5.96215 15.4099L4.86834 15.6281ZM12.1493 6.04077C11.8564 5.74788 11.3816 5.74788 11.0887 6.04077L5.07827 12.0512C4.78537 12.3441 4.78537 12.8189 5.07827 13.1118C5.37116 13.4047 5.84603 13.4047 6.13893 13.1118L12.1493 7.10143C12.4422 6.80854 12.4422 6.33367 12.1493 6.04077Z" fill="#5D6494"/>
</svg>
