<svg width="20" height="20" viewBox="0 0 20 20" fill="none" xmlns="http://www.w3.org/2000/svg">
<path d="M16.9155 7.98547L11.9678 3.03572L14.0882 0.9144C14.8689 0.133351 16.1347 0.133351 16.9155 0.9144L19.0359 3.03572C19.8166 3.81677 19.8166 5.0831 19.0359 5.86415L16.9155 7.98547Z" fill="#E6E6FF"/>
<path fill-rule="evenodd" clip-rule="evenodd" d="M6.31308 18.5919L1.25564 19.924C0.515344 20.1188 -0.160903 19.4423 0.0339011 18.7017L1.29636 13.9032C1.34143 13.7321 1.43152 13.576 1.55659 13.4509L11.2608 3.74268L16.2085 8.69242L6.31308 18.5919ZM4.86632 15.6281C4.5336 15.6947 4.23283 15.4177 4.27202 15.0806L4.41352 13.8631L3.35606 14.178C3.00122 14.2837 2.73371 14.5765 2.66098 14.9397L2.0722 17.8848L4.9526 17.3082C5.3483 17.229 5.65759 16.9196 5.73673 16.5238L5.95968 15.4099L4.86632 15.6281ZM12.1443 6.04077C11.8515 5.74788 11.3768 5.74788 11.0841 6.04077L5.07616 12.0512C4.78339 12.3441 4.78339 12.8189 5.07616 13.1118C5.36893 13.4047 5.84361 13.4047 6.13638 13.1118L12.1443 7.10143C12.4371 6.80854 12.4371 6.33367 12.1443 6.04077Z" fill="#7069FA"/>
</svg>
