<svg width="21" height="20" viewBox="0 0 21 20" fill="none" xmlns="http://www.w3.org/2000/svg">
<path d="M10.6719 3L0.671875 13L6.17188 19L11.6719 18.5L14.6719 14.5L18.1719 11V9.5L12.6719 4L10.6719 3Z" fill="#E6E6FF"/>
<path d="M6.67188 6.5L14.6719 14.5" stroke="#A1A5FD" stroke-width="2" stroke-linecap="round"/>
<path d="M14.6719 14.5L6.67188 6.5L9.67188 3H11.1719L18.1719 9.5V11.5L14.6719 14.5Z" fill="#A1A5FD"/>
<path d="M18.6719 18.5H11.1719M11.1719 18.5H6.5003C5.96987 18.5 5.46116 18.2893 5.08609 17.9142L1.58609 14.4142C0.805041 13.6332 0.80504 12.3668 1.58609 11.5858L9.71416 3.45772C10.512 2.65989 11.8115 2.67957 12.5848 3.5012L17.8421 9.08706C18.5829 9.87423 18.5642 11.1076 17.7999 11.872L11.1719 18.5Z" stroke="#A1A5FD" stroke-width="2" stroke-linecap="round"/>
</svg>
