<svg width="15" height="15" viewBox="0 0 15 15" fill="none" xmlns="http://www.w3.org/2000/svg">
<mask id="mask0_30_19290" style="mask-type:luminance" maskUnits="userSpaceOnUse" x="0" y="0" width="15" height="15">
<path fill-rule="evenodd" clip-rule="evenodd" d="M15 7.5C15 3.36 11.64 0 7.5 0C3.36 0 0 3.36 0 7.5C0 11.64 3.36 15 7.5 15C11.64 15 15 11.64 15 7.5ZM5.5125 4.245L7.5075 6.24C8.18241 5.55759 8.84983 4.89017 9.49475 4.24525L9.495 4.245L10.7625 5.5125L8.775 7.5C9.22656 7.94163 9.67155 8.38327 10.11 8.81838C10.3342 9.04092 10.5567 9.26175 10.7775 9.48L9.4875 10.77C9.16225 10.441 8.83319 10.11 8.50128 9.77623C8.17497 9.44806 7.84591 9.11712 7.515 8.7825C6.84 9.4575 6.1725 10.125 5.52 10.785L4.2375 9.5025C4.67196 9.06304 5.11308 8.62359 5.55641 8.18191C5.7789 7.96026 6.00195 7.73805 6.225 7.515C5.55 6.84 4.8825 6.1725 4.23 5.5275L5.5125 4.245Z" fill="white"/>
</mask>
<g mask="url(#mask0_30_19290)">
<rect width="15" height="15" fill="#EF4F4E"/>
</g>
</svg>
