<svg width="18" height="18" viewBox="0 0 18 18" fill="none" xmlns="http://www.w3.org/2000/svg">
<path d="M0.569652 13.7776C0.30084 13.312 0.460365 12.7166 0.92596 12.4478L16.1006 3.68675C16.5662 3.41794 17.1615 3.57746 17.4303 4.04306C17.6992 4.50865 17.5396 5.10401 17.074 5.37282L1.89941 14.1339C1.43382 14.4027 0.838463 14.2432 0.569652 13.7776Z" fill="#E6E6FF"/>
<path d="M0.195871 11.1833C-0.207347 10.4849 0.0319405 9.59185 0.730333 9.18863L1.15185 8.94527L5.04566 15.6895L4.62414 15.9329C3.92575 16.3361 3.03272 16.0968 2.6295 15.3984L0.195871 11.1833Z" fill="#A1A5FD"/>
<path d="M0.908488 8.52375C0.50527 7.82536 0.744557 6.93233 1.44295 6.52911C2.14134 6.12589 3.03437 6.36518 3.43759 7.06357L7.81813 14.6509C8.22135 15.3493 7.98206 16.2423 7.28367 16.6455C6.58527 17.0487 5.69224 16.8095 5.28903 16.1111L0.908488 8.52375Z" fill="#A1A5FD"/>
<path d="M12.9543 2.1311L13.3759 1.88774C14.0742 1.48452 14.9673 1.72381 15.3705 2.4222L17.8041 6.63737C18.2073 7.33577 17.9681 8.2288 17.2697 8.63202L16.8482 8.87538L12.9543 2.1311Z" fill="#A1A5FD"/>
<path d="M10.1819 3.16976C9.77865 2.47137 10.0179 1.57834 10.7163 1.17512C11.4147 0.771901 12.3078 1.01119 12.711 1.70958L17.0915 9.2969C17.4947 9.99529 17.2554 10.8883 16.5571 11.2915C15.8587 11.6948 14.9656 11.4555 14.5624 10.7571L10.1819 3.16976Z" fill="#A1A5FD"/>
</svg>
