<svg width="16" height="16" viewBox="0 0 16 16" fill="none" xmlns="http://www.w3.org/2000/svg">
<path d="M7.33325 2C7.33325 1.63181 7.63172 1.33334 7.99992 1.33334C8.36811 1.33334 8.66659 1.63181 8.66659 2V8.21957L10.4715 6.4147C10.732 6.15425 11.1541 6.15425 11.4146 6.4147C11.675 6.67515 11.675 7.09726 11.4146 7.35771L8.47121 10.3011C8.33809 10.4342 8.16401 10.5003 7.99992 10.5003C7.83584 10.5003 7.66175 10.4342 7.52864 10.3011L4.58527 7.35771C4.32482 7.09726 4.32482 6.67515 4.58527 6.4147C4.84571 6.15425 5.26782 6.15425 5.52827 6.4147L7.33325 8.21968V2Z" fill="#3A416F"/>
<path d="M3.33325 12C3.33325 11.6318 3.63172 11.3333 3.99992 11.3333H11.9999C12.3681 11.3333 12.6666 11.6318 12.6666 12C12.6666 12.3682 12.3681 12.6667 11.9999 12.6667H3.99992C3.63172 12.6667 3.33325 12.3682 3.33325 12Z" fill="#3A416F"/>
</svg>
