<svg width="30" height="30" viewBox="0 0 30 30" fill="none" xmlns="http://www.w3.org/2000/svg">
<path d="M0 5C0 2.23858 2.23858 0 5 0H25C27.7614 0 30 2.23858 30 5V25C30 27.7614 27.7614 30 25 30H5C2.23858 30 0 27.7614 0 25V5Z" fill="#E6E6FF"/>
<path d="M8.5 23H5.5H5L8.5 11H11V13L9.5 18H11V20H9.5L8.5 23Z" fill="#A1A5FD"/>
<path d="M13.5 23H16.5H17L13.5 11H11V13L12.5 18H11V20H12.5L13.5 23Z" fill="#A1A5FD"/>
<path d="M21 14H18V23H21V14Z" fill="#A1A5FD"/>
<path d="M16 6C16 6.8 15.3333 7 15 7C15.8 7 16 7.66667 16 8C16 7.2 16.6667 7 17 7C16.2 7 16 6.33333 16 6Z" fill="#A1A5FD"/>
<path d="M23.5 12C23.5 13.2 22.5 13.5 22 13.5C23.2 13.5 23.5 14.5 23.5 15C23.5 13.8 24.5 13.5 25 13.5C23.8 13.5 23.5 12.5 23.5 12Z" fill="#A1A5FD"/>
<path d="M19.5 7C19.5 9.4 17.5 10 16.5 10C18.9 10 19.5 12 19.5 13C19.5 10.6 21.5 10 22.5 10C20.1 10 19.5 8 19.5 7Z" fill="#A1A5FD"/>
<path d="M24.25 8.5C24.25 9.1 23.75 9.25 23.5 9.25C24.1 9.25 24.25 9.75 24.25 10C24.25 9.4 24.75 9.25 25 9.25C24.4 9.25 24.25 8.75 24.25 8.5Z" fill="#A1A5FD"/>
</svg>
