<svg width="18" height="18" viewBox="0 0 18 18" fill="none" xmlns="http://www.w3.org/2000/svg">
  <circle cx="9" cy="9" r="9" fill="#F2F1F6"/>
  <path d="M9 3.75C7.20507 3.75 5.75 5.20507 5.75 7H7.25C7.25 6.0335 8.0335 5.25 9 5.25C9.9665 5.25 10.75 6.0335 10.75 7C10.75 7.52067 10.5423 8.02068 10.1756 8.38732L9.28306 9.27984C8.47462 10.0883 8 11.1524 8 12.2689V12.75H9.5V12.2689C9.5 11.5898 9.7705 10.939 10.2521 10.4574L11.1446 9.56491C11.8124 8.8971 12.25 7.98012 12.25 7C12.25 5.20507 10.7949 3.75 9 3.75Z" fill="#5D6494"/>
  <rect x="8.25" y="13" width="1.5" height="1.5" rx="0.75" fill="#5D6494"/>
</svg>
