<svg width="18" height="18" viewBox="0 0 18 18" fill="none" xmlns="http://www.w3.org/2000/svg">
<mask id="mask0_230_311" style="mask-type:luminance" maskUnits="userSpaceOnUse" x="0" y="0" width="18" height="18">
<circle cx="9" cy="9" r="9" fill="white"/>
</mask>
<g mask="url(#mask0_230_311)">
<rect x="-49.5" y="-53.1" width="126" height="126" fill="#D7D4DC"/>
</g>
<path d="M7.70794 10.208C7.70794 10 7.77594 9.828 7.91194 9.692C8.04794 9.548 8.21994 9.476 8.42794 9.476C8.75594 9.476 9.05194 9.428 9.31594 9.332C9.57994 9.228 9.78794 9.064 9.93994 8.84C10.0999 8.616 10.1799 8.32 10.1799 7.952C10.1799 7.68 10.1119 7.44 9.97594 7.232C9.84794 7.024 9.66794 6.86 9.43594 6.74C9.21194 6.62 8.95594 6.56 8.66794 6.56C8.44394 6.56 8.23194 6.6 8.03194 6.68C7.83994 6.76 7.66394 6.868 7.50394 7.004C7.37594 7.116 7.21994 7.2 7.03594 7.256C6.85994 7.304 6.67994 7.26 6.49594 7.124C6.30394 6.98 6.19994 6.808 6.18394 6.608C6.16794 6.408 6.24394 6.224 6.41194 6.056C6.69994 5.76 7.03594 5.532 7.41994 5.372C7.81194 5.204 8.22794 5.12 8.66794 5.12C9.21994 5.12 9.71594 5.248 10.1559 5.504C10.6039 5.752 10.9599 6.088 11.2239 6.512C11.4879 6.936 11.6199 7.416 11.6199 7.952C11.6199 8.352 11.5599 8.708 11.4399 9.02C11.3199 9.324 11.1479 9.588 10.9239 9.812C10.7079 10.028 10.4519 10.204 10.1559 10.34C9.86794 10.468 9.55194 10.56 9.20794 10.616C9.19194 10.624 9.17594 10.632 9.15994 10.64C9.15194 10.648 9.14794 10.66 9.14794 10.676V11.12C9.14794 11.328 9.07994 11.504 8.94394 11.648C8.80794 11.784 8.63594 11.852 8.42794 11.852C8.21994 11.852 8.04794 11.784 7.91194 11.648C7.77594 11.504 7.70794 11.328 7.70794 11.12V10.208ZM8.36794 14C8.13594 14 7.95594 13.94 7.82794 13.82C7.70794 13.692 7.64794 13.512 7.64794 13.28V13.076C7.64794 12.844 7.70794 12.668 7.82794 12.548C7.95594 12.42 8.13594 12.356 8.36794 12.356H8.52394C8.75594 12.356 8.93194 12.42 9.05194 12.548C9.17994 12.668 9.24394 12.844 9.24394 13.076V13.28C9.24394 13.512 9.17994 13.692 9.05194 13.82C8.93194 13.94 8.75594 14 8.52394 14H8.36794Z" fill="#FBFCFE"/>
</svg>
