<svg width="20" height="20" viewBox="0 0 20 20" fill="none" xmlns="http://www.w3.org/2000/svg">
<path fill-rule="evenodd" clip-rule="evenodd" d="M19.884 5.87638C19.8084 4.27424 19.4433 2.85507 18.2726 1.68582C17.1063 0.516568 15.6907 0.150619 14.0925 0.070289C12.4455 -0.0234297 7.50868 -0.0234297 5.8616 0.070289C4.26794 0.146156 2.85234 0.512105 1.68158 1.68136C0.510817 2.85061 0.15024 4.26978 0.0701122 5.87192C-0.0233707 7.52315 -0.0233707 12.4724 0.0701122 14.1236C0.145789 15.7258 0.510817 17.1449 1.68158 18.3142C2.85234 19.4834 4.26349 19.8494 5.8616 19.9297C7.50868 20.0234 12.4455 20.0234 14.0925 19.9297C15.6907 19.8538 17.1063 19.4879 18.2726 18.3142C19.4389 17.1449 19.8039 15.7258 19.884 14.1236C19.9775 12.4724 19.9775 7.52761 19.884 5.87638ZM15.3034 5.85854C15.9622 5.85854 16.4964 5.32747 16.4964 4.66251C16.4964 4.00202 15.9622 3.46648 15.3034 3.46648C14.6445 3.46648 14.1104 4.00202 14.1104 4.66251C14.1104 5.323 14.6401 5.85854 15.3034 5.85854ZM9.97935 4.87236C7.14816 4.87236 4.8645 7.16177 4.8645 10.0001C4.8645 12.8384 7.14816 15.1279 9.97935 15.1279C12.8105 15.1279 15.0942 12.8384 15.0942 10.0001C15.0942 7.16177 12.8105 4.87236 9.97935 4.87236ZM9.97937 13.3336C8.14978 13.3336 6.65405 11.8386 6.65405 9.99989C6.65405 8.16122 8.14533 6.66618 9.97937 6.66618C11.8134 6.66618 13.3047 8.16122 13.3047 9.99989C13.3047 11.8386 11.809 13.3336 9.97937 13.3336ZM15.8598 17.7966C16.7368 17.444 17.409 16.7701 17.7562 15.8954C18.2029 14.77 18.1781 12.3084 18.1619 10.7126C18.1593 10.4479 18.1568 10.2071 18.1568 10.0001C18.1568 9.79303 18.1593 9.5522 18.1619 9.28758C18.1781 7.69269 18.2029 5.2339 17.7562 4.10472C17.4045 3.22555 16.7323 2.55167 15.8598 2.20357C14.7337 1.75815 12.2664 1.78187 10.6751 1.79718C10.417 1.79966 10.1819 1.80192 9.97931 1.80192C9.7728 1.80192 9.53257 1.79948 9.26862 1.7968C7.67774 1.78064 5.22513 1.75573 4.09879 2.20357C3.22183 2.55613 2.54964 3.23001 2.20242 4.10472C1.75812 5.23364 1.78179 7.70724 1.79705 9.30251C1.79953 9.56131 1.80178 9.79699 1.80178 10.0001C1.80178 10.2071 1.79935 10.4479 1.79667 10.7125C1.78055 12.3074 1.7557 14.7662 2.20242 15.8954C2.5541 16.7746 3.22628 17.4485 4.09879 17.7966C5.22487 18.242 7.69224 18.2183 9.2835 18.203C9.54165 18.2005 9.77674 18.1982 9.97931 18.1982C10.1858 18.1982 10.4261 18.2007 10.69 18.2033C12.2809 18.2195 14.7335 18.2444 15.8598 17.7966Z" fill="#5D6494"/>
</svg>
