<svg width="25" height="25" viewBox="0 0 25 25" fill="none" xmlns="http://www.w3.org/2000/svg">
<path d="M8.15961 7.02609C7.40149 7.07828 6.51266 6.97391 5.62382 7.13046C2.77434 7.67839 0.761396 10.3659 1.02282 13.2881C1.2581 16.1061 3.71545 18.4282 6.5388 18.4804C7.76748 18.5065 9.0223 18.5065 10.251 18.4804C10.983 18.4804 11.4274 18.0891 11.4535 17.4628C11.4797 16.8366 11.0091 16.3931 10.251 16.3931C9.12686 16.3931 7.97661 16.3931 6.8525 16.3931C4.73499 16.367 3.11418 14.8015 3.08804 12.7663C3.08804 10.705 4.73499 9.11344 6.8525 9.08735C7.95047 9.08735 9.07458 9.08735 10.1725 9.08735C10.9568 9.08735 11.4012 8.69597 11.4274 8.06977C11.4274 7.41747 10.9568 7 10.1464 7C9.57128 7.02609 8.94387 7.02609 8.15961 7.02609Z" fill="#A1A5FD"/>
<path d="M16.7874 18.5C17.5455 18.4478 18.4345 18.5522 19.3234 18.3956C22.2255 17.8473 24.2386 15.1579 23.9771 12.2075C23.7157 9.33539 21.2581 7.06382 18.3822 7.0116C17.1795 6.98549 15.9769 7.0116 14.8004 7.0116C14.016 7.0116 13.5716 7.40325 13.5454 8.02989C13.5454 8.68264 14.016 9.07429 14.8265 9.1004C15.9246 9.1004 17.0488 9.1004 18.1469 9.1004C20.2385 9.12651 21.8856 10.7192 21.8856 12.7297C21.8856 14.7663 20.2646 16.3851 18.173 16.3851C17.0488 16.3851 15.8984 16.3851 14.7742 16.3851C13.9899 16.3851 13.5454 16.7767 13.5454 17.4295C13.5454 18.0561 14.016 18.4739 14.7742 18.4739C15.3755 18.5 16.003 18.5 16.7874 18.5Z" fill="#A1A5FD"/>
<path d="M12.4402 11.83C10.9471 11.83 9.4803 11.83 7.98727 11.83C7.20146 11.83 6.75617 12.222 6.72998 12.8493C6.72998 13.4766 7.17527 13.8948 7.93488 13.9209C10.9733 13.9209 13.9856 13.9209 17.024 13.9209C17.7837 13.9209 18.2551 13.5027 18.2289 12.8493C18.2289 12.222 17.7575 11.83 16.9717 11.83C15.5048 11.83 13.9856 11.83 12.4402 11.83Z" fill="#A1A5FD"/>
</svg>
