<svg width="17" height="20" viewBox="0 0 17 20" fill="none" xmlns="http://www.w3.org/2000/svg">
<mask id="mask0_245_476" style="mask-type:luminance" maskUnits="userSpaceOnUse" x="0" y="0" width="17" height="20">
<path fill-rule="evenodd" clip-rule="evenodd" d="M14.8582 9.9846C16.2001 10.3562 16.5304 10.8104 16.5304 12.1523V18.0362C16.5304 19.2956 15.8904 19.9562 14.6311 19.9562H2.7188C1.48009 19.9562 0.840088 19.3162 0.840088 18.0775V11.9872C0.840088 10.8104 1.27364 10.2736 2.4917 10.0052C2.4917 9.68868 2.48941 9.37213 2.48711 9.05557C2.48253 8.42245 2.47794 7.78933 2.4917 7.15621C2.53299 5.09169 3.3588 3.37815 5.0517 2.16008C7.01299 0.756211 9.16009 0.54976 11.3485 1.58202C13.5369 2.63492 14.693 4.43105 14.8582 6.84653C14.8995 7.55001 14.8856 8.25349 14.8718 8.95081V8.95082L14.8718 8.9509C14.865 9.29723 14.8582 9.64205 14.8582 9.9846ZM13.2319 8.99986V8.99985V8.99984C13.2364 8.33704 13.2409 7.68923 13.2272 7.03234C13.1859 4.82331 11.5756 3.02718 9.32525 2.65556C7.28138 2.3046 5.15493 3.5846 4.43235 5.60782C4.09112 6.56325 4.11987 7.54575 4.14871 8.53146V8.53146C4.16349 9.03671 4.17829 9.54281 4.14331 10.0465C7.1988 10.0259 10.1923 10.0259 13.2272 10.0259C13.2272 9.67789 13.2295 9.33694 13.2319 8.99986ZM9.30255 16.5607C9.3005 16.7198 9.29842 16.8814 9.28396 17.0452C8.87106 17.0452 8.49944 17.0452 8.04525 17.0246V16.4259C8.06589 15.9923 8.04525 15.6207 7.69428 15.2698C7.28138 14.8569 7.3846 14.1343 7.81815 13.7007C8.23106 13.2878 8.87106 13.2259 9.36654 13.5562C9.86202 13.9072 10.1717 14.671 9.7588 15.0839C9.31567 15.5429 9.30929 16.0382 9.30255 16.5607Z" fill="white"/>
</mask>
<g mask="url(#mask0_245_476)">
<rect x="-3" y="-2" width="24" height="12" fill="#C2BFC6"/>
<rect x="-3" y="10" width="24" height="11.04" fill="#C2BFC6"/>
</g>
</svg>
