<svg width="48" height="20" viewBox="0 0 48 20" fill="none" xmlns="http://www.w3.org/2000/svg">
<path fill-rule="evenodd" clip-rule="evenodd" d="M47.9999 10.32C47.9999 6.90667 46.3466 4.21333 43.1866 4.21333C40.0133 4.21333 38.0933 6.90667 38.0933 10.2933C38.0933 14.3067 40.3599 16.3333 43.6133 16.3333C45.1999 16.3333 46.3999 15.9733 47.3066 15.4667V12.8C46.3999 13.2533 45.3599 13.5333 44.0399 13.5333C42.7466 13.5333 41.5999 13.08 41.4533 11.5067H47.9733C47.9733 11.3333 47.9999 10.64 47.9999 10.32ZM41.4133 9.05333C41.4133 7.54667 42.3333 6.92 43.1733 6.92C43.9866 6.92 44.8533 7.54667 44.8533 9.05333H41.4133Z" fill="#32325D"/>
<path fill-rule="evenodd" clip-rule="evenodd" d="M32.9466 4.21333C31.6399 4.21333 30.7999 4.82667 30.3332 5.25333L30.1599 4.42667H27.2266V19.9733L30.5599 19.2667L30.5732 15.4933C31.0532 15.84 31.7599 16.3333 32.9332 16.3333C35.3199 16.3333 37.4932 14.4133 37.4932 10.1867C37.4799 6.32 35.2799 4.21333 32.9466 4.21333ZM32.1466 13.4C31.3599 13.4 30.8932 13.12 30.5732 12.7733L30.5599 7.82667C30.9066 7.44 31.3866 7.17333 32.1466 7.17333C33.3599 7.17333 34.1999 8.53333 34.1999 10.28C34.1999 12.0667 33.3732 13.4 32.1466 13.4Z" fill="#32325D"/>
<path fill-rule="evenodd" clip-rule="evenodd" d="M22.6401 3.42667L25.9868 2.70667V0L22.6401 0.706667V3.42667Z" fill="#32325D"/>
<rect x="22.6401" y="4.44" width="3.34667" height="11.6667" fill="#32325D"/>
<path fill-rule="evenodd" clip-rule="evenodd" d="M19.0533 5.42666L18.84 4.44H15.96V16.1067H19.2933V8.2C20.08 7.17333 21.4133 7.36 21.8266 7.50666V4.44C21.4 4.28 19.84 3.98666 19.0533 5.42666Z" fill="#32325D"/>
<path fill-rule="evenodd" clip-rule="evenodd" d="M12.3868 1.54667L9.13345 2.24L9.12012 12.92C9.12012 14.8933 10.6001 16.3467 12.5735 16.3467C13.6668 16.3467 14.4668 16.1467 14.9068 15.9067V13.2C14.4801 13.3733 12.3735 13.9867 12.3735 12.0133V7.28H14.9068V4.44H12.3735L12.3868 1.54667Z" fill="#32325D"/>
<path fill-rule="evenodd" clip-rule="evenodd" d="M3.37333 7.82667C3.37333 7.30667 3.8 7.10667 4.50667 7.10667C5.52 7.10667 6.8 7.41333 7.81333 7.96V4.82667C6.70667 4.38667 5.61333 4.21333 4.50667 4.21333C1.8 4.21333 0 5.62667 0 7.98667C0 11.6667 5.06667 11.08 5.06667 12.6667C5.06667 13.28 4.53333 13.48 3.78667 13.48C2.68 13.48 1.26667 13.0267 0.146667 12.4133V15.5867C1.38667 16.12 2.64 16.3467 3.78667 16.3467C6.56 16.3467 8.46667 14.9733 8.46667 12.5867C8.45333 8.61333 3.37333 9.32 3.37333 7.82667Z" fill="#32325D"/>
</svg>
