<svg width="25" height="25" viewBox="0 0 25 25" fill="none" xmlns="http://www.w3.org/2000/svg">
<path fill-rule="evenodd" clip-rule="evenodd" d="M7.1779 18.1386C5.07513 16.695 3.47071 14.8304 2.04861 12.7492C2.41326 12.2439 2.7779 11.7386 3.16685 11.2334C4.44309 9.6093 5.87734 8.14164 7.67624 7.08299C11.116 5.06194 14.5801 5.01382 18.0807 6.93863C18.2751 7.0469 18.3845 7.0469 18.5425 6.89051C19.0166 6.39727 19.5149 5.91607 20.0011 5.4469C20.4751 4.97773 21.0707 4.95367 21.4718 5.36269C21.8729 5.77171 21.8365 6.33712 21.3746 6.8063L11.9912 16.0935C11.2316 16.8453 10.4751 17.597 9.71863 18.3488L9.71827 18.3491C8.96163 19.101 8.20498 19.8529 7.4453 20.6048C6.84972 21.1943 5.95027 20.9898 5.7558 20.2078C5.65856 19.8469 5.78011 19.5341 6.04751 19.2815C6.32862 18.9745 6.62519 18.6828 6.93722 18.3759L6.93723 18.3758L6.9374 18.3757C7.01657 18.2978 7.09673 18.219 7.1779 18.1386ZM15.1757 10.1266C13.8994 9.01983 11.6751 9.17622 10.3867 10.4875C8.98895 11.9191 9.12265 14.0364 10.095 15.1431C11.7845 13.483 13.4739 11.8109 15.1756 10.1267L15.1757 10.1266ZM23.9514 12.8093C23.3193 11.7747 21.6663 9.75367 21.0707 9.29652C19.3326 11.0289 17.5914 12.7582 15.8502 14.4876C14.109 16.2169 12.3679 17.9462 10.6298 19.6785C10.6416 19.6785 10.6647 19.6869 10.6923 19.697C10.7218 19.7077 10.7564 19.7204 10.7878 19.7266C13.1702 20.2439 15.4309 19.9552 17.5945 18.8484C19.3812 17.9341 20.8519 16.6349 22.1282 15.1311C22.5572 14.6264 22.9592 14.1003 23.3559 13.5814C23.5548 13.321 23.7524 13.0625 23.9514 12.8093Z" fill="#ECE9F1"/>
<mask id="mask0_0_52252" style="mask-type:luminance" maskUnits="userSpaceOnUse" x="2" y="5" width="22" height="16">
<path fill-rule="evenodd" clip-rule="evenodd" d="M7.1779 18.1386C5.07513 16.695 3.47071 14.8304 2.04861 12.7492C2.41326 12.2439 2.7779 11.7386 3.16685 11.2334C4.44309 9.6093 5.87734 8.14164 7.67624 7.08299C11.116 5.06194 14.5801 5.01382 18.0807 6.93863C18.2751 7.0469 18.3845 7.0469 18.5425 6.89051C19.0166 6.39727 19.5149 5.91607 20.0011 5.4469C20.4751 4.97773 21.0707 4.95367 21.4718 5.36269C21.8729 5.77171 21.8365 6.33712 21.3746 6.8063L11.9912 16.0935C11.2316 16.8453 10.4751 17.597 9.71863 18.3488L9.71827 18.3491C8.96163 19.101 8.20498 19.8529 7.4453 20.6048C6.84972 21.1943 5.95027 20.9898 5.7558 20.2078C5.65856 19.8469 5.78011 19.5341 6.04751 19.2815C6.32862 18.9745 6.62519 18.6828 6.93722 18.3759L6.93723 18.3758L6.9374 18.3757C7.01657 18.2978 7.09673 18.219 7.1779 18.1386ZM15.1757 10.1266C13.8994 9.01983 11.6751 9.17622 10.3867 10.4875C8.98895 11.9191 9.12265 14.0364 10.095 15.1431C11.7845 13.483 13.4739 11.8109 15.1756 10.1267L15.1757 10.1266ZM23.9514 12.8093C23.3193 11.7747 21.6663 9.75367 21.0707 9.29652C19.3326 11.0289 17.5914 12.7582 15.8502 14.4876C14.109 16.2169 12.3679 17.9462 10.6298 19.6785C10.6416 19.6785 10.6647 19.6869 10.6923 19.697C10.7218 19.7077 10.7564 19.7204 10.7878 19.7266C13.1702 20.2439 15.4309 19.9552 17.5945 18.8484C19.3812 17.9341 20.8519 16.6349 22.1282 15.1311C22.5572 14.6264 22.9592 14.1003 23.3559 13.5814C23.5548 13.321 23.7524 13.0625 23.9514 12.8093Z" fill="white"/>
</mask>
<g mask="url(#mask0_0_52252)">
<rect y="0.265625" width="25" height="25" fill="#ECE9F1"/>
</g>
<rect x="5.41032" y="19.8926" width="21.7" height="2" rx="1" transform="rotate(-44.5 5.41032 19.8926)" fill="#D7D4DC"/>
</svg>
