<svg width="30" height="21" viewBox="0 0 30 21" fill="none" xmlns="http://www.w3.org/2000/svg">
<rect width="30" height="21" rx="3" fill="#000008"/>
<path d="M17.2042 6.56901H12.7539V14.431H17.2042V6.56901Z" fill="#FF5F00"/>
<path d="M13.0365 10.5C13.0358 9.74283 13.2103 8.99543 13.5469 8.31438C13.8834 7.63333 14.3732 7.03647 14.9791 6.569C14.2288 5.98923 13.3277 5.62868 12.3788 5.52856C11.4299 5.42844 10.4715 5.59278 9.61317 6.00282C8.75482 6.41285 8.03112 7.05203 7.52481 7.84729C7.0185 8.64256 6.75 9.56181 6.75 10.5C6.75 11.4382 7.0185 12.3574 7.52481 13.1527C8.03112 13.948 8.75482 14.5871 9.61317 14.9972C10.4715 15.4072 11.4299 15.5716 12.3788 15.4714C13.3277 15.3713 14.2288 15.0108 14.9791 14.431C14.3732 13.9635 13.8834 13.3667 13.5469 12.6856C13.2103 12.0046 13.0358 11.2572 13.0365 10.5Z" fill="#EB001B"/>
<path d="M23.2079 10.5C23.2079 11.4382 22.9394 12.3574 22.4331 13.1527C21.9269 13.948 21.2032 14.5871 20.3448 14.9972C19.4865 15.4072 18.5281 15.5716 17.5793 15.4714C16.6304 15.3713 15.7293 15.0108 14.9791 14.431C15.5844 13.9631 16.0738 13.3661 16.4103 12.6852C16.7468 12.0042 16.9216 11.257 16.9216 10.5C16.9216 9.74295 16.7468 8.99579 16.4103 8.31484C16.0738 7.63389 15.5844 7.03695 14.9791 6.569C15.7293 5.98923 16.6304 5.62868 17.5793 5.52856C18.5281 5.42844 19.4865 5.59279 20.3448 6.00283C21.2032 6.41287 21.9269 7.05205 22.4331 7.84731C22.9394 8.64257 23.2079 9.56183 23.2079 10.5Z" fill="#F79E1B"/>
<path d="M22.7226 13.5983V13.4373H22.7886V13.4045H22.6205V13.4373H22.6866V13.5983H22.7226ZM23.049 13.5983V13.4042H22.9975L22.9382 13.5377L22.8789 13.4042H22.8274V13.5983H22.8638V13.4519L22.9194 13.5781H22.9571L23.0127 13.4516V13.5983H23.049Z" fill="#F79E1B"/>
</svg>
