<svg width="30" height="30" viewBox="0 0 30 30" fill="none" xmlns="http://www.w3.org/2000/svg">
<circle cx="15" cy="15" r="15" fill="#ECE9F1"/>
<path d="M12.8288 20.4643C12.3211 20.0383 12.2549 19.2814 12.6809 18.7737L16.2805 14.4838C16.7065 13.9761 17.4634 13.9099 17.9711 14.3359C18.4788 14.7619 18.545 15.5188 18.119 16.0265L14.5194 20.3164C14.0934 20.8241 13.3365 20.8903 12.8288 20.4643Z" fill="#C2BFC6"/>
<path d="M17.9709 16.0607C17.4632 16.4867 16.7063 16.4205 16.2803 15.9128L12.6807 11.623C12.2547 11.1153 12.3209 10.3584 12.8286 9.93239C13.3363 9.50638 14.0932 9.5726 14.5192 10.0803L18.1188 14.3701C18.5448 14.8778 18.4786 15.6347 17.9709 16.0607Z" fill="#C2BFC6"/>
</svg>
