<svg width="25" height="25" viewBox="0 0 25 25" fill="none" xmlns="http://www.w3.org/2000/svg">
<path fill-rule="evenodd" clip-rule="evenodd" d="M2 0C0.895431 0 0 0.89543 0 2V23C0 24.1046 0.89543 25 2 25H23C24.1046 25 25 24.1046 25 23V7L18 0H2Z" fill="#E6E6FF"/>
<path fill-rule="evenodd" clip-rule="evenodd" d="M20 1C20 0.447715 19.5523 0 19 0H18V5V6C18 6.55228 18.4477 7 19 7H25V6L20 1Z" fill="#A1A5FD"/>
<path d="M20 5H24C24.5523 5 25 5.44772 25 6V7H20V5Z" fill="#A1A5FD"/>
<path fill-rule="evenodd" clip-rule="evenodd" d="M19.668 0.270508L24.7552 5.34247L22 6.00018L19 3.00018L19.668 0.270508Z" fill="#A1A5FD"/>
</svg>
