<svg width="20" height="20" viewBox="0 0 20 20" fill="none" xmlns="http://www.w3.org/2000/svg">
<circle cx="10.3998" cy="9.9999" r="7.6" fill="#A1A5FD"/>
<mask id="mask0_210_203" style="mask-type:luminance" maskUnits="userSpaceOnUse" x="0" y="0" width="20" height="20">
<path fill-rule="evenodd" clip-rule="evenodd" d="M10 20C15.5228 20 20 15.5228 20 10C20 4.47715 15.5228 0 10 0C4.47715 0 0 4.47715 0 10C0 15.5228 4.47715 20 10 20ZM9 6C9 5.44772 9.44772 5 10 5C10.5523 5 11 5.44772 11 6V9H14C14.5523 9 15 9.44772 15 10C15 10.5523 14.5523 11 14 11H11V11.1582V14C11 14.5523 10.5523 15 10 15C9.44772 15 9 14.5523 9 14V11.1582V11H6C5.44772 11 5 10.5523 5 10C5 9.44772 5.44772 9 6 9H9V6Z" fill="white"/>
</mask>
<g mask="url(#mask0_210_203)">
<rect x="-55" y="-59" width="140" height="140" fill="#E6E6FF"/>
</g>
</svg>
