<svg width="30" height="30" viewBox="0 0 30 30" fill="none" xmlns="http://www.w3.org/2000/svg">
<circle cx="15" cy="15" r="15" transform="matrix(-1 0 0 1 30 0)" fill="#3A416F"/>
<path d="M17.1712 20.4643C17.6789 20.0383 17.7451 19.2814 17.3191 18.7737L13.7195 14.4838C13.2935 13.9761 12.5366 13.9099 12.0289 14.3359C11.5212 14.7619 11.455 15.5188 11.881 16.0265L15.4806 20.3164C15.9066 20.8241 16.6635 20.8903 17.1712 20.4643Z" fill="white"/>
<path d="M12.0291 16.0607C12.5368 16.4867 13.2937 16.4205 13.7197 15.9128L17.3193 11.623C17.7453 11.1153 17.6791 10.3584 17.1714 9.93239C16.6637 9.50638 15.9068 9.5726 15.4808 10.0803L11.8812 14.3701C11.4552 14.8778 11.5214 15.6347 12.0291 16.0607Z" fill="white"/>
</svg>
