<svg width="30" height="30" viewBox="0 0 30 30" fill="none" xmlns="http://www.w3.org/2000/svg">
<circle cx="15" cy="15" r="15" transform="matrix(-1 0 0 1 30 0)" fill="#ECE9F1"/>
<path d="M17.1711 20.4643C17.6788 20.0383 17.745 19.2814 17.319 18.7737L13.7194 14.4838C13.2934 13.9761 12.5365 13.9099 12.0288 14.3359C11.5211 14.7619 11.4549 15.5188 11.8809 16.0265L15.4805 20.3164C15.9065 20.8241 16.6634 20.8903 17.1711 20.4643Z" fill="#C2BFC6"/>
<path d="M12.029 16.0607C12.5367 16.4867 13.2936 16.4205 13.7196 15.9128L17.3192 11.623C17.7452 11.1153 17.679 10.3584 17.1713 9.93239C16.6636 9.50638 15.9067 9.5726 15.4807 10.0803L11.8811 14.3701C11.4551 14.8778 11.5213 15.6347 12.029 16.0607Z" fill="#C2BFC6"/>
</svg>
