<svg width="18" height="18" viewBox="0 0 18 18" fill="none" xmlns="http://www.w3.org/2000/svg">
<g clip-path="url(#clip0_2068_1972)">
<path d="M9.05155 5.9221C10.3388 5.9221 11.3825 4.87854 11.3825 3.59124C11.3825 2.30393 10.3388 1.26038 9.05155 1.26038C7.76426 1.26038 6.7207 2.30393 6.7207 3.59124C6.7207 4.87854 7.76426 5.9221 9.05155 5.9221Z" stroke="#A1A5FD" stroke-width="2"/>
<path d="M3.40407 5.91508C3.6189 5.09486 4.36004 4.52283 5.20793 4.52283H12.896C13.7439 4.52283 14.4851 5.09486 14.6999 5.91508L17.1418 15.2385C17.4513 16.4204 16.5597 17.5756 15.3379 17.5756H2.76607C1.54434 17.5756 0.652687 16.4204 0.962221 15.2385L3.40407 5.91508Z" fill="#E6E6FF"/>
<path d="M6.04792 13.5C5.93872 13.5 5.84842 13.4643 5.77702 13.3929C5.70563 13.3173 5.66992 13.2249 5.66992 13.1157V9.22231C5.66992 9.11314 5.70563 9.02278 5.77702 8.95141C5.84842 8.87581 5.93872 8.83801 6.04792 8.83801C6.15712 8.83801 6.24743 8.87581 6.31882 8.95141C6.39022 9.02278 6.42592 9.11314 6.42592 9.22231V13.1157C6.42592 13.2249 6.39022 13.3173 6.31882 13.3929C6.24743 13.4643 6.15712 13.5 6.04792 13.5ZM8.05132 10.1295C8.14792 10.1295 8.23193 10.1694 8.30332 10.2492C8.37472 10.329 8.41042 10.4067 8.41042 10.4823C8.41042 10.5831 8.36002 10.6776 8.25922 10.7658L6.36292 12.5109L6.33142 11.6415L7.77412 10.2492C7.85392 10.1694 7.94632 10.1295 8.05132 10.1295ZM8.14582 13.4937C8.03662 13.4937 7.94422 13.4517 7.86862 13.3677L6.70312 12.1329L7.27642 11.6037L8.41042 12.8385C8.49023 12.9225 8.53012 13.017 8.53012 13.122C8.53012 13.2312 8.48602 13.3215 8.39782 13.3929C8.31383 13.4601 8.22982 13.4937 8.14582 13.4937ZM10.5923 10.0665C10.7687 10.0665 10.9304 10.0938 11.0774 10.1484C11.2245 10.203 11.3505 10.2723 11.4554 10.3563C11.5647 10.4403 11.6486 10.5264 11.7074 10.6146C11.7704 10.6986 11.8019 10.77 11.8019 10.8288L11.6381 10.9107V10.4508C11.6381 10.3416 11.6738 10.2513 11.7452 10.1799C11.8167 10.1043 11.9069 10.0665 12.0161 10.0665C12.1254 10.0665 12.2156 10.1022 12.287 10.1736C12.3585 10.245 12.3941 10.3374 12.3941 10.4508V13.2543C12.3941 13.6197 12.3144 13.9116 12.1547 14.13C11.9994 14.3526 11.7935 14.5122 11.5373 14.6088C11.2812 14.7096 11.006 14.76 10.712 14.76C10.628 14.76 10.5189 14.7495 10.3844 14.7285C10.25 14.7075 10.122 14.6823 10.0001 14.6529C9.87833 14.6235 9.7859 14.5962 9.7229 14.571C9.5969 14.5164 9.5087 14.4471 9.4583 14.3631C9.41213 14.2833 9.40376 14.1972 9.4331 14.1048C9.4709 13.983 9.53183 13.899 9.6158 13.8528C9.69986 13.8108 9.78806 13.8066 9.8804 13.8402C9.92243 13.8528 9.99173 13.878 10.0883 13.9158C10.185 13.9536 10.2899 13.9872 10.4033 14.0166C10.5209 14.0502 10.6238 14.067 10.712 14.067C11.027 14.067 11.2601 14.004 11.4113 13.878C11.5625 13.752 11.6381 13.5777 11.6381 13.3551V12.807L11.7137 12.8637C11.7137 12.9183 11.6844 12.9855 11.6255 13.0653C11.571 13.1409 11.4932 13.2165 11.3924 13.2921C11.2958 13.3677 11.1804 13.4328 11.0459 13.4874C10.9115 13.5378 10.7687 13.563 10.6175 13.563C10.3193 13.563 10.0505 13.4895 9.8111 13.3425C9.5717 13.1913 9.3827 12.9855 9.2441 12.7251C9.1055 12.4605 9.0362 12.1581 9.0362 11.8179C9.0362 11.4735 9.1055 11.1711 9.2441 10.9107C9.3827 10.6461 9.56963 10.4403 9.8048 10.2933C10.0401 10.1421 10.3025 10.0665 10.5923 10.0665ZM10.712 10.7595C10.523 10.7595 10.3571 10.8057 10.2143 10.8981C10.0716 10.9905 9.96023 11.1165 9.8804 11.2761C9.80066 11.4357 9.7607 11.6163 9.7607 11.8179C9.7607 12.0153 9.80066 12.1938 9.8804 12.3534C9.96023 12.513 10.0716 12.639 10.2143 12.7314C10.3571 12.8238 10.523 12.87 10.712 12.87C10.9052 12.87 11.0733 12.8238 11.216 12.7314C11.3588 12.639 11.4702 12.513 11.5499 12.3534C11.6297 12.1938 11.6696 12.0153 11.6696 11.8179C11.6696 11.6163 11.6297 11.4357 11.5499 11.2761C11.4702 11.1165 11.3588 10.9905 11.216 10.8981C11.0733 10.8057 10.9052 10.7595 10.712 10.7595Z" fill="#A1A5FD"/>
</g>
<defs>
<clipPath id="clip0_2068_1972">
<rect width="18" height="18" fill="white"/>
</clipPath>
</defs>
</svg>
