<svg width="18" height="18" viewBox="0 0 18 18" fill="none" xmlns="http://www.w3.org/2000/svg">
<path d="M12.0703 6.23979V1.72569C12.0703 1.02198 12.8954 0.642034 13.43 1.09954L15.9125 3.22381C16.2821 3.54015 16.2988 4.10626 15.9482 4.44369L13.4657 6.83351C12.9423 7.33742 12.0703 6.96642 12.0703 6.23979Z" fill="#A1A5FD"/>
<path d="M1.81055 9.0001C2.01654 6.52852 3.66452 3.80841 6.92724 3.80841C10.6697 3.80841 13.384 3.80841 14.3763 3.80841" stroke="#A1A5FD" stroke-width="2.25" stroke-linecap="round"/>
<path d="M5.92928 11.7612V16.2753C5.92928 16.9789 5.10424 17.3589 4.5696 16.9014L2.08713 14.7772C1.71745 14.4608 1.70087 13.8947 2.05139 13.5573L4.53386 11.1674C5.05731 10.6635 5.92928 11.0345 5.92928 11.7612Z" fill="#E6E6FF"/>
<path d="M16.1869 9.00079C15.9809 11.4724 14.3329 14.1925 11.0702 14.1925C7.32771 14.1925 4.61342 14.1925 3.62109 14.1925" stroke="#E6E6FF" stroke-width="2.25" stroke-linecap="round"/>
</svg>
