<svg width="20" height="20" viewBox="0 0 20 20" fill="none" xmlns="http://www.w3.org/2000/svg">
<path d="M13.7578 0C14.5533 0.000119943 15.3164 0.316404 15.8789 0.878906L19.1211 4.12109C19.6836 4.6836 19.9999 5.4467 20 6.24219V17C20 18.6569 18.6569 20 17 20H3C1.34315 20 0 18.6569 0 17V3C0 1.34315 1.34315 0 3 0H13.7578ZM10 12C8.34315 12 7 13.3431 7 15C7 16.6569 8.34315 18 10 18C11.6569 18 13 16.6569 13 15C13 13.3431 11.6569 12 10 12ZM6 3C5.44772 3 5 3.44772 5 4V7.5C5 8.05228 5.44772 8.5 6 8.5H14C14.5523 8.5 15 8.05228 15 7.5V4C15 3.44772 14.5523 3 14 3H6Z" fill="white"/>
</svg>
