<svg width="22" height="22" viewBox="0 0 22 22" fill="none" xmlns="http://www.w3.org/2000/svg">
<circle cx="11" cy="11" r="9.625" fill="url(#paint0_radial_2200_1576)"/>
<path d="M8.34527 12.4583C8.92536 12.4583 9.39562 11.894 9.39562 11.1979C9.39562 10.5018 8.92536 9.9375 8.34527 9.9375C7.76518 9.9375 7.29492 10.5018 7.29492 11.1979C7.29492 11.894 7.76518 12.4583 8.34527 12.4583Z" fill="#772806"/>
<path d="M13.3873 12.4583C13.9674 12.4583 14.4376 11.894 14.4376 11.1979C14.4376 10.5018 13.9674 9.9375 13.3873 9.9375C12.8072 9.9375 12.3369 10.5018 12.3369 11.1979C12.3369 11.894 12.8072 12.4583 13.3873 12.4583Z" fill="#772806"/>
<path d="M2.9887 10.8934C3.1517 10.5356 3.6601 10.5355 3.823 10.8934L5.4777 14.5287C5.69 14.8873 5.8125 15.3055 5.8125 15.7524C5.8125 17.0813 4.7351 18.1586 3.4063 18.1587C2.0773 18.1587 1 17.0813 1 15.7524C1 15.3131 1.118 14.9015 1.3236 14.5471L2.9887 10.8934Z" fill="#48CFEA"/>
<path d="M11.0003 17.5C12.7722 17.5 14.2087 16.8844 14.2087 16.125C14.2087 15.3656 12.7722 14.75 11.0003 14.75C9.22841 14.75 7.79199 15.3656 7.79199 16.125C7.79199 16.8844 9.22841 17.5 11.0003 17.5Z" fill="#772806"/>
<path fill-rule="evenodd" clip-rule="evenodd" d="M9.25 15.6665C8.6977 15.6665 8.25 16.1142 8.25 16.6665V18.7991C8.25 18.7991 8.6642 20.5087 10.9716 20.6881C10.9716 20.6881 13.3933 20.6231 13.5388 18.7862L13.5685 16.6806C13.5764 16.1229 13.1264 15.6665 12.5686 15.6665H9.25Z" fill="url(#paint1_linear_2200_1576)"/>
<path fill-rule="evenodd" clip-rule="evenodd" d="M13.5176 5.85804C13.5176 5.85804 12.7395 5.58744 13.2095 6.23814C13.6795 6.88884 15.4493 8.38784 17.225 8.14554C17.225 8.14554 17.9553 7.48904 16.9732 7.48904C15.9911 7.48904 13.5176 5.85804 13.5176 5.85804Z" fill="#772806"/>
<path fill-rule="evenodd" clip-rule="evenodd" d="M7.88453 5.85804C7.88453 5.85804 8.66253 5.58744 8.19263 6.23814C7.72263 6.88884 5.95283 8.38784 4.17713 8.14554C4.17713 8.14554 3.44683 7.48904 4.42893 7.48904C5.41103 7.48904 7.88453 5.85804 7.88453 5.85804Z" fill="#772806"/>
<defs>
<radialGradient id="paint0_radial_2200_1576" cx="0" cy="0" r="1" gradientUnits="userSpaceOnUse" gradientTransform="translate(11 5.2276) rotate(90) scale(15.3974)">
<stop stop-color="#F8911A"/>
<stop offset="1" stop-color="#EE580B"/>
</radialGradient>
<linearGradient id="paint1_linear_2200_1576" x1="10.6089" y1="15.6665" x2="10.6089" y2="16.2456" gradientUnits="userSpaceOnUse">
<stop stop-color="#400D06"/>
<stop offset="1" stop-color="#FC87C6"/>
</linearGradient>
</defs>
</svg>
