<svg width="22" height="22" viewBox="0 0 22 22" fill="none" xmlns="http://www.w3.org/2000/svg">
<circle cx="11" cy="11" r="9.625" fill="url(#paint0_radial_2198_1672)"/>
<path fill-rule="evenodd" clip-rule="evenodd" d="M4.2627 12.9253C4.2627 12.9253 11.2126 15.261 18.0469 12.9253C18.0469 12.9253 17.1878 18.5627 12.161 19.119C12.161 19.119 7.33362 19.4794 6.0124 17.2119C4.2627 15.2751 4.2627 12.9253 4.2627 12.9253Z" fill="#043506"/>
<path d="M8.21191 7.63086C9.06455 7.63103 9.75586 8.61883 9.75586 9.83691C9.75577 10.4482 9.58103 11.001 9.2998 11.4004C9.21915 10.7648 8.76408 10.2774 8.21191 10.2773C7.65994 10.2773 7.20298 10.7642 7.12207 11.3994C6.84141 11.0001 6.66806 10.4475 6.66797 9.83691C6.66797 8.61872 7.35918 7.63086 8.21191 7.63086Z" fill="#043506"/>
<path d="M13.5068 7.63135C14.3596 7.63135 15.0518 8.61921 15.0518 9.8374C15.0517 10.4483 14.8766 11.0005 14.5957 11.3999C14.5147 10.7649 14.0587 10.2778 13.5068 10.2778C12.955 10.278 12.499 10.7649 12.418 11.3999C12.1373 11.0005 11.9629 10.448 11.9629 9.8374C11.9629 8.61944 12.6543 7.63171 13.5068 7.63135Z" fill="#043506"/>
<path fill-rule="evenodd" clip-rule="evenodd" d="M4.74316 13.4857C4.74316 13.4857 11.87 15.5528 17.7369 13.4062C17.7369 13.4062 16.9484 15.1641 16.5634 15.4108C16.5634 15.4108 11.8197 17.278 5.66663 15.4604C5.66663 15.4604 5.13782 15.2978 4.80203 13.6915" fill="white"/>
<defs>
<radialGradient id="paint0_radial_2198_1672" cx="0" cy="0" r="1" gradientUnits="userSpaceOnUse" gradientTransform="translate(11 5.22756) rotate(90) scale(15.3974)">
<stop stop-color="#A2D9A5"/>
<stop offset="1" stop-color="#57AE5B"/>
</radialGradient>
</defs>
</svg>
