<svg width="28" height="28" viewBox="0 0 28 28" fill="none" xmlns="http://www.w3.org/2000/svg">
<rect width="28" height="28" rx="8" fill="#E6E6FF" fill-opacity="0.3"/>
<path d="M6.50636 18.2959C6.26741 17.8849 6.40921 17.3595 6.82308 17.1222L20.3116 9.38965C20.7255 9.1524 21.2547 9.2932 21.4936 9.70413C21.7326 10.1151 21.5908 10.6405 21.1769 10.8778L7.68837 18.6103C7.2745 18.8476 6.7453 18.7068 6.50636 18.2959Z" fill="#E6E6FF"/>
<path d="M6.17411 16.0061C5.81569 15.3897 6.02839 14.6015 6.64919 14.2456L7.02387 14.0308L10.485 19.9834L10.1104 20.1982C9.48956 20.554 8.69575 20.3429 8.33734 19.7264L6.17411 16.0061Z" fill="#A1A5FD"/>
<path d="M6.80754 13.6588C6.44913 13.0424 6.66183 12.2542 7.28262 11.8983C7.90342 11.5424 8.69722 11.7536 9.05564 12.37L12.9494 19.0666C13.3079 19.683 13.0952 20.4712 12.4744 20.8271C11.8536 21.183 11.0598 20.9718 10.7014 20.3554L6.80754 13.6588Z" fill="#A1A5FD"/>
<path d="M17.515 8.01663L17.8896 7.80183C18.5104 7.44595 19.3042 7.65715 19.6627 8.27355L21.8259 11.9939C22.1843 12.6103 21.9716 13.3985 21.3508 13.7544L20.9761 13.9692L17.515 8.01663Z" fill="#A1A5FD"/>
<path d="M15.0506 8.93336C14.6921 8.31695 14.9048 7.52876 15.5256 7.17288C16.1464 6.817 16.9402 7.02819 17.2986 7.6446L21.1925 14.3412C21.5509 14.9576 21.3382 15.7458 20.7174 16.1017C20.0966 16.4576 19.3028 16.2464 18.9444 15.63L15.0506 8.93336Z" fill="#A1A5FD"/>
</svg>
