<svg width="28" height="28" viewBox="0 0 28 28" fill="none" xmlns="http://www.w3.org/2000/svg">
<rect width="28" height="28" rx="8" fill="#E6E6FF" fill-opacity="0.3"/>
<path d="M17.6777 10.5919V5.01929C17.6777 4.15056 18.6964 3.68151 19.3564 4.2463L22.4214 6.86871C22.8778 7.25922 22.8983 7.95809 22.4656 8.37465L19.4006 11.3249C18.7543 11.9469 17.6777 11.4889 17.6777 10.5919Z" fill="#A1A5FD"/>
<path d="M5.01367 13.9996C5.268 10.9484 7.30265 7.59045 11.3309 7.59045C15.9515 7.59045 19.3027 7.59045 20.5279 7.59045" stroke="#A1A5FD" stroke-width="2.25" stroke-linecap="round"/>
<path d="M10.0996 17.4081V22.9807C10.0996 23.8494 9.08099 24.3185 8.4209 23.7536L5.35594 21.1313C4.89953 20.7407 4.87905 20.0419 5.31182 19.6253L8.37678 16.6751C9.02305 16.053 10.0996 16.511 10.0996 17.4081Z" fill="#E6E6FF"/>
<path d="M22.7642 14.0004C22.5099 17.0515 20.4752 20.4095 16.4469 20.4095C11.8263 20.4095 8.47517 20.4095 7.25 20.4095" stroke="#E6E6FF" stroke-width="2.25" stroke-linecap="round"/>
</svg>
