<svg width="20" height="20" viewBox="0 0 20 20" fill="none" xmlns="http://www.w3.org/2000/svg">
<g clip-path="url(#clip0_1177_2373)">
<path d="M7.59922 8.8C10.0293 8.8 11.9992 6.83005 11.9992 4.4C11.9992 1.96995 10.0293 0 7.59922 0C5.16917 0 3.19922 1.96995 3.19922 4.4C3.19922 6.83005 5.16917 8.8 7.59922 8.8Z" fill="#E6E6FF"/>
<path d="M9.43984 11.2C9.75008 11.2 10.0546 11.2254 10.3516 11.2726C8.37536 14.1804 8.88112 16.7294 9.86248 18.4H1.43984C0.644678 18.3999 8.4468e-05 17.7553 0 16.9601C0 13.7789 2.579 11.2 5.76016 11.2H9.43984Z" fill="#E6E6FF"/>
<path d="M15.2004 10.3999C17.8514 10.3999 20.0004 12.5489 20.0004 15.1999C20.0004 17.8509 17.8514 19.9999 15.2004 19.9999C12.5494 19.9999 10.4004 17.8509 10.4004 15.1999C10.4004 12.5489 12.5494 10.3999 15.2004 10.3999ZM17.7434 13.4085C17.5091 13.1742 17.1293 13.1743 16.895 13.4085L14.4004 15.903L13.273 14.7757C13.0387 14.5414 12.6589 14.5414 12.4246 14.7757C12.1903 15.01 12.1904 15.3898 12.4246 15.6241L13.9762 17.1757L14.0215 17.2171C14.1314 17.3068 14.266 17.3515 14.4004 17.3515C14.5347 17.3514 14.6694 17.3068 14.7793 17.2171C14.795 17.2043 14.81 17.1903 14.8246 17.1757L17.7434 14.2569C17.9776 14.0226 17.9777 13.6428 17.7434 13.4085Z" fill="#A1A5FD"/>
</g>
<defs>
<clipPath id="clip0_1177_2373">
<rect width="20" height="20" fill="white"/>
</clipPath>
</defs>
</svg>
