<svg width="28" height="28" viewBox="0 0 28 28" fill="none" xmlns="http://www.w3.org/2000/svg">
<rect width="28" height="28" rx="8" fill="#E6E6FF" fill-opacity="0.3"/>
<path d="M13.992 9.71455C15.57 9.71455 16.8494 8.43531 16.8494 6.85728C16.8494 5.27924 15.57 4 13.992 4C12.414 4 11.1348 5.27924 11.1348 6.85728C11.1348 8.43531 12.414 9.71455 13.992 9.71455Z" stroke="#A1A5FD" stroke-width="2"/>
<path d="M7.06913 9.70596C7.33248 8.70049 8.24099 7.99927 9.28037 7.99927H18.7048C19.7442 7.99927 20.6527 8.70049 20.9161 9.70596L23.9095 21.135C24.2889 22.5838 23.1959 24 21.6982 24H6.28704C4.78938 24 3.69635 22.5838 4.07579 21.135L7.06913 9.70596Z" fill="#E6E6FF"/>
<path d="M10.311 19.004C10.1772 19.004 10.0665 18.9602 9.97894 18.8727C9.89142 18.78 9.84766 18.6667 9.84766 18.5329V13.7602C9.84766 13.6263 9.89142 13.5156 9.97894 13.4281C10.0665 13.3354 10.1772 13.2891 10.311 13.2891C10.4449 13.2891 10.5556 13.3354 10.6431 13.4281C10.7306 13.5156 10.7744 13.6263 10.7744 13.7602V18.5329C10.7744 18.6667 10.7306 18.78 10.6431 18.8727C10.5556 18.9602 10.4449 19.004 10.311 19.004ZM12.7669 14.8722C12.8853 14.8722 12.9883 14.9211 13.0758 15.019C13.1633 15.1168 13.2071 15.212 13.2071 15.3047C13.2071 15.4283 13.1453 15.5441 13.0217 15.6522L10.6972 17.7915L10.6586 16.7257L12.4271 15.019C12.5249 14.9211 12.6382 14.8722 12.7669 14.8722ZM12.8827 18.9962C12.7489 18.9962 12.6356 18.9447 12.5429 18.8418L11.1142 17.3281L11.817 16.6794L13.2071 18.1931C13.3049 18.296 13.3538 18.4118 13.3538 18.5406C13.3538 18.6744 13.2998 18.7852 13.1916 18.8727C13.0887 18.9551 12.9857 18.9962 12.8827 18.9962ZM15.8817 14.795C16.098 14.795 16.2962 14.8284 16.4764 14.8954C16.6567 14.9624 16.8111 15.0473 16.9398 15.1503C17.0737 15.2532 17.1766 15.3588 17.2487 15.4669C17.3259 15.5698 17.3645 15.6574 17.3645 15.7295L17.1637 15.8299V15.2661C17.1637 15.1323 17.2075 15.0215 17.295 14.934C17.3826 14.8414 17.4933 14.795 17.6271 14.795C17.761 14.795 17.8717 14.8388 17.9592 14.9263C18.0468 15.0138 18.0905 15.1271 18.0905 15.2661V18.7028C18.0905 19.1507 17.9927 19.5085 17.797 19.7762C17.6066 20.0491 17.3543 20.2448 17.0402 20.3632C16.7262 20.4867 16.3889 20.5485 16.0285 20.5485C15.9255 20.5485 15.7917 20.5356 15.6269 20.5099C15.4622 20.4842 15.3052 20.4533 15.1558 20.4172C15.0065 20.3812 14.8932 20.3477 14.816 20.3168C14.6615 20.2499 14.5534 20.1649 14.4916 20.062C14.435 19.9641 14.4248 19.8587 14.4607 19.7453C14.5071 19.5961 14.5818 19.493 14.6847 19.4364C14.7877 19.3849 14.8959 19.3798 15.0091 19.421C15.0606 19.4364 15.1455 19.4673 15.2639 19.5137C15.3824 19.56 15.511 19.6012 15.65 19.6372C15.7942 19.6784 15.9203 19.699 16.0285 19.699C16.4146 19.699 16.7004 19.6218 16.8857 19.4673C17.071 19.3129 17.1637 19.0992 17.1637 18.8263V18.1544L17.2564 18.224C17.2564 18.2909 17.2204 18.3732 17.1483 18.4711C17.0814 18.5638 16.9861 18.6564 16.8625 18.7491C16.7442 18.8418 16.6026 18.9215 16.4378 18.9885C16.2731 19.0503 16.098 19.0812 15.9126 19.0812C15.5471 19.0812 15.2176 18.991 14.9241 18.8109C14.6306 18.6255 14.399 18.3732 14.229 18.054C14.0591 17.7297 13.9742 17.359 13.9742 16.942C13.9742 16.5197 14.0591 16.149 14.229 15.8299C14.399 15.5055 14.6281 15.2532 14.9164 15.073C15.2048 14.8877 15.5265 14.795 15.8817 14.795ZM16.0285 15.6445C15.7968 15.6445 15.5935 15.7011 15.4184 15.8144C15.2434 15.9277 15.1069 16.0822 15.0091 16.2778C14.9113 16.4734 14.8623 16.6948 14.8623 16.942C14.8623 17.1839 14.9113 17.4028 15.0091 17.5984C15.1069 17.794 15.2434 17.9485 15.4184 18.0618C15.5935 18.1751 15.7968 18.2317 16.0285 18.2317C16.2653 18.2317 16.4713 18.1751 16.6463 18.0618C16.8214 17.9485 16.9579 17.794 17.0556 17.5984C17.1535 17.4028 17.2023 17.1839 17.2023 16.942C17.2023 16.6948 17.1535 16.4734 17.0556 16.2778C16.9579 16.0822 16.8214 15.9277 16.6463 15.8144C16.4713 15.7011 16.2653 15.6445 16.0285 15.6445Z" fill="#A1A5FD"/>
</svg>
