<svg width="28" height="28" viewBox="0 0 28 28" fill="none" xmlns="http://www.w3.org/2000/svg">
<rect width="28" height="28" rx="8" fill="#E6E6FF" fill-opacity="0.3"/>
<path d="M13.9948 10.5717C15.2572 10.5717 16.2807 9.54827 16.2807 8.28584C16.2807 7.0234 15.2572 6 13.9948 6C12.7324 6 11.709 7.0234 11.709 8.28584C11.709 9.54827 12.7324 10.5717 13.9948 10.5717Z" stroke="#A1A5FD" stroke-width="2"/>
<path d="M8.45531 10.5647C8.66598 9.76032 9.3928 9.19934 10.2243 9.19934H17.7639C18.5954 9.19934 19.3222 9.76032 19.5329 10.5647L21.9276 19.708C22.2311 20.8671 21.3567 22 20.1586 22H7.82963C6.63151 22 5.75708 20.8671 6.06064 19.708L8.45531 10.5647Z" fill="#E6E6FF"/>
<path d="M11.0504 18.0032C10.9433 18.0032 10.8547 17.9682 10.7847 17.8982C10.7147 17.824 10.6797 17.7334 10.6797 17.6263V13.8082C10.6797 13.7011 10.7147 13.6125 10.7847 13.5425C10.8547 13.4683 10.9433 13.4313 11.0504 13.4313C11.1575 13.4313 11.246 13.4683 11.316 13.5425C11.3861 13.6125 11.4211 13.7011 11.4211 13.8082V17.6263C11.4211 17.7334 11.3861 17.824 11.316 17.8982C11.246 17.9682 11.1575 18.0032 11.0504 18.0032ZM13.0151 14.6978C13.1098 14.6978 13.1922 14.7369 13.2622 14.8152C13.3322 14.8935 13.3672 14.9697 13.3672 15.0438C13.3672 15.1427 13.3178 15.2353 13.219 15.3218L11.3593 17.0332L11.3284 16.1806L12.7432 14.8152C12.8215 14.7369 12.9121 14.6978 13.0151 14.6978ZM13.1077 17.997C13.0007 17.997 12.91 17.9558 12.8359 17.8735L11.6929 16.6625L12.2551 16.1435L13.3672 17.3545C13.4455 17.4368 13.4846 17.5295 13.4846 17.6325C13.4846 17.7396 13.4414 17.8282 13.3549 17.8982C13.2725 17.9641 13.1901 17.997 13.1077 17.997ZM15.507 14.636C15.6799 14.636 15.8385 14.6628 15.9827 14.7164C16.1269 14.7699 16.2505 14.8379 16.3534 14.9202C16.4605 15.0026 16.5429 15.0871 16.6005 15.1736C16.6623 15.2559 16.6932 15.326 16.6932 15.3836L16.5325 15.4639V15.0129C16.5325 14.9059 16.5676 14.8172 16.6376 14.7473C16.7077 14.6731 16.7962 14.636 16.9032 14.636C17.0104 14.636 17.0989 14.6711 17.1689 14.7411C17.239 14.8111 17.2739 14.9017 17.2739 15.0129V17.7623C17.2739 18.1206 17.1957 18.4068 17.0392 18.621C16.8868 18.8393 16.685 18.9959 16.4337 19.0906C16.1825 19.1894 15.9127 19.2389 15.6243 19.2389C15.542 19.2389 15.4349 19.2285 15.3031 19.208C15.1713 19.1874 15.0457 19.1627 14.9262 19.1338C14.8068 19.105 14.7161 19.0782 14.6544 19.0535C14.5308 19 14.4443 18.932 14.3949 18.8496C14.3496 18.7714 14.3414 18.687 14.3702 18.5963C14.4072 18.4769 14.467 18.3945 14.5493 18.3492C14.6318 18.308 14.7183 18.3039 14.8088 18.3368C14.85 18.3492 14.918 18.3739 15.0127 18.411C15.1075 18.4481 15.2104 18.481 15.3216 18.5098C15.437 18.5428 15.5378 18.5593 15.6243 18.5593C15.9333 18.5593 16.1618 18.4975 16.3101 18.3739C16.4584 18.2503 16.5325 18.0794 16.5325 17.8611V17.3236L16.6067 17.3792C16.6067 17.4328 16.5779 17.4986 16.5202 17.5769C16.4667 17.6511 16.3904 17.7252 16.2916 17.7993C16.1969 17.8735 16.0837 17.9373 15.9518 17.9909C15.82 18.0403 15.6799 18.065 15.5317 18.065C15.2393 18.065 14.9756 17.9929 14.7408 17.8488C14.5061 17.7005 14.3207 17.4986 14.1848 17.2433C14.0489 16.9838 13.9809 16.6872 13.9809 16.3536C13.9809 16.0158 14.0489 15.7193 14.1848 15.4639C14.3207 15.2044 14.504 15.0026 14.7347 14.8585C14.9654 14.7102 15.2228 14.636 15.507 14.636ZM15.6243 15.3157C15.439 15.3157 15.2763 15.3609 15.1363 15.4516C14.9963 15.5422 14.8871 15.6658 14.8088 15.8223C14.7306 15.9788 14.6914 16.1559 14.6914 16.3536C14.6914 16.5472 14.7306 16.7223 14.8088 16.8788C14.8871 17.0353 14.9963 17.1588 15.1363 17.2495C15.2763 17.3401 15.439 17.3854 15.6243 17.3854C15.8138 17.3854 15.9786 17.3401 16.1186 17.2495C16.2587 17.1588 16.3679 17.0353 16.4461 16.8788C16.5243 16.7223 16.5634 16.5472 16.5634 16.3536C16.5634 16.1559 16.5243 15.9788 16.4461 15.8223C16.3679 15.6658 16.2587 15.5422 16.1186 15.4516C15.9786 15.3609 15.8138 15.3157 15.6243 15.3157Z" fill="#A1A5FD"/>
</svg>
