<svg width="28" height="28" viewBox="0 0 28 28" fill="none" xmlns="http://www.w3.org/2000/svg">
<rect width="28" height="28" rx="8" fill="#E6E6FF" fill-opacity="0.3"/>
<path d="M5.29808 19.2903C5.02194 18.812 5.18581 18.2004 5.6641 17.9243L21.2526 8.92428C21.7309 8.64814 22.3424 8.81202 22.6186 9.29031C22.8947 9.7686 22.7309 10.3802 22.2526 10.6563L6.6641 19.6563C6.18581 19.9325 5.57422 19.7686 5.29808 19.2903Z" fill="#E6E6FF"/>
<path d="M4.9141 16.6252C4.49989 15.9078 4.7457 14.9904 5.46314 14.5762L5.89615 14.3262L9.89615 21.2544L9.46314 21.5044C8.7457 21.9186 7.82832 21.6728 7.4141 20.9554L4.9141 16.6252Z" fill="#A1A5FD"/>
<path d="M5.64615 13.8932C5.23194 13.1758 5.47775 12.2584 6.19519 11.8442C6.91263 11.4299 7.83002 11.6758 8.24423 12.3932L12.7442 20.1874C13.1584 20.9049 12.9126 21.8222 12.1952 22.2365C11.4778 22.6507 10.5604 22.4049 10.1462 21.6874L5.64615 13.8932Z" fill="#A1A5FD"/>
<path d="M18.0205 7.32621L18.4535 7.07621C19.171 6.66199 20.0883 6.90781 20.5026 7.62525L23.0026 11.9554C23.4168 12.6728 23.171 13.5902 22.4535 14.0044L22.0205 14.2544L18.0205 7.32621Z" fill="#A1A5FD"/>
<path d="M15.1724 8.39319C14.7582 7.67576 15.004 6.75837 15.7215 6.34416C16.4389 5.92994 17.3563 6.17576 17.7705 6.89319L22.2705 14.6874C22.6847 15.4049 22.4389 16.3222 21.7215 16.7365C21.004 17.1507 20.0866 16.9049 19.6724 16.1874L15.1724 8.39319Z" fill="#A1A5FD"/>
</svg>
