<svg width="28" height="28" viewBox="0 0 28 28" fill="none" xmlns="http://www.w3.org/2000/svg">
<rect width="28" height="28" rx="8" fill="#E6E6FF" fill-opacity="0.3"/>
<path d="M16.875 11.6144V7.7135C16.875 7.10539 17.5881 6.77706 18.0501 7.17241L20.1956 9.0081C20.515 9.28146 20.5294 9.77067 20.2265 10.0623L18.081 12.1274C17.6286 12.5629 16.875 12.2423 16.875 11.6144Z" fill="#A1A5FD"/>
<path d="M8.00977 13.9997C8.1878 11.8639 9.61206 9.51331 12.4319 9.51331C15.6663 9.51331 18.0121 9.51331 18.8697 9.51331" stroke="#A1A5FD" stroke-width="2.25" stroke-linecap="round"/>
<path d="M11.5697 16.3857V20.2865C11.5697 20.8946 10.8567 21.223 10.3946 20.8276L8.24916 18.992C7.92967 18.7186 7.91534 18.2294 8.21828 17.9378L10.3638 15.8726C10.8161 15.4371 11.5697 15.7577 11.5697 16.3857Z" fill="#E6E6FF"/>
<path d="M20.4342 14.0002C20.2562 16.1361 18.8319 18.4867 16.0121 18.4867C12.7777 18.4867 10.4318 18.4867 9.57422 18.4867" stroke="#E6E6FF" stroke-width="2.25" stroke-linecap="round"/>
</svg>
