<svg width="25" height="25" viewBox="0 0 25 25" fill="none" xmlns="http://www.w3.org/2000/svg">
<mask id="mask0_660_658" style="mask-type:luminance" maskUnits="userSpaceOnUse" x="3" y="3" width="19" height="19">
<path fill-rule="evenodd" clip-rule="evenodd" d="M3.04736 12.5096C3.05682 17.7275 7.29164 21.9528 12.5096 21.9528C17.7275 21.9528 21.9528 17.7086 21.9528 12.4906C21.9434 7.27274 17.7086 3.04736 12.4906 3.04736C7.27274 3.05682 3.04736 7.29164 3.04736 12.5096ZM11.1389 16.6404L7.06478 12.5663C7.31999 12.3111 7.57757 12.0558 7.83515 11.8006C8.09275 11.5454 8.35034 11.2902 8.60557 11.0349C8.88249 11.3118 9.16045 11.5888 9.43877 11.866C9.99649 12.4216 10.5556 12.9787 11.1105 13.5399L16.319 8.33144C16.5931 8.6103 16.8625 8.87971 17.126 9.14321C17.3895 9.4067 17.6471 9.66428 17.8976 9.9195C16.7692 11.0432 15.636 12.1693 14.504 13.2941C13.3792 14.4119 12.2555 15.5285 11.1389 16.6404Z" fill="white"/>
</mask>
<g mask="url(#mask0_660_658)">
<rect x="3" y="3" width="19" height="19" fill="#00D591"/>
</g>
</svg>
