<svg width="20" height="21" viewBox="0 0 20 21" fill="none" xmlns="http://www.w3.org/2000/svg">
<g clip-path="url(#clip0_2306_6302)">
<path d="M11.6893 20.4953C11.1647 21.1645 10.1008 20.7978 10.0882 19.9433L9.90332 7.44528H18.2005C19.7034 7.44528 20.5415 9.20335 19.607 10.3954L11.6893 20.4953Z" fill="url(#paint0_linear_2306_6302)"/>
<path d="M11.6893 20.4953C11.1647 21.1645 10.1008 20.7978 10.0882 19.9433L9.90332 7.44528H18.2005C19.7034 7.44528 20.5415 9.20335 19.607 10.3954L11.6893 20.4953Z" fill="url(#paint1_linear_2306_6302)" fill-opacity="0.2"/>
<path d="M8.31492 0.384881C8.8396 -0.284405 9.90345 0.0823153 9.91609 0.936823L9.9971 13.4348H1.80375C0.300857 13.4348 -0.537332 11.6768 0.397209 10.4847L8.31492 0.384881Z" fill="#3ECF8E"/>
</g>
<defs>
<linearGradient id="paint0_linear_2306_6302" x1="9.90332" y1="10.2164" x2="17.3055" y2="13.2815" gradientUnits="userSpaceOnUse">
<stop stop-color="#249361"/>
<stop offset="1" stop-color="#3ECF8E"/>
</linearGradient>
<linearGradient id="paint1_linear_2306_6302" x1="6.63396" y1="5.68264" x2="10.0644" y2="12.0584" gradientUnits="userSpaceOnUse">
<stop/>
<stop offset="1" stop-opacity="0"/>
</linearGradient>
<clipPath id="clip0_2306_6302">
<rect width="20" height="21" fill="white"/>
</clipPath>
</defs>
</svg>
