<svg width="25" height="25" viewBox="0 0 25 25" fill="none" xmlns="http://www.w3.org/2000/svg">
<rect x="4" y="4" width="17" height="17" fill="#E6E6FF"/>
<rect x="1" y="1" width="23" height="23" stroke="#A1A5FD" stroke-width="2" stroke-dasharray="4 1"/>
<mask id="mask0_0_6302" style="mask-type:luminance" maskUnits="userSpaceOnUse" x="6" y="6" width="13" height="13">
<path fill-rule="evenodd" clip-rule="evenodd" d="M19 12.5C19 8.912 16.088 6 12.5 6C8.912 6 6 8.912 6 12.5C6 16.088 8.912 19 12.5 19C16.088 19 19 16.088 19 12.5ZM10.7775 9.679L12.5065 11.408C13.0915 10.8165 13.67 10.238 14.229 9.679L15.3275 10.7775L13.605 12.5C13.9963 12.8827 14.382 13.2655 14.762 13.6426C14.9563 13.8355 15.1491 14.0268 15.3405 14.216L14.2225 15.334C13.9406 15.0488 13.6554 14.762 13.3677 14.4727C13.085 14.1883 12.7998 13.9015 12.513 13.6115C11.928 14.1965 11.3495 14.775 10.784 15.347L9.6725 14.2355C10.049 13.8547 10.4313 13.4738 10.8155 13.091C11.0083 12.8989 11.2017 12.7063 11.395 12.513C10.81 11.928 10.2315 11.3495 9.666 10.7905L10.7775 9.679Z" fill="white"/>
</mask>
<g mask="url(#mask0_0_6302)">
<rect x="6" y="6" width="13" height="13" fill="#A1A5FD"/>
</g>
</svg>
