<svg width="20" height="21" viewBox="0 0 20 21" fill="none" xmlns="http://www.w3.org/2000/svg">
<rect y="2.07983" width="19.76" height="18.72" rx="2" fill="#E6E6FF"/>
<path d="M0 4.07983C0 2.97527 0.89543 2.07983 2 2.07983H17.76C18.8646 2.07983 19.76 2.97526 19.76 4.07983V6.75983H0V4.07983Z" fill="#A1A5FD"/>
<rect x="4.16016" width="2.6" height="5.2" rx="0.5" fill="#E6E6FF"/>
<rect x="12.4805" width="2.6" height="5.2" rx="0.5" fill="#E6E6FF"/>
<rect x="3.12109" y="9.35986" width="2.6" height="2.6" rx="0.5" fill="white"/>
<rect x="8.32031" y="9.35986" width="2.6" height="2.6" rx="0.5" fill="white"/>
<rect x="13.5215" y="9.35986" width="2.6" height="2.6" rx="0.5" fill="white"/>
<rect x="3.12109" y="14.5598" width="2.6" height="2.6" rx="0.5" fill="white"/>
<rect x="8.32031" y="14.5598" width="2.6" height="2.6" rx="0.5" fill="white"/>
<rect x="13.5215" y="14.5598" width="2.6" height="2.6" rx="0.5" fill="white"/>
</svg>
