<svg width="20" height="20" viewBox="0 0 20 20" fill="none" xmlns="http://www.w3.org/2000/svg">
<mask id="mask0_359_1043" style="mask-type:luminance" maskUnits="userSpaceOnUse" x="2" y="3" width="16" height="17">
<path d="M10.1272 3.20275C12.6539 3.20275 15.1803 3.20182 17.7064 3.19995C17.8202 3.19995 17.8446 3.22188 17.8362 3.3399C17.7859 4.02566 17.7464 4.71236 17.7031 5.39906C17.643 6.35695 17.5828 7.31484 17.5226 8.27273C17.4719 9.08351 17.4217 9.89414 17.3722 10.7046C17.3136 11.6473 17.2542 12.5898 17.1941 13.5321C17.1433 14.335 17.0977 15.1383 17.0432 15.9407C16.9962 16.6073 16.9915 17.2777 16.8998 17.9401C16.8265 18.4687 16.645 18.9566 16.2309 19.3275C15.8793 19.6424 15.4525 19.7595 14.9932 19.7875C14.8955 19.7935 14.7977 19.7917 14.6994 19.7917C11.519 19.7917 8.33861 19.7963 5.15725 19.7884C4.329 19.7884 3.61874 19.3074 3.34235 18.4915C3.21449 18.1155 3.17971 17.7255 3.15432 17.3341C3.06752 15.9103 2.98291 14.4866 2.90049 13.0628C2.83797 11.9455 2.78439 10.8273 2.72704 9.70956C2.65935 8.39402 2.59182 7.07832 2.52444 5.76246C2.48308 4.94328 2.44547 4.1241 2.39988 3.30538C2.39471 3.20648 2.43278 3.20322 2.51081 3.20322C5.05007 3.20384 7.58886 3.20368 10.1272 3.20275Z" fill="white"/>
</mask>
<g mask="url(#mask0_359_1043)">
<rect x="-2.00098" y="3.59985" width="24" height="18.4" fill="#ECE9F1"/>
</g>
<mask id="mask1_359_1043" style="mask-type:luminance" maskUnits="userSpaceOnUse" x="0" y="0" width="20" height="4">
<path d="M9.98666 3.83006C7.18625 3.83006 4.38551 3.83006 1.58446 3.83006C1.40393 3.83006 1.22052 3.81373 1.07169 3.6901C0.936503 3.58972 0.848457 3.44081 0.827302 3.27678C0.779289 2.85693 0.809057 2.43241 0.807617 2.01022C0.807617 1.71306 0.910844 1.46254 1.22197 1.34032C1.31355 1.30471 1.4114 1.2868 1.51004 1.2876C3.09766 1.2876 4.68575 1.2876 6.27433 1.2876C6.35297 1.2968 6.42776 1.25215 6.45486 1.17984C6.58545 0.92653 6.69492 0.663421 6.8548 0.424104C7.00294 0.187139 7.26433 0.0390016 7.54954 0.0303736C8.77963 -0.028406 10.0107 0.018711 11.2412 0.00518233C11.549 0.0019168 11.8572 0.00145029 12.1655 0.00518233C12.4228 0.00891437 12.6749 0.0317731 12.8986 0.186653C13.0341 0.278093 13.1441 0.400702 13.2189 0.543529C13.3303 0.759521 13.4474 0.972714 13.5511 1.19197C13.5876 1.26988 13.6337 1.28807 13.7148 1.28807C15.2989 1.2862 16.8834 1.2862 18.4681 1.28807C18.761 1.28807 18.989 1.39817 19.1268 1.65521C19.1859 1.76531 19.1916 1.89219 19.194 2.01209C19.2012 2.37736 19.2022 2.7431 19.194 3.10837C19.1868 3.46058 19.0274 3.7097 18.7173 3.79227C18.6144 3.81894 18.5083 3.83212 18.4018 3.83146L9.98666 3.83006Z" fill="white"/>
</mask>
<g mask="url(#mask1_359_1043)">
<rect y="-1.6001" width="20" height="7.2" fill="#D7D4DC"/>
</g>
</svg>
