<svg width="25" height="25" viewBox="0 0 25 25" fill="none" xmlns="http://www.w3.org/2000/svg">
<path d="M10 4C11.9392 4 13.662 4.92128 14.7588 6.34863C15.2943 6.12375 15.8828 6 16.5 6C18.9853 6 21 8.01472 21 10.5C21 10.701 20.9845 10.8987 20.959 11.0928C23.2615 11.5401 25 13.5666 25 16C25 18.5926 23.0266 20.7237 20.5 20.9746V21H5V20.9756C2.19683 20.7229 0 18.369 0 15.5C0 12.9807 1.69393 10.8574 4.00488 10.2061C4.00257 10.1376 4 10.069 4 10C4 6.68629 6.68629 4 10 4ZM12 9C11.7447 9 11.5007 9.09777 11.3164 9.27051L11.2412 9.34961L8.24121 12.8496C7.88179 13.2689 7.93028 13.8994 8.34961 14.2588C8.76894 14.6182 9.39937 14.5697 9.75879 14.1504L11 12.7021V17C11 17.5523 11.4477 18 12 18C12.5523 18 13 17.5523 13 17V12.7021L14.2412 14.1504L14.3115 14.2246C14.6786 14.5742 15.2573 14.5958 15.6504 14.2588C16.0434 13.922 16.1112 13.3468 15.8223 12.9307L15.7588 12.8496L12.7588 9.34961C12.5688 9.12796 12.2919 9 12 9Z" fill="#D7D4DC"/>
</svg>
