<svg width="30" height="21" viewBox="0 0 30 21" fill="none" xmlns="http://www.w3.org/2000/svg">
<rect width="30" height="21" rx="3" fill="#1434CB"/>
<path d="M14.3981 7.12386L12.9948 13.8941H11.298L12.7015 7.12386H14.3981ZM21.5372 11.4955L22.4306 8.95298L22.9446 11.4955H21.5372ZM23.4304 13.8941H25L23.6304 7.12386H22.1817C21.8561 7.12386 21.5815 7.31928 21.4592 7.62057L18.9134 13.8941H20.6954L21.0491 12.8832H23.2262L23.4304 13.8941ZM19.0019 11.6836C19.0091 9.89668 16.6077 9.79833 16.6243 9.00012C16.6293 8.75691 16.8537 8.49891 17.3439 8.4327C17.5874 8.39991 18.257 8.37484 19.0172 8.73591L19.3149 7.30021C18.9066 7.14721 18.3811 7 17.7275 7C16.0504 7 14.87 7.92035 14.86 9.23819C14.8494 10.2128 15.7027 10.7566 16.3457 11.0806C17.0067 11.4125 17.2289 11.6251 17.226 11.9219C17.2216 12.3764 16.6986 12.5765 16.2107 12.5844C15.3574 12.5984 14.8623 12.3468 14.4676 12.1569L14.1601 13.6404C14.5565 13.8284 15.2883 13.9916 16.0475 14C17.8299 14 18.9961 13.091 19.0019 11.6836ZM11.9734 7.12386L9.22415 13.8941H7.43017L6.07737 8.49098C5.99516 8.1582 5.92374 8.03649 5.67398 7.89613C5.26644 7.66792 4.59273 7.45342 4 7.32057L4.04048 7.12386H6.92775C7.29564 7.12386 7.62678 7.37671 7.71024 7.81406L8.42484 11.732L10.1906 7.12386H11.9734Z" fill="white"/>
</svg>
