<svg width="25" height="25" viewBox="0 0 25 25" fill="none" xmlns="http://www.w3.org/2000/svg">
<path fill-rule="evenodd" clip-rule="evenodd" d="M2 12.4616C3.40994 10.3359 4.99006 8.4091 7.0442 6.96711C9.29282 5.38838 11.7481 4.69225 14.4707 5.12733C16.3425 5.42567 17.9834 6.25855 19.4785 7.43949C21.2287 8.83175 22.6265 10.5597 23.8906 12.4616C23.8279 12.5513 23.7652 12.6414 23.7024 12.7317L23.7023 12.732C23.3998 13.1669 23.0944 13.6059 22.7724 14.0279C21.484 15.7309 20.0254 17.2724 18.1901 18.3663C14.7138 20.4422 11.2133 20.4422 7.73702 18.3787C5.59779 17.0983 3.98122 15.2585 2.54696 13.2199C2.35249 12.9837 2.18232 12.7351 2 12.4616ZM12.9271 17.1853C15.3337 17.1978 17.2906 15.1964 17.3149 12.7351C17.3271 10.2613 15.3702 8.2475 12.9514 8.23507C10.5448 8.22264 8.57569 10.224 8.56354 12.6853C8.55138 15.1467 10.5083 17.1729 12.9271 17.1853ZM10.0221 12.7102C10.0221 14.3511 11.3348 15.6936 12.9392 15.6936C14.5436 15.6936 15.8564 14.3511 15.8564 12.7102C15.8564 11.0693 14.5436 9.72678 12.9392 9.72678C11.3348 9.72678 10.0221 11.0693 10.0221 12.7102Z" fill="#ECE9F1"/>
<mask id="mask0_0_52278" style="mask-type:luminance" maskUnits="userSpaceOnUse" x="2" y="5" width="22" height="15">
<path fill-rule="evenodd" clip-rule="evenodd" d="M2 12.4616C3.40994 10.3359 4.99006 8.4091 7.0442 6.96711C9.29282 5.38838 11.7481 4.69225 14.4707 5.12733C16.3425 5.42567 17.9834 6.25855 19.4785 7.43949C21.2287 8.83175 22.6265 10.5597 23.8906 12.4616C23.8279 12.5513 23.7652 12.6414 23.7024 12.7317L23.7023 12.732C23.3998 13.1669 23.0944 13.6059 22.7724 14.0279C21.484 15.7309 20.0254 17.2724 18.1901 18.3663C14.7138 20.4422 11.2133 20.4422 7.73702 18.3787C5.59779 17.0983 3.98122 15.2585 2.54696 13.2199C2.35249 12.9837 2.18232 12.7351 2 12.4616ZM12.9271 17.1853C15.3337 17.1978 17.2906 15.1964 17.3149 12.7351C17.3271 10.2613 15.3702 8.2475 12.9514 8.23507C10.5448 8.22264 8.57569 10.224 8.56354 12.6853C8.55138 15.1467 10.5083 17.1729 12.9271 17.1853ZM10.0221 12.7102C10.0221 14.3511 11.3348 15.6936 12.9392 15.6936C14.5436 15.6936 15.8564 14.3511 15.8564 12.7102C15.8564 11.0693 14.5436 9.72678 12.9392 9.72678C11.3348 9.72678 10.0221 11.0693 10.0221 12.7102Z" fill="white"/>
</mask>
<g mask="url(#mask0_0_52278)">
<rect x="2" y="5" width="22" height="15" fill="#ECE9F1"/>
</g>
<circle cx="13" cy="12.6992" r="3" fill="#D7D4DC"/>
</svg>
