<svg width="20" height="15" viewBox="0 0 20 15" fill="none" xmlns="http://www.w3.org/2000/svg">
<path fill-rule="evenodd" clip-rule="evenodd" d="M5 0H15V15H5V0Z" fill="#F7FCFF"/>
<path d="M10 12.5H9.57227L9.83496 10.335C9.83496 10.335 6.95215 10.8637 7.19043 10.5967C7.42864 10.3296 7.56641 9.83984 7.56641 9.83984L5 8.09277C5 8.09277 5.40508 8.08762 5.73438 7.8877C6.06309 7.68797 5.40617 6.50532 5.4043 6.50195L6.7002 6.69434L7.19043 6.15039L8.16797 7.19434H8.60742L8.16797 4.80273L8.95605 5.25195L9.9834 3.75L10 12.5Z" fill="#E31D1C"/>
<path d="M11.0439 5.25195L11.832 4.80273L11.3926 7.19434H11.832L12.8096 6.15039L13.2998 6.69434L14.5957 6.50195C14.5938 6.50532 13.9369 7.68797 14.2656 7.8877C14.5949 8.08762 15 8.09277 15 8.09277L12.4336 9.83984C12.4336 9.83984 12.5714 10.3296 12.8096 10.5967C13.0479 10.8637 10.165 10.335 10.165 10.335L10.4277 12.5H10V3.75L11.0439 5.25195Z" fill="#E31D1C"/>
<path fill-rule="evenodd" clip-rule="evenodd" d="M15 0H18C19.1046 0 20 0.895431 20 2V13C20 14.1046 19.1046 15 18 15H15V0Z" fill="#E31D1C"/>
<path fill-rule="evenodd" clip-rule="evenodd" d="M0 2C0 0.89543 0.895431 0 2 0H5V15H2C0.89543 15 0 14.1046 0 13V2Z" fill="#E31D1C"/>
</svg>
