<svg width="20" height="15" viewBox="0 0 20 15" fill="none" xmlns="http://www.w3.org/2000/svg">
<path fill-rule="evenodd" clip-rule="evenodd" d="M14 0H18C19.1046 0 20 0.895431 20 2V13C20 14.1046 19.1046 15 18 15H14V0Z" fill="#003399"/>
<path fill-rule="evenodd" clip-rule="evenodd" d="M0 2C0 0.89543 0.895431 0 2 0H7V15H2C0.89543 15 0 14.1046 0 13V2Z" fill="#003399"/>
<path fill-rule="evenodd" clip-rule="evenodd" d="M6 0H14V15H6V0Z" fill="#003399"/>
<path d="M10 1L10.2245 1.69098H10.9511L10.3633 2.11803L10.5878 2.80902L10 2.38197L9.41221 2.80902L9.63673 2.11803L9.04894 1.69098H9.77549L10 1Z" fill="#FFCC00"/>
<path d="M10 11.75L10.2245 12.441H10.9511L10.3633 12.868L10.5878 13.559L10 13.132L9.41221 13.559L9.63673 12.868L9.04894 12.441H9.77549L10 11.75Z" fill="#FFCC00"/>
<path d="M4.5 6L4.72451 6.69098H5.45106L4.86327 7.11803L5.08779 7.80902L4.5 7.38197L3.91221 7.80902L4.13673 7.11803L3.54894 6.69098H4.27549L4.5 6Z" fill="#FFCC00"/>
<path d="M15.5 6L15.7245 6.69098H16.4511L15.8633 7.11803L16.0878 7.80902L15.5 7.38197L14.9122 7.80902L15.1367 7.11803L14.5489 6.69098H15.2755L15.5 6Z" fill="#FFCC00"/>
<path d="M5.5 3.5L5.72451 4.19098H6.45106L5.86327 4.61803L6.08779 5.30902L5.5 4.88197L4.91221 5.30902L5.13673 4.61803L4.54894 4.19098H5.27549L5.5 3.5Z" fill="#FFCC00"/>
<path d="M5 9L5.22451 9.69098H5.95106L5.36327 10.118L5.58779 10.809L5 10.382L4.41221 10.809L4.63673 10.118L4.04894 9.69098H4.77549L5 9Z" fill="#FFCC00"/>
<path d="M15 9L15.2245 9.69098H15.9511L15.3633 10.118L15.5878 10.809L15 10.382L14.4122 10.809L14.6367 10.118L14.0489 9.69098H14.7755L15 9Z" fill="#FFCC00"/>
<path d="M14.5 3.5L14.7245 4.19098H15.4511L14.8633 4.61803L15.0878 5.30902L14.5 4.88197L13.9122 5.30902L14.1367 4.61803L13.5489 4.19098H14.2755L14.5 3.5Z" fill="#FFCC00"/>
<path d="M7.25 1.75L7.47451 2.44098H8.20106L7.61327 2.86803L7.83779 3.55902L7.25 3.13197L6.66221 3.55902L6.88673 2.86803L6.29894 2.44098H7.02549L7.25 1.75Z" fill="#FFCC00"/>
<path d="M7.25 11L7.47451 11.691H8.20106L7.61327 12.118L7.83779 12.809L7.25 12.382L6.66221 12.809L6.88673 12.118L6.29894 11.691H7.02549L7.25 11Z" fill="#FFCC00"/>
<path d="M12.5 1.75L12.7245 2.44098H13.4511L12.8633 2.86803L13.0878 3.55902L12.5 3.13197L11.9122 3.55902L12.1367 2.86803L11.5489 2.44098H12.2755L12.5 1.75Z" fill="#FFCC00"/>
<path d="M12.5 11L12.7245 11.691H13.4511L12.8633 12.118L13.0878 12.809L12.5 12.382L11.9122 12.809L12.1367 12.118L11.5489 11.691H12.2755L12.5 11Z" fill="#FFCC00"/>
</svg>
