<svg width="150" height="57" viewBox="0 0 150 57" fill="none" xmlns="http://www.w3.org/2000/svg">
<path d="M31.4697 38.1067C31.4697 33.7724 31.4697 29.5332 31.4697 25.2939C31.4697 24.5547 31.8733 24.1252 32.5059 23.84C34.0801 23.1253 35.6359 22.3737 37.2222 21.6927C37.7755 21.4535 37.7846 21.2234 37.5523 20.7296C36.1015 17.6621 34.6751 14.5947 33.2731 11.5272C32.3562 9.5211 32.7627 8.48736 34.7525 7.53951C35.8956 6.99044 37.0419 6.44137 38.2003 5.92297C40.0343 5.11009 41.1041 5.49659 42.0424 7.25118C42.6538 8.3892 42.6538 8.38613 43.8153 7.86466C44.6344 7.47203 45.4689 7.07633 46.3095 6.73278C47.7552 6.1653 48.8739 6.60087 49.5158 8.01804C50.3748 9.92295 51.1878 11.8462 51.9916 13.7726C52.2209 14.3247 52.4684 14.5118 53.0431 14.1806C53.5342 13.9122 54.0514 13.6953 54.5867 13.5333C55.8093 13.1345 56.8578 13.4904 57.4538 14.6192C58.709 17.0098 59.8522 19.4535 60.8833 21.9504C61.3448 23.0639 60.9322 24.1191 59.8685 24.7878C59.3278 25.12 58.7616 25.4082 58.1751 25.6498C57.7259 25.8399 57.7045 26.0547 57.9061 26.4626C58.6122 27.9013 59.2602 29.3706 59.9724 30.8062C61.3784 33.6313 60.9964 34.7325 58.1384 35.984C57.5271 36.2478 56.9494 36.5669 56.3351 36.7999C55.8491 36.984 55.7023 37.2018 55.9744 37.6865C56.1606 38.0489 56.3131 38.4278 56.4298 38.8184C56.873 40.1374 56.4849 41.2202 55.2683 41.8612C53.8989 42.5831 52.5102 43.2703 51.1022 43.9226C49.7848 44.5361 48.6569 44.1772 47.8897 42.9318C47.5962 42.4249 47.3319 41.9016 47.0981 41.3643C45.8296 38.6343 44.5672 35.9196 43.3293 33.1803C43.1153 32.7111 42.8952 32.8461 42.5713 32.9964C39.1602 34.5791 35.7469 36.1568 32.3317 37.7294C32.0841 37.846 31.8305 37.9502 31.4697 38.1067Z" fill="#7069FA"/>
<path d="M29.5785 18.3064C29.5785 19.5733 29.5785 20.7603 29.5785 21.9597C29.5785 24.8984 29.5785 27.837 29.6306 30.7756C29.7201 31.59 29.2312 32.3566 28.4568 32.6161C26.9285 33.2786 25.4002 34.0394 23.872 34.7173C23.3737 34.935 23.2606 35.1038 23.5173 35.6375C25.011 38.7909 26.4751 41.9606 27.9097 45.1467C28.7044 46.9013 28.2948 48.0055 26.5801 48.8276C25.3574 49.4227 24.0981 50.0024 22.8388 50.5515C21.0232 51.3429 20.0084 50.9657 19.0792 49.2079C18.4526 48.0209 18.4526 48.0209 17.2636 48.5546C16.4536 48.9165 15.6498 49.3031 14.8184 49.6374C13.3542 50.2294 12.208 49.7969 11.5386 48.3613C10.6461 46.4442 9.77799 44.5147 8.94968 42.57C8.72654 42.0516 8.51258 42.0087 8.05104 42.2295C7.50083 42.491 6.9317 42.7105 6.34852 42.8859C5.20536 43.2356 4.15389 42.8859 3.59759 41.8246C2.35662 39.4105 1.19206 36.9412 0.16505 34.4167C-0.333173 33.1897 0.339276 31.9014 1.60776 31.3492C2.21908 31.0946 3.13605 31.0762 3.27971 30.4965C3.40503 30.018 2.83345 29.3615 2.57058 28.7818C1.95927 27.4628 1.34795 26.1438 0.767198 24.8187C-0.079476 22.926 0.342333 21.8064 2.22519 20.9198C3.07492 20.5211 3.92159 20.107 4.78966 19.7451C5.23287 19.561 5.40098 19.377 5.12283 18.9138C4.93 18.5548 4.76743 18.1804 4.63684 17.7941C4.15695 16.4966 4.55125 15.3218 5.77694 14.6746C7.19214 13.9261 8.63485 13.2298 10.0868 12.5611C11.2176 12.0396 12.2478 12.3341 12.9813 13.3402C13.2414 13.7175 13.4665 14.1179 13.6537 14.5365C14.9528 17.2972 16.258 20.058 17.5173 22.8524C17.8046 23.4873 18.0277 23.653 18.7216 23.3217C22.0686 21.7235 25.446 20.1899 28.8083 18.6316C29.0375 18.5242 29.276 18.4353 29.5785 18.3064Z" fill="#7069FA"/>
<path d="M80.9634 41.7754C79.061 41.7754 77.2927 41.4445 75.6585 40.7825C74.0488 40.096 72.6219 39.1522 71.378 37.9509C70.1586 36.7251 69.2073 35.3154 68.5244 33.7219C67.8414 32.1038 67.5 30.3632 67.5 28.4999C67.5 26.6367 67.8414 24.9083 68.5244 23.3148C69.2073 21.6967 70.1463 20.2871 71.3415 19.0858C72.5609 17.86 73.9756 16.9161 75.5854 16.2541C77.2195 15.5677 78.9756 15.2245 80.8537 15.2245C83 15.2245 85.0244 15.6658 86.9268 16.5483C88.8537 17.4064 90.4146 18.6322 91.6098 20.2258L87.1829 24.087C86.378 23.0084 85.439 22.1993 84.3658 21.6599C83.2927 21.1206 82.122 20.8509 80.8537 20.8509C79.878 20.8509 78.9634 21.047 78.1098 21.4393C77.2805 21.807 76.561 22.3464 75.9512 23.0574C75.3414 23.7438 74.8658 24.5529 74.5244 25.4845C74.183 26.3916 74.0122 27.3967 74.0122 28.4999C74.0122 29.6032 74.183 30.6328 74.5244 31.589C74.8902 32.5206 75.3903 33.3296 76.0244 34.0161C76.6585 34.7026 77.4025 35.2418 78.2561 35.6341C79.1097 36.0264 80.0488 36.2225 81.0732 36.2225C82.0488 36.2225 82.9269 36.0387 83.7073 35.6709C84.5122 35.3032 85.1952 34.8006 85.7561 34.1632C86.317 33.5012 86.7073 32.7535 86.9268 31.9199H80.5244V26.5877H93.6951V28.3896C93.6951 30.3264 93.3777 32.116 92.7439 33.7587C92.1338 35.3767 91.2561 36.7864 90.1097 37.9877C88.9634 39.189 87.6098 40.1206 86.0488 40.7825C84.5122 41.4445 82.8171 41.7754 80.9634 41.7754ZM95.8052 41.3709V15.1877L101.732 14.2683V41.3709H95.8052ZM104.515 41.3709V22.3954H110.442V41.3709H104.515ZM107.479 19.4903C106.576 19.4903 105.796 19.1593 105.137 18.4974C104.479 17.8354 104.149 17.0509 104.149 16.1438C104.149 15.2122 104.479 14.4277 105.137 13.7903C105.796 13.1283 106.576 12.7974 107.479 12.7974C108.405 12.7974 109.186 13.1283 109.82 13.7903C110.479 14.4277 110.808 15.1999 110.808 16.107C110.808 17.0386 110.479 17.8354 109.82 18.4974C109.186 19.1593 108.405 19.4903 107.479 19.4903ZM116.006 41.3709V26.9922H112.091V22.3954H116.006V19.8948C116.006 17.6393 116.652 15.9109 117.945 14.7096C119.238 13.5083 121.104 12.9077 123.542 12.9077C124.055 12.9077 124.603 12.9445 125.189 13.018C125.799 13.067 126.299 13.1529 126.689 13.2754V18.1664C126.153 18.0683 125.726 18.0071 125.408 17.9825C125.092 17.958 124.762 17.9458 124.42 17.9458C123.592 17.9458 122.97 18.1174 122.555 18.4606C122.14 18.7793 121.933 19.2942 121.933 20.0051V22.3954H126.689V26.9922H121.933V41.3709H116.006ZM137.48 41.7387C135.261 41.7387 133.578 41.2238 132.432 40.1941C131.286 39.1645 130.712 37.6445 130.712 35.6341V26.9922H127.054V22.3954H130.712V17.1367L136.639 15.9232V22.3954H141.688V26.9922H136.639V34.4574C136.639 35.2909 136.822 35.8793 137.188 36.2225C137.578 36.5657 138.224 36.7374 139.127 36.7374C139.468 36.7374 139.81 36.7128 140.151 36.6638C140.492 36.6148 140.956 36.5045 141.541 36.3328V41.1503C141.005 41.3219 140.346 41.4567 139.566 41.5548C138.786 41.6773 138.091 41.7387 137.48 41.7387ZM145.42 41.7754C144.518 41.7754 143.737 41.4322 143.078 40.7458C142.42 40.0593 142.09 39.238 142.09 38.2819C142.09 37.3258 142.42 36.5045 143.078 35.818C143.737 35.1315 144.518 34.7883 145.42 34.7883C146.347 34.7883 147.127 35.1315 147.761 35.818C148.42 36.5045 148.749 37.3258 148.749 38.2819C148.749 39.238 148.42 40.0593 147.761 40.7458C147.127 41.4322 146.347 41.7754 145.42 41.7754Z" fill="black"/>
</svg>
