<svg width="101" height="35" viewBox="0 0 101 35" fill="none" xmlns="http://www.w3.org/2000/svg">
<path d="M21.6354 23.4019C21.6354 20.5569 21.6354 17.7744 21.6354 14.9918C21.6354 14.5066 21.9121 14.2247 22.3461 14.0375C23.4257 13.5683 24.4928 13.075 25.5809 12.6281C25.9604 12.471 25.9666 12.32 25.8073 11.9959C24.8122 9.98243 23.8339 7.96901 22.8723 5.95558C22.2433 4.63881 22.5222 3.96028 23.887 3.33813C24.671 2.97773 25.4572 2.61733 26.2518 2.27706C27.5096 1.7435 28.2434 1.9972 28.887 3.14887C29.3063 3.89585 29.3063 3.89384 30.1029 3.55156C30.6648 3.29384 31.2371 3.03411 31.8136 2.8086C32.8053 2.43612 33.5726 2.72203 34.0128 3.65223C34.6019 4.90256 35.1596 6.16498 35.7109 7.42941C35.8682 7.79183 36.038 7.91464 36.4321 7.6972C36.7689 7.52109 37.1237 7.37873 37.4908 7.27236C38.3294 7.01062 39.0485 7.24417 39.4573 7.98511C40.3182 9.55424 41.1023 11.1583 41.8095 12.7972C42.1261 13.5281 41.8431 14.2207 41.1135 14.6596C40.7427 14.8776 40.3543 15.0668 39.9521 15.2254C39.6439 15.3502 39.6292 15.4912 39.7676 15.7589C40.2519 16.7032 40.6963 17.6677 41.1848 18.6099C42.1491 20.4643 41.8871 21.1871 39.9269 22.0086C39.5076 22.1818 39.1114 22.3912 38.69 22.5442C38.3567 22.665 38.256 22.8079 38.4426 23.1261C38.5703 23.3639 38.6749 23.6126 38.755 23.869C39.059 24.7348 38.7927 25.4455 37.9583 25.8663C37.0191 26.3401 36.0666 26.7912 35.1009 27.2193C34.1973 27.622 33.4237 27.3865 32.8975 26.569C32.6962 26.2363 32.5149 25.8928 32.3545 25.5401C31.4845 23.7482 30.6187 21.9663 29.7696 20.1683C29.6229 19.8603 29.4719 19.9489 29.2497 20.0475C26.91 21.0865 24.569 22.122 22.2266 23.1542C22.0568 23.2308 21.8828 23.2992 21.6354 23.4019Z" fill="white"/>
<path d="M20.2873 10.4058C20.2873 11.2373 20.2873 12.0165 20.2873 12.8038C20.2873 14.7326 20.2873 16.6615 20.323 18.5903C20.3844 19.1249 20.0491 19.6281 19.518 19.7984C18.4697 20.2333 17.4215 20.7326 16.3733 21.1776C16.0316 21.3205 15.954 21.4313 16.1301 21.7816C17.1546 23.8514 18.1588 25.9319 19.1427 28.0232C19.6878 29.1749 19.4068 29.8997 18.2307 30.4393C17.3922 30.8299 16.5284 31.2105 15.6647 31.5709C14.4194 32.0903 13.7234 31.8427 13.086 30.689C12.6563 29.9098 12.6563 29.9098 11.8407 30.2601C11.2852 30.4977 10.7338 30.7514 10.1636 30.9709C9.15939 31.3595 8.37322 31.0756 7.9141 30.1333C7.30193 28.8749 6.70654 27.6085 6.1384 26.3319C5.98536 25.9917 5.83861 25.9635 5.52205 26.1085C5.14467 26.2801 4.75432 26.4242 4.35432 26.5393C3.57025 26.7689 2.84907 26.5393 2.46752 25.8427C1.61636 24.2581 0.817612 22.6373 0.113205 20.9803C-0.228517 20.1749 0.232703 19.3293 1.10273 18.9668C1.52202 18.7997 2.15095 18.7877 2.24949 18.4071C2.33544 18.093 1.94341 17.6621 1.76311 17.2816C1.34382 16.4158 0.924531 15.5501 0.526206 14.6803C-0.0545111 13.438 0.234799 12.7031 1.52621 12.1212C2.10903 11.8595 2.68974 11.5877 3.28513 11.3501C3.58912 11.2293 3.70442 11.1085 3.51365 10.8044C3.38139 10.5688 3.26989 10.323 3.18031 10.0695C2.85117 9.21785 3.12161 8.44671 3.96229 8.02188C4.93294 7.5306 5.92247 7.07356 6.91828 6.63463C7.69397 6.29235 8.40047 6.48564 8.90362 7.14604C9.08206 7.39368 9.23644 7.65653 9.36484 7.93127C10.2558 9.74336 11.151 11.5554 12.0148 13.3897C12.2118 13.8064 12.3649 13.9152 12.8408 13.6977C15.1364 12.6487 17.4529 11.642 19.759 10.6192C19.9163 10.5487 20.0798 10.4903 20.2873 10.4058Z" fill="white"/>
<path d="M54.912 26.264C53.664 26.264 52.504 26.048 51.432 25.616C50.376 25.168 49.44 24.552 48.624 23.768C47.824 22.968 47.2 22.048 46.752 21.008C46.304 19.952 46.08 18.816 46.08 17.6C46.08 16.384 46.304 15.256 46.752 14.216C47.2 13.16 47.816 12.24 48.6 11.456C49.4 10.656 50.328 10.04 51.384 9.608C52.456 9.16 53.608 8.936 54.84 8.936C56.248 8.936 57.576 9.224 58.824 9.8C60.088 10.36 61.112 11.16 61.896 12.2L58.992 14.72C58.464 14.016 57.848 13.488 57.144 13.136C56.44 12.784 55.672 12.608 54.84 12.608C54.2 12.608 53.6 12.736 53.04 12.992C52.496 13.232 52.024 13.584 51.624 14.048C51.224 14.496 50.912 15.024 50.688 15.632C50.464 16.224 50.352 16.88 50.352 17.6C50.352 18.32 50.464 18.992 50.688 19.616C50.928 20.224 51.256 20.752 51.672 21.2C52.088 21.648 52.576 22 53.136 22.256C53.696 22.512 54.312 22.64 54.984 22.64C55.624 22.64 56.2 22.52 56.712 22.28C57.24 22.04 57.688 21.712 58.056 21.296C58.424 20.864 58.68 20.376 58.824 19.832H54.624V16.352H63.264V17.528C63.264 18.792 63.056 19.96 62.64 21.032C62.24 22.088 61.664 23.008 60.912 23.792C60.16 24.576 59.272 25.184 58.248 25.616C57.24 26.048 56.128 26.264 54.912 26.264ZM64.6479 26V8.912L68.5359 8.312V26H64.6479ZM70.362 26V13.616H74.25V26H70.362ZM72.306 11.72C71.714 11.72 71.202 11.504 70.77 11.072C70.338 10.64 70.122 10.128 70.122 9.536C70.122 8.928 70.338 8.416 70.77 8C71.202 7.568 71.722 7.352 72.33 7.352C72.922 7.352 73.426 7.568 73.842 8C74.274 8.416 74.49 8.92 74.49 9.512C74.49 10.12 74.274 10.64 73.842 11.072C73.426 11.504 72.914 11.72 72.306 11.72ZM77.9001 26V16.616H75.3321V13.616H77.9001V11.984C77.9001 10.512 78.3241 9.384 79.1721 8.6C80.0201 7.816 81.2441 7.424 82.8441 7.424C83.1801 7.424 83.5401 7.448 83.9241 7.496C84.3241 7.528 84.6521 7.584 84.9081 7.664V10.856C84.5561 10.792 84.2761 10.752 84.0681 10.736C83.8601 10.72 83.6441 10.712 83.4201 10.712C82.8761 10.712 82.4681 10.824 82.1961 11.048C81.9241 11.256 81.7881 11.592 81.7881 12.056V13.616H84.9081V16.616H81.7881V26H77.9001ZM91.9871 26.24C90.5311 26.24 89.4271 25.904 88.6751 25.232C87.9231 24.56 87.5471 23.568 87.5471 22.256V16.616H85.1471V13.616H87.5471V10.184L91.4351 9.392V13.616H94.7471V16.616H91.4351V21.488C91.4351 22.032 91.5551 22.416 91.7951 22.64C92.0511 22.864 92.4751 22.976 93.0671 22.976C93.2911 22.976 93.5151 22.96 93.7391 22.928C93.9631 22.896 94.2671 22.824 94.6511 22.712V25.856C94.2991 25.968 93.8671 26.056 93.3551 26.12C92.8431 26.2 92.3871 26.24 91.9871 26.24ZM97.1953 26.264C96.6033 26.264 96.0913 26.04 95.6593 25.592C95.2273 25.144 95.0113 24.608 95.0113 23.984C95.0113 23.36 95.2273 22.824 95.6593 22.376C96.0913 21.928 96.6033 21.704 97.1953 21.704C97.8033 21.704 98.3153 21.928 98.7313 22.376C99.1633 22.824 99.3793 23.36 99.3793 23.984C99.3793 24.608 99.1633 25.144 98.7313 25.592C98.3153 26.04 97.8033 26.264 97.1953 26.264Z" fill="white"/>
</svg>
