<svg width="135" height="30" viewBox="0 0 135 30" fill="none" xmlns="http://www.w3.org/2000/svg">
<path d="M106 3.125C106 1.39911 107.623 0 109.625 0H131.375C133.377 0 135 1.39911 135 3.125V11.875C135 13.6009 133.377 15 131.375 15H109.625C107.623 15 106 13.6009 106 11.875V3.125Z" fill="#3A416F"/>
<path d="M129.326 5.8C129.422 5.8 129.5 5.832 129.56 5.896C129.62 5.96 129.65 6.04 129.65 6.136V9.634C129.65 9.738 129.614 9.826 129.542 9.898C129.474 9.966 129.388 10 129.284 10C129.232 10 129.178 9.992 129.122 9.976C129.07 9.956 129.03 9.93 129.002 9.898L126.644 6.904L126.8 6.808V9.664C126.8 9.76 126.768 9.84 126.704 9.904C126.644 9.968 126.564 10 126.464 10C126.368 10 126.29 9.968 126.23 9.904C126.17 9.84 126.14 9.76 126.14 9.664V6.166C126.14 6.062 126.174 5.976 126.242 5.908C126.314 5.836 126.402 5.8 126.506 5.8C126.562 5.8 126.62 5.812 126.68 5.836C126.74 5.856 126.784 5.888 126.812 5.932L129.098 8.848L128.996 8.92V6.136C128.996 6.04 129.026 5.96 129.086 5.896C129.146 5.832 129.226 5.8 129.326 5.8Z" fill="white"/>
<path d="M125.237 9.634C125.237 9.738 125.199 9.826 125.123 9.898C125.047 9.966 124.959 10 124.859 10C124.747 10 124.657 9.966 124.589 9.898C124.521 9.826 124.487 9.738 124.487 9.634V6.166C124.487 6.062 124.523 5.976 124.595 5.908C124.667 5.836 124.759 5.8 124.871 5.8C124.967 5.8 125.051 5.836 125.123 5.908C125.199 5.976 125.237 6.062 125.237 6.166V9.634Z" fill="white"/>
<path d="M119.949 5.79401C120.005 5.79401 120.063 5.81001 120.123 5.84201C120.187 5.87001 120.235 5.90801 120.267 5.95601L121.725 8.20001L121.425 8.18801L122.919 5.95601C122.995 5.84801 123.093 5.79401 123.213 5.79401C123.309 5.79401 123.395 5.82801 123.471 5.89601C123.547 5.96401 123.585 6.05201 123.585 6.16001V9.63401C123.585 9.73801 123.551 9.82601 123.483 9.89801C123.415 9.96601 123.325 10 123.213 10C123.101 10 123.009 9.96601 122.937 9.89801C122.869 9.82601 122.835 9.73801 122.835 9.63401V6.80801L123.069 6.86201L121.845 8.72801C121.809 8.77201 121.763 8.81001 121.707 8.84201C121.655 8.87401 121.601 8.88801 121.545 8.88401C121.493 8.88801 121.439 8.87401 121.383 8.84201C121.331 8.81001 121.287 8.77201 121.251 8.72801L120.105 6.91601L120.261 6.59801V9.63401C120.261 9.73801 120.229 9.82601 120.165 9.89801C120.101 9.96601 120.017 10 119.913 10C119.813 10 119.731 9.96601 119.667 9.89801C119.603 9.82601 119.571 9.73801 119.571 9.63401V6.16001C119.571 6.06001 119.607 5.97401 119.679 5.90201C119.755 5.83001 119.845 5.79401 119.949 5.79401Z" fill="white"/>
<path d="M117.082 5.8C117.37 5.8 117.626 5.854 117.85 5.962C118.074 6.07 118.262 6.222 118.414 6.418C118.57 6.61 118.686 6.834 118.762 7.09C118.842 7.342 118.882 7.612 118.882 7.9C118.882 8.288 118.812 8.642 118.672 8.962C118.532 9.278 118.328 9.53 118.06 9.718C117.796 9.906 117.47 10 117.082 10H115.648C115.544 10 115.456 9.966 115.384 9.898C115.316 9.826 115.282 9.738 115.282 9.634V6.166C115.282 6.062 115.316 5.976 115.384 5.908C115.456 5.836 115.544 5.8 115.648 5.8H117.082ZM117.022 9.31C117.274 9.31 117.48 9.246 117.64 9.118C117.8 8.986 117.916 8.814 117.988 8.602C118.064 8.386 118.102 8.152 118.102 7.9C118.102 7.712 118.08 7.534 118.036 7.366C117.996 7.194 117.932 7.044 117.844 6.916C117.756 6.784 117.644 6.68 117.508 6.604C117.372 6.528 117.21 6.49 117.022 6.49H115.972L116.032 6.436V9.376L115.996 9.31H117.022Z" fill="white"/>
<path d="M112.992 6.742L111.696 9.79C111.668 9.866 111.624 9.926 111.564 9.97C111.508 10.01 111.446 10.03 111.378 10.03C111.27 10.03 111.19 10 111.138 9.94C111.086 9.88 111.06 9.806 111.06 9.718C111.06 9.682 111.066 9.644 111.078 9.604L112.572 6.016C112.604 5.936 112.652 5.874 112.716 5.83C112.784 5.786 112.856 5.768 112.932 5.776C113.004 5.776 113.07 5.798 113.13 5.842C113.194 5.882 113.24 5.94 113.268 6.016L114.744 9.532C114.764 9.584 114.774 9.632 114.774 9.676C114.774 9.784 114.738 9.87 114.666 9.934C114.598 9.998 114.522 10.03 114.438 10.03C114.366 10.03 114.3 10.008 114.24 9.964C114.184 9.92 114.14 9.86 114.108 9.784L112.818 6.778L112.992 6.742ZM111.882 9.058L112.212 8.368H113.832L113.946 9.058H111.882Z" fill="white"/>
<path d="M20.6367 21.5217C20.6367 18.6595 20.6367 15.8601 20.6367 13.0606C20.6367 12.5724 20.9007 12.2888 21.3146 12.1005C22.3443 11.6285 23.362 11.1322 24.3998 10.6825C24.7617 10.5245 24.7677 10.3726 24.6157 10.0465C23.6666 8.02081 22.7335 5.99517 21.8164 3.96953C21.2166 2.64475 21.4825 1.96211 22.7842 1.33619C23.532 0.973597 24.2818 0.611006 25.0396 0.268672C26.2393 -0.268124 26.9392 -0.0128924 27.553 1.14578C27.9529 1.89729 27.9529 1.89526 28.7127 1.55091C29.2486 1.29162 29.7944 1.03031 30.3443 0.803443C31.2901 0.428698 32.0219 0.71634 32.4418 1.65219C33.0036 2.91011 33.5355 4.18019 34.0614 5.4523C34.2113 5.81691 34.3733 5.94048 34.7492 5.72171C35.0704 5.54453 35.4088 5.40131 35.759 5.2943C36.5588 5.03096 37.2446 5.26594 37.6345 6.01138C38.4556 7.59003 39.2034 9.20379 39.8779 10.8527C40.1799 11.588 39.9099 12.2848 39.2141 12.7264C38.8604 12.9457 38.49 13.1361 38.1064 13.2956C37.8124 13.4212 37.7985 13.563 37.9304 13.8324C38.3923 14.7824 38.8162 15.7527 39.2821 16.7007C40.2019 18.5663 39.9519 19.2935 38.0824 20.12C37.6825 20.2942 37.3046 20.5049 36.9027 20.6588C36.5848 20.7804 36.4888 20.9242 36.6667 21.2442C36.7886 21.4836 36.8883 21.7338 36.9647 21.9917C37.2546 22.8627 37.0006 23.5778 36.2048 24.0011C35.3091 24.4778 34.4006 24.9316 33.4795 25.3624C32.6177 25.7675 31.8799 25.5305 31.378 24.7081C31.186 24.3734 31.0131 24.0278 30.8602 23.673C30.0304 21.8701 29.2046 20.0775 28.3948 18.2686C28.2548 17.9586 28.1109 18.0478 27.8989 18.147C25.6675 19.1922 23.4347 20.2341 21.2006 21.2726C21.0386 21.3496 20.8727 21.4184 20.6367 21.5217Z" fill="#3A416F"/>
<path d="M19.3492 8.44618C19.3492 9.28277 19.3492 10.0667 19.3492 10.8587C19.3492 12.7993 19.3492 14.7399 19.3832 16.6804C19.4418 17.2182 19.1219 17.7245 18.6154 17.8958C17.6156 18.3334 16.6159 18.8357 15.6161 19.2834C15.2902 19.4272 15.2162 19.5386 15.3842 19.8911C16.3613 21.9734 17.319 24.0666 18.2575 26.1706C18.7773 27.3292 18.5094 28.0585 17.3877 28.6013C16.5879 28.9943 15.7641 29.3772 14.9403 29.7398C13.7526 30.2624 13.0887 30.0132 12.4809 28.8525C12.071 28.0686 12.071 28.0686 11.2932 28.4211C10.7633 28.6601 10.2375 28.9153 9.69359 29.1361C8.73583 29.5271 7.98601 29.2415 7.54812 28.2935C6.96427 27.0274 6.39641 25.7533 5.85454 24.469C5.70858 24.1267 5.56861 24.0983 5.26669 24.2442C4.90676 24.4169 4.53446 24.5618 4.15296 24.6777C3.40515 24.9086 2.71732 24.6777 2.35341 23.9768C1.54161 22.3826 0.779803 20.752 0.10797 19.0849C-0.217949 18.2746 0.221942 17.4238 1.05174 17.0592C1.45164 16.8911 2.05149 16.8789 2.14546 16.4961C2.22744 16.1801 1.85354 15.7466 1.68158 15.3638C1.28168 14.4927 0.881778 13.6217 0.501872 12.7466C-0.0519903 11.4968 0.223941 10.7574 1.45564 10.172C2.0115 9.9087 2.56536 9.63524 3.13322 9.39621C3.42315 9.27467 3.53312 9.15313 3.35116 8.84726C3.22502 8.61022 3.11867 8.36291 3.03324 8.1079C2.71932 7.25105 2.97726 6.47523 3.77906 6.04782C4.70483 5.55356 5.64859 5.09374 6.59836 4.65215C7.33817 4.30779 8.01201 4.50225 8.49189 5.16666C8.66207 5.41581 8.80932 5.68025 8.93178 5.95667C9.78157 7.77975 10.6354 9.60283 11.4591 11.4482C11.6471 11.8675 11.7931 11.9769 12.247 11.7581C14.4364 10.7028 16.6459 9.68993 18.8453 8.6609C18.9953 8.59 19.1512 8.53126 19.3492 8.44618Z" fill="#3A416F"/>
<path d="M98.7058 26C98.0838 26 97.5459 25.7631 97.092 25.2893C96.6381 24.8156 96.4111 24.2487 96.4111 23.5888C96.4111 22.9289 96.6381 22.3621 97.092 21.8883C97.5459 21.4146 98.0838 21.1777 98.7058 21.1777C99.3446 21.1777 99.8825 21.4146 100.32 21.8883C100.773 22.3621 101 22.9289 101 23.5888C101 24.2487 100.773 24.8156 100.32 25.2893C99.8825 25.7631 99.3446 26 98.7058 26Z" fill="black"/>
<path d="M93.2334 25.9746C91.7037 25.9746 90.5437 25.6193 89.7536 24.9086C88.9635 24.198 88.5685 23.1489 88.5685 21.7614V15.797H86.0469V12.6244H88.5685V8.99493L92.6535 8.15736V12.6244H96.1333V15.797H92.6535V20.9492C92.6535 21.5245 92.7796 21.9306 93.0317 22.1675C93.3007 22.4044 93.7462 22.5228 94.3682 22.5228C94.6035 22.5228 94.8389 22.5059 95.0742 22.4721C95.3096 22.4382 95.629 22.3621 96.0324 22.2437V25.5685C95.6626 25.687 95.2087 25.78 94.6708 25.8477C94.1328 25.9323 93.6537 25.9746 93.2334 25.9746Z" fill="black"/>
<path d="M78.4315 25.7208V15.7969H75.7334V12.6243H78.4315V10.8985C78.4315 9.34178 78.877 8.14888 79.768 7.31978C80.6589 6.49068 81.9449 6.07613 83.626 6.07613C83.979 6.07613 84.3573 6.1015 84.7607 6.15227C85.181 6.18611 85.5256 6.24533 85.7946 6.32993V9.70557C85.4248 9.63788 85.1306 9.59558 84.912 9.57866C84.6935 9.56174 84.4665 9.55328 84.2312 9.55328C83.6596 9.55328 83.231 9.67173 82.9452 9.90861C82.6594 10.1286 82.5165 10.4839 82.5165 10.9746V12.6243H85.7946V15.7969H82.5165V25.7208H78.4315Z" fill="black"/>
<path d="M70.5129 25.7208V12.6244H74.5979V25.7208H70.5129ZM72.5554 10.6193C71.9334 10.6193 71.3955 10.3909 70.9416 9.93401C70.4877 9.47715 70.2607 8.9357 70.2607 8.30964C70.2607 7.66667 70.4877 7.12521 70.9416 6.68528C71.3955 6.22843 71.9334 6 72.5554 6C73.1942 6 73.7321 6.22843 74.1692 6.68528C74.6231 7.12521 74.8501 7.66667 74.8501 8.30964C74.8501 8.9357 74.6231 9.47715 74.1692 9.93401C73.7321 10.3909 73.1942 10.6193 72.5554 10.6193Z" fill="black"/>
<path d="M64.5098 25.7208V7.64975L68.5948 7.01523V25.7208H64.5098Z" fill="black"/>
<path d="M54.2795 26C52.9683 26 51.7495 25.7716 50.6232 25.3147C49.5137 24.8409 48.5302 24.1895 47.6729 23.3604C46.8324 22.5144 46.1767 21.5414 45.706 20.4416C45.2353 19.3249 45 18.1235 45 16.8376C45 15.5516 45.2353 14.3587 45.706 13.2589C46.1767 12.1421 46.824 11.1692 47.6477 10.3401C48.4882 9.49408 49.4632 8.84264 50.5727 8.38579C51.6991 7.91201 52.9094 7.67513 54.2038 7.67513C55.6832 7.67513 57.0785 7.97969 58.3897 8.58883C59.7177 9.18105 60.7936 10.0271 61.6174 11.1269L58.5662 13.7919C58.0115 13.0474 57.3642 12.489 56.6246 12.1167C55.8849 11.7445 55.078 11.5584 54.2038 11.5584C53.5314 11.5584 52.901 11.6937 52.3126 11.9645C51.7411 12.2183 51.2452 12.5905 50.8249 13.0812C50.4046 13.555 50.0768 14.1134 49.8415 14.7563C49.6061 15.3824 49.4884 16.0761 49.4884 16.8376C49.4884 17.599 49.6061 18.3096 49.8415 18.9695C50.0936 19.6125 50.4383 20.1709 50.8753 20.6447C51.3124 21.1184 51.8251 21.4907 52.4135 21.7614C53.0019 22.0321 53.6491 22.1675 54.3551 22.1675C55.0276 22.1675 55.6328 22.0406 56.1707 21.7868C56.7254 21.533 57.1961 21.1861 57.5828 20.7462C57.9694 20.2893 58.2384 19.7733 58.3897 19.198H53.9769V15.5178H63.0547V16.7614C63.0547 18.0981 62.8361 19.3333 62.399 20.467C61.9788 21.5837 61.3736 22.5567 60.5835 23.3858C59.7934 24.2149 58.8604 24.8579 57.7845 25.3147C56.7254 25.7716 55.5571 26 54.2795 26Z" fill="black"/>
</svg>
