<svg width="147" height="35" viewBox="0 0 147 35" fill="none" xmlns="http://www.w3.org/2000/svg">
<g clip-path="url(#clip0_0_50459)">
<rect x="107" y="5" width="40" height="25" rx="5" fill="#E6E6FF"/>
<mask id="mask0_0_50459" style="mask-type:luminance" maskUnits="userSpaceOnUse" x="107" y="5" width="40" height="25">
<rect x="107" y="5" width="40" height="25" rx="5" fill="white"/>
</mask>
<g mask="url(#mask0_0_50459)">
<rect x="59" y="-55.417" width="140" height="145.833" fill="#E6E6FF"/>
</g>
<path d="M114.866 22V15H118.076C118.516 15 118.903 15.08 119.236 15.24C119.576 15.3933 119.839 15.61 120.026 15.89C120.219 16.17 120.316 16.4933 120.316 16.86C120.316 17.2067 120.213 17.5167 120.006 17.79C119.806 18.0567 119.539 18.26 119.206 18.4C119.613 18.5333 119.936 18.7433 120.176 19.03C120.423 19.3167 120.546 19.6567 120.546 20.05C120.546 20.43 120.446 20.77 120.246 21.07C120.053 21.3633 119.779 21.5933 119.426 21.76C119.079 21.92 118.676 22 118.216 22H114.866ZM116.206 17.91H117.936C118.249 17.91 118.499 17.8267 118.686 17.66C118.879 17.4933 118.976 17.2733 118.976 17C118.976 16.72 118.883 16.4967 118.696 16.33C118.509 16.1633 118.256 16.08 117.936 16.08H116.206V17.91ZM116.206 20.92H118.056C118.403 20.92 118.679 20.83 118.886 20.65C119.093 20.4633 119.196 20.22 119.196 19.92C119.196 19.62 119.093 19.38 118.886 19.2C118.679 19.02 118.403 18.93 118.056 18.93H116.206V20.92ZM121.917 22V15H127.007V16.13H123.257V17.92H125.877V19.02H123.257V20.87H127.047V22H121.917ZM130.141 22V16.15H127.821V15H133.791V16.15H131.471V22H130.141ZM132.914 22L135.654 15H137.194L139.904 22H138.464L137.784 20.11H134.994L134.304 22H132.914ZM135.364 19.08H137.414L136.394 16.28L135.364 19.08Z" fill="#7069FA"/>
</g>
<path d="M21.6362 23.3987C21.6362 20.5538 21.6362 17.7712 21.6362 14.9887C21.6362 14.5034 21.9129 14.2215 22.3469 14.0343C23.4265 13.5652 24.4936 13.0719 25.5817 12.6249C25.9612 12.4678 25.9674 12.3168 25.8081 11.9927C24.813 9.97926 23.8347 7.96583 22.8731 5.95241C22.2441 4.63563 22.523 3.95711 23.8878 3.33496C24.6718 2.97456 25.458 2.61416 26.2526 2.27389C27.5104 1.74033 28.2442 1.99402 28.8878 3.1457C29.3071 3.89268 29.3071 3.89067 30.1037 3.54838C30.6656 3.29067 31.2379 3.03093 31.8144 2.80543C32.8061 2.43295 33.5734 2.71885 34.0136 3.64905C34.6027 4.89939 35.1604 6.16181 35.7117 7.42624C35.869 7.78865 36.0388 7.91147 36.4329 7.69402C36.7697 7.51792 37.1245 7.37556 37.4916 7.26919C38.3302 7.00744 39.0493 7.241 39.4581 7.98194C40.319 9.55107 41.1031 11.1551 41.8103 12.794C42.1269 13.5249 41.8439 14.2175 41.1143 14.6564C40.7435 14.8744 40.3551 15.0636 39.9529 15.2222C39.6447 15.347 39.63 15.488 39.7684 15.7558C40.2527 16.7001 40.6971 17.6645 41.1856 18.6068C42.1499 20.4611 41.8879 21.184 39.9277 22.0054C39.5084 22.1786 39.1122 22.388 38.6908 22.541C38.3575 22.6618 38.2568 22.8048 38.4434 23.1229C38.5711 23.3608 38.6757 23.6095 38.7558 23.8658C39.0598 24.7316 38.7935 25.4423 37.9591 25.8631C37.0199 26.337 36.0674 26.788 35.1017 27.2162C34.1981 27.6189 33.4245 27.3833 32.8983 26.5658C32.697 26.2331 32.5157 25.8896 32.3553 25.537C31.4853 23.745 30.6195 21.9632 29.7704 20.1652C29.6237 19.8571 29.4727 19.9457 29.2505 20.0444C26.9108 21.0833 24.5698 22.1189 22.2274 23.1511C22.0576 23.2276 21.8836 23.296 21.6362 23.3987Z" fill="#7069FA"/>
<path d="M20.2873 10.4024C20.2873 11.2339 20.2873 12.0131 20.2873 12.8003C20.2873 14.7292 20.2873 16.6581 20.323 18.5869C20.3844 19.1214 20.0491 19.6247 19.518 19.795C18.4697 20.2299 17.4215 20.7292 16.3733 21.1742C16.0316 21.3171 15.954 21.4279 16.1301 21.7782C17.1546 23.848 18.1588 25.9285 19.1427 28.0198C19.6878 29.1715 19.4068 29.8963 18.2307 30.4359C17.3922 30.8265 16.5284 31.2071 15.6647 31.5675C14.4194 32.0869 13.7234 31.8393 13.086 30.6856C12.6563 29.9064 12.6563 29.9064 11.8407 30.2567C11.2852 30.4943 10.7338 30.748 10.1636 30.9675C9.15939 31.356 8.37322 31.0722 7.9141 30.1299C7.30193 28.8715 6.70654 27.605 6.1384 26.3285C5.98536 25.9883 5.83861 25.9601 5.52205 26.105C5.14467 26.2767 4.75432 26.4208 4.35432 26.5359C3.57025 26.7654 2.84907 26.5359 2.46752 25.8393C1.61636 24.2547 0.817612 22.6339 0.113205 20.9769C-0.228517 20.1715 0.232703 19.3258 1.10273 18.9634C1.52202 18.7963 2.15095 18.7842 2.24949 18.4037C2.33544 18.0896 1.94341 17.6587 1.76311 17.2782C1.34382 16.4124 0.924531 15.5466 0.526206 14.6769C-0.0545111 13.4346 0.234799 12.6997 1.52621 12.1178C2.10903 11.856 2.68974 11.5842 3.28513 11.3466C3.58912 11.2258 3.70442 11.105 3.51365 10.801C3.38139 10.5654 3.26989 10.3196 3.18031 10.0661C2.85117 9.21443 3.12161 8.44329 3.96229 8.01846C4.93294 7.52719 5.92247 7.07014 6.91828 6.63121C7.69397 6.28893 8.40047 6.48222 8.90362 7.14262C9.08206 7.39026 9.23644 7.65311 9.36484 7.92786C10.2558 9.73994 11.151 11.552 12.0148 13.3862C12.2118 13.803 12.3649 13.9117 12.8408 13.6943C15.1364 12.6453 17.4529 11.6386 19.759 10.6158C19.9163 10.5453 20.0798 10.4869 20.2873 10.4024Z" fill="#7069FA"/>
<path d="M54.912 26.264C53.664 26.264 52.504 26.048 51.432 25.616C50.376 25.168 49.44 24.552 48.624 23.768C47.824 22.968 47.2 22.048 46.752 21.008C46.304 19.952 46.08 18.816 46.08 17.6C46.08 16.384 46.304 15.256 46.752 14.216C47.2 13.16 47.816 12.24 48.6 11.456C49.4 10.656 50.328 10.04 51.384 9.608C52.456 9.16 53.608 8.936 54.84 8.936C56.248 8.936 57.576 9.224 58.824 9.8C60.088 10.36 61.112 11.16 61.896 12.2L58.992 14.72C58.464 14.016 57.848 13.488 57.144 13.136C56.44 12.784 55.672 12.608 54.84 12.608C54.2 12.608 53.6 12.736 53.04 12.992C52.496 13.232 52.024 13.584 51.624 14.048C51.224 14.496 50.912 15.024 50.688 15.632C50.464 16.224 50.352 16.88 50.352 17.6C50.352 18.32 50.464 18.992 50.688 19.616C50.928 20.224 51.256 20.752 51.672 21.2C52.088 21.648 52.576 22 53.136 22.256C53.696 22.512 54.312 22.64 54.984 22.64C55.624 22.64 56.2 22.52 56.712 22.28C57.24 22.04 57.688 21.712 58.056 21.296C58.424 20.864 58.68 20.376 58.824 19.832H54.624V16.352H63.264V17.528C63.264 18.792 63.056 19.96 62.64 21.032C62.24 22.088 61.664 23.008 60.912 23.792C60.16 24.576 59.272 25.184 58.248 25.616C57.24 26.048 56.128 26.264 54.912 26.264ZM64.6479 26V8.912L68.5359 8.312V26H64.6479ZM70.362 26V13.616H74.25V26H70.362ZM72.306 11.72C71.714 11.72 71.202 11.504 70.77 11.072C70.338 10.64 70.122 10.128 70.122 9.536C70.122 8.928 70.338 8.416 70.77 8C71.202 7.568 71.722 7.352 72.33 7.352C72.922 7.352 73.426 7.568 73.842 8C74.274 8.416 74.49 8.92 74.49 9.512C74.49 10.12 74.274 10.64 73.842 11.072C73.426 11.504 72.914 11.72 72.306 11.72ZM77.9001 26V16.616H75.3321V13.616H77.9001V11.984C77.9001 10.512 78.3241 9.384 79.1721 8.6C80.0201 7.816 81.2441 7.424 82.8441 7.424C83.1801 7.424 83.5401 7.448 83.9241 7.496C84.3241 7.528 84.6521 7.584 84.9081 7.664V10.856C84.5561 10.792 84.2761 10.752 84.0681 10.736C83.8601 10.72 83.6441 10.712 83.4201 10.712C82.8761 10.712 82.4681 10.824 82.1961 11.048C81.9241 11.256 81.7881 11.592 81.7881 12.056V13.616H84.9081V16.616H81.7881V26H77.9001ZM91.9871 26.24C90.5311 26.24 89.4271 25.904 88.6751 25.232C87.9231 24.56 87.5471 23.568 87.5471 22.256V16.616H85.1471V13.616H87.5471V10.184L91.4351 9.392V13.616H94.7471V16.616H91.4351V21.488C91.4351 22.032 91.5551 22.416 91.7951 22.64C92.0511 22.864 92.4751 22.976 93.0671 22.976C93.2911 22.976 93.5151 22.96 93.7391 22.928C93.9631 22.896 94.2671 22.824 94.6511 22.712V25.856C94.2991 25.968 93.8671 26.056 93.3551 26.12C92.8431 26.2 92.3871 26.24 91.9871 26.24ZM97.1953 26.264C96.6033 26.264 96.0913 26.04 95.6593 25.592C95.2273 25.144 95.0113 24.608 95.0113 23.984C95.0113 23.36 95.2273 22.824 95.6593 22.376C96.0913 21.928 96.6033 21.704 97.1953 21.704C97.8033 21.704 98.3153 21.928 98.7313 22.376C99.1633 22.824 99.3793 23.36 99.3793 23.984C99.3793 24.608 99.1633 25.144 98.7313 25.592C98.3153 26.04 97.8033 26.264 97.1953 26.264Z" fill="black"/>
<defs>
<clipPath id="clip0_0_50459">
<rect width="40" height="25" fill="white" transform="translate(107 5)"/>
</clipPath>
</defs>
</svg>
