<svg width="25" height="25" viewBox="0 0 25 25" fill="none" xmlns="http://www.w3.org/2000/svg">
<mask id="mask0_395_548" style="mask-type:luminance" maskUnits="userSpaceOnUse" x="4" y="6" width="17" height="17">
<path d="M12.3274 6.20275C14.8541 6.20275 17.3805 6.20182 19.9066 6.19995C20.0204 6.19995 20.0448 6.22188 20.0364 6.3399C19.9861 7.02566 19.9466 7.71236 19.9033 8.39906C19.8432 9.35695 19.783 10.3148 19.7228 11.2727C19.6721 12.0835 19.6219 12.8941 19.5724 13.7046C19.5138 14.6473 19.4544 15.5898 19.3942 16.5321C19.3435 17.335 19.2979 18.1383 19.2434 18.9407C19.1964 19.6073 19.1917 20.2777 19.1 20.9401C19.0267 21.4687 18.8452 21.9566 18.4311 22.3275C18.0795 22.6424 17.6527 22.7595 17.1934 22.7875C17.0957 22.7935 16.9979 22.7917 16.8996 22.7917C13.7192 22.7917 10.5388 22.7963 7.35744 22.7884C6.5292 22.7884 5.81894 22.3074 5.54254 21.4915C5.41469 21.1155 5.3799 20.7255 5.35452 20.3341C5.26771 18.9103 5.1831 17.4866 5.10069 16.0628C5.03817 14.9455 4.98458 13.8273 4.92724 12.7096C4.85955 11.394 4.79201 10.0783 4.72464 8.76246C4.68327 7.94328 4.64567 7.1241 4.60007 6.30538C4.5949 6.20648 4.63298 6.20322 4.71101 6.20322C7.25027 6.20384 9.78906 6.20368 12.3274 6.20275Z" fill="white"/>
</mask>
<g mask="url(#mask0_395_548)">
<rect x="0.199219" y="6.59985" width="24" height="18.4" fill="#ECE9F1"/>
</g>
<mask id="mask1_395_548" style="mask-type:luminance" maskUnits="userSpaceOnUse" x="3" y="3" width="19" height="4">
<path d="M12.1869 6.83006C9.38644 6.83006 6.58571 6.83006 3.78466 6.83006C3.60413 6.83006 3.42072 6.81373 3.27188 6.6901C3.1367 6.58972 3.04865 6.44081 3.0275 6.27678C2.97948 5.85693 3.00925 5.43241 3.00781 5.01022C3.00781 4.71306 3.11104 4.46254 3.42216 4.34032C3.51374 4.30471 3.6116 4.2868 3.71024 4.2876C5.29785 4.2876 6.88595 4.2876 8.47453 4.2876C8.55316 4.2968 8.62795 4.25215 8.65505 4.17984C8.78565 3.92653 8.89512 3.66342 9.055 3.4241C9.20314 3.18714 9.46453 3.039 9.74974 3.03037C10.9798 2.97159 12.2109 3.01871 13.4414 3.00518C13.7492 3.00192 14.0574 3.00145 14.3657 3.00518C14.623 3.00891 14.8751 3.03177 15.0988 3.18665C15.2343 3.27809 15.3443 3.4007 15.4191 3.54353C15.5305 3.75952 15.6476 3.97271 15.7513 4.19197C15.7878 4.26988 15.8339 4.28807 15.915 4.28807C17.4991 4.2862 19.0835 4.2862 20.6683 4.28807C20.9612 4.28807 21.1892 4.39817 21.327 4.65521C21.3861 4.76531 21.3918 4.89219 21.3942 5.01209C21.4014 5.37736 21.4024 5.7431 21.3942 6.10837C21.387 6.46058 21.2276 6.7097 20.9175 6.79227C20.8146 6.81894 20.7085 6.83212 20.602 6.83146L12.1869 6.83006Z" fill="white"/>
</mask>
<g mask="url(#mask1_395_548)">
<rect x="2.2002" y="1.3999" width="20" height="7.2" fill="#D7D4DC"/>
</g>
</svg>
